%TF.GenerationSoftware,KiCad,Pcbnew,8.0.5*%
%TF.CreationDate,2024-10-04T16:45:10+08:00*%
%TF.ProjectId,Chao Recruit,4368616f-2052-4656-9372-7569742e6b69,rev?*%
%TF.SameCoordinates,Original*%
%TF.FileFunction,Copper,L2,Bot*%
%TF.FilePolarity,Positive*%
%FSLAX46Y46*%
G04 Gerber Fmt 4.6, Leading zero omitted, Abs format (unit mm)*
G04 Created by KiCad (PCBNEW 8.0.5) date 2024-10-04 16:45:10*
%MOMM*%
%LPD*%
G01*
G04 APERTURE LIST*
%TA.AperFunction,ComponentPad*%
%ADD10R,1.700000X1.700000*%
%TD*%
%TA.AperFunction,ComponentPad*%
%ADD11O,1.700000X1.700000*%
%TD*%
%TA.AperFunction,ComponentPad*%
%ADD12R,1.222000X1.222000*%
%TD*%
%TA.AperFunction,ComponentPad*%
%ADD13C,1.222000*%
%TD*%
%TA.AperFunction,ComponentPad*%
%ADD14C,1.500000*%
%TD*%
%TA.AperFunction,ComponentPad*%
%ADD15C,4.700000*%
%TD*%
%TA.AperFunction,ConnectorPad*%
%ADD16C,7.500000*%
%TD*%
%TA.AperFunction,ComponentPad*%
%ADD17O,2.100000X1.000000*%
%TD*%
%TA.AperFunction,ComponentPad*%
%ADD18O,1.600000X1.000000*%
%TD*%
%TA.AperFunction,ViaPad*%
%ADD19C,1.200000*%
%TD*%
%TA.AperFunction,ViaPad*%
%ADD20C,0.800000*%
%TD*%
%TA.AperFunction,ViaPad*%
%ADD21C,0.600000*%
%TD*%
%TA.AperFunction,Conductor*%
%ADD22C,1.750000*%
%TD*%
%TA.AperFunction,Conductor*%
%ADD23C,0.500000*%
%TD*%
%TA.AperFunction,Conductor*%
%ADD24C,0.250000*%
%TD*%
%TA.AperFunction,Conductor*%
%ADD25C,2.000000*%
%TD*%
G04 APERTURE END LIST*
D10*
%TO.P,J101,1,Pin_1*%
%TO.N,+3V3*%
X77960002Y-90135000D03*
D11*
%TO.P,J101,2,Pin_2*%
%TO.N,/SWDIO-PA13*%
X75420002Y-90135000D03*
%TO.P,J101,3,Pin_3*%
%TO.N,/SWCLK-PA14*%
X72880003Y-90135000D03*
%TO.P,J101,4,Pin_4*%
%TO.N,GND*%
X70340002Y-90135000D03*
%TD*%
D12*
%TO.P,RV201,1,1*%
%TO.N,Net-(U201A--)*%
X125450000Y-85680000D03*
D13*
%TO.P,RV201,2,2*%
%TO.N,/ANA1_MCU-PA0*%
X122910000Y-83140000D03*
%TO.P,RV201,3,3*%
%TO.N,GND*%
X125450000Y-80600000D03*
%TD*%
D10*
%TO.P,J202,1,Pin_1*%
%TO.N,VCC*%
X63412082Y-54350000D03*
D11*
%TO.P,J202,2,Pin_2*%
X63412082Y-51810000D03*
%TO.P,J202,3,Pin_3*%
%TO.N,GND*%
X65952082Y-54350000D03*
%TO.P,J202,4,Pin_4*%
X65952082Y-51810000D03*
%TO.P,J202,5,Pin_5*%
%TO.N,+5V*%
X68492081Y-54350000D03*
%TO.P,J202,6,Pin_6*%
X68492082Y-51810000D03*
%TO.P,J202,7,Pin_7*%
%TO.N,GND*%
X71032082Y-54350000D03*
%TO.P,J202,8,Pin_8*%
X71032082Y-51810000D03*
%TO.P,J202,9,Pin_9*%
%TO.N,+3V3*%
X73572082Y-54350000D03*
%TO.P,J202,10,Pin_10*%
X73572082Y-51810000D03*
%TO.P,J202,11,Pin_11*%
%TO.N,GND*%
X76112082Y-54350000D03*
%TO.P,J202,12,Pin_12*%
X76112082Y-51810000D03*
%TD*%
D10*
%TO.P,J213,1,Pin_1*%
%TO.N,/HMI/ANA1_INP*%
X122370000Y-69220000D03*
D11*
%TO.P,J213,2,Pin_2*%
%TO.N,/HMI/ANA1_OA*%
X124910000Y-69220000D03*
%TO.P,J213,3,Pin_3*%
%TO.N,V_{OA}*%
X127449999Y-69220000D03*
%TD*%
D10*
%TO.P,JP101,1,A*%
%TO.N,VBUS_{USB1}*%
X51775000Y-75000000D03*
D11*
%TO.P,JP101,2,B*%
%TO.N,+5V*%
X54315000Y-75000000D03*
%TD*%
D10*
%TO.P,J214,1,Pin_1*%
%TO.N,/HMI/ANA2_INP*%
X122370000Y-66680000D03*
D11*
%TO.P,J214,2,Pin_2*%
%TO.N,/HMI/ANA2_OA*%
X124910000Y-66680000D03*
%TO.P,J214,3,Pin_3*%
%TO.N,V_{OA}*%
X127449999Y-66680000D03*
%TD*%
D14*
%TO.P,TP203,1,1*%
%TO.N,/ANA2_MCU-PA1*%
X112910000Y-76140000D03*
%TD*%
D10*
%TO.P,J207,1,Pin_1*%
%TO.N,/Communications/CAN_H*%
X66530002Y-97725000D03*
D11*
%TO.P,J207,2,Pin_2*%
X63990002Y-97725000D03*
%TO.P,J207,3,Pin_3*%
%TO.N,/Communications/CAN_L*%
X66530002Y-95185000D03*
%TO.P,J207,4,Pin_4*%
X63990002Y-95185000D03*
%TO.P,J207,5,Pin_5*%
X66530002Y-92645001D03*
%TO.P,J207,6,Pin_6*%
%TO.N,/Communications/CAN_H_{TERMINATED}*%
X63990002Y-92645000D03*
%TD*%
D10*
%TO.P,J204,1,Pin_1*%
%TO.N,GND*%
X116752081Y-51810000D03*
D11*
%TO.P,J204,2,Pin_2*%
%TO.N,/HMI/ANA2_INP*%
X116752081Y-54350000D03*
%TO.P,J204,3,Pin_3*%
%TO.N,GND*%
X114212081Y-51810000D03*
%TO.P,J204,4,Pin_4*%
%TO.N,/HMI/ANA1_INP*%
X114212081Y-54350000D03*
%TO.P,J204,5,Pin_5*%
%TO.N,VCC_{F}*%
X111672082Y-51810000D03*
%TO.P,J204,6,Pin_6*%
X111672081Y-54350000D03*
%TO.P,J204,7,Pin_7*%
%TO.N,/HMI/MOS1-*%
X109132081Y-51810000D03*
%TO.P,J204,8,Pin_8*%
X109132081Y-54350000D03*
%TO.P,J204,9,Pin_9*%
%TO.N,VCC_{F}*%
X106592081Y-51810000D03*
%TO.P,J204,10,Pin_10*%
X106592081Y-54350000D03*
%TO.P,J204,11,Pin_11*%
%TO.N,/HMI/MOS2-*%
X104052081Y-51810000D03*
%TO.P,J204,12,Pin_12*%
X104052081Y-54350000D03*
%TO.P,J204,13,Pin_13*%
%TO.N,VCC_{F}*%
X101512081Y-51810000D03*
%TO.P,J204,14,Pin_14*%
X101512081Y-54350000D03*
%TO.P,J204,15,Pin_15*%
%TO.N,/HMI/MOS3-*%
X98972080Y-51810000D03*
%TO.P,J204,16,Pin_16*%
X98972081Y-54350000D03*
%TO.P,J204,17,Pin_17*%
%TO.N,VCC_{F}*%
X96432081Y-51810000D03*
%TO.P,J204,18,Pin_18*%
X96432081Y-54350000D03*
%TO.P,J204,19,Pin_19*%
%TO.N,/HMI/MOS4-*%
X93892081Y-51810000D03*
%TO.P,J204,20,Pin_20*%
X93892081Y-54350000D03*
%TO.P,J204,21,Pin_21*%
%TO.N,VCC_{F}*%
X91352081Y-51810000D03*
%TO.P,J204,22,Pin_22*%
X91352081Y-54350000D03*
%TO.P,J204,23,Pin_23*%
%TO.N,/HMI/MOS5-*%
X88812082Y-51810000D03*
%TO.P,J204,24,Pin_24*%
X88812081Y-54350000D03*
%TO.P,J204,25,Pin_25*%
%TO.N,VCC_{F}*%
X86272081Y-51810000D03*
%TO.P,J204,26,Pin_26*%
X86272081Y-54350000D03*
%TO.P,J204,27,Pin_27*%
%TO.N,/HMI/MOS6-*%
X83732081Y-51810000D03*
%TO.P,J204,28,Pin_28*%
X83732081Y-54350000D03*
%TO.P,J204,29,Pin_29*%
%TO.N,/DIG_IN1*%
X81192081Y-51810000D03*
%TO.P,J204,30,Pin_30*%
%TO.N,/DIG_IN2*%
X81192081Y-54350000D03*
%TO.P,J204,31,Pin_31*%
%TO.N,/DIG_IN3*%
X78652082Y-51810000D03*
%TO.P,J204,32,Pin_32*%
%TO.N,/DIG_IN4*%
X78652081Y-54350000D03*
%TD*%
D15*
%TO.P,H101,1,1*%
%TO.N,GND*%
X55000000Y-55000000D03*
D16*
X55000000Y-55000000D03*
%TD*%
D14*
%TO.P,TP201,1,1*%
%TO.N,/ANA1_MCU-PA0*%
X112910000Y-80140000D03*
%TD*%
D10*
%TO.P,J211,1,Pin_1*%
%TO.N,VCC_{F}*%
X122370000Y-64140000D03*
D11*
%TO.P,J211,2,Pin_2*%
%TO.N,V_{OA}*%
X124910000Y-64140000D03*
%TO.P,J211,3,Pin_3*%
%TO.N,+3V3*%
X127449999Y-64140000D03*
%TD*%
D15*
%TO.P,H103,1,1*%
%TO.N,unconnected-(H103-Pad1)_2*%
X55000000Y-95000000D03*
D16*
%TO.N,unconnected-(H103-Pad1)*%
X55000000Y-95000000D03*
%TD*%
D14*
%TO.P,TP202,1,1*%
%TO.N,GND*%
X119950000Y-90200000D03*
%TD*%
D15*
%TO.P,H102,1,1*%
%TO.N,unconnected-(H102-Pad1)_1*%
X125000000Y-55000000D03*
D16*
%TO.N,unconnected-(H102-Pad1)_2*%
X125000000Y-55000000D03*
%TD*%
D15*
%TO.P,H104,1,1*%
%TO.N,unconnected-(H104-Pad1)_1*%
X125000000Y-95000000D03*
D16*
%TO.N,unconnected-(H104-Pad1)*%
X125000000Y-95000000D03*
%TD*%
D10*
%TO.P,J205,1,Pin_1*%
%TO.N,GND*%
X51725000Y-62920000D03*
D11*
%TO.P,J205,2,Pin_2*%
%TO.N,VCC*%
X54265000Y-62920000D03*
%TO.P,J205,3,Pin_3*%
%TO.N,GND*%
X51725000Y-65460000D03*
%TO.P,J205,4,Pin_4*%
%TO.N,VCC*%
X54265000Y-65460000D03*
%TO.P,J205,5,Pin_5*%
%TO.N,GND*%
X51725000Y-68000000D03*
%TO.P,J205,6,Pin_6*%
%TO.N,VCC*%
X54265000Y-68000000D03*
%TD*%
D17*
%TO.P,J301,S1,SHIELD*%
%TO.N,unconnected-(J301-SHIELD-PadS1)_1*%
X57230000Y-77930000D03*
D18*
%TO.N,unconnected-(J301-SHIELD-PadS1)_3*%
X53050000Y-77930000D03*
D17*
%TO.N,unconnected-(J301-SHIELD-PadS1)*%
X57230000Y-86570000D03*
D18*
%TO.N,unconnected-(J301-SHIELD-PadS1)_2*%
X53050000Y-86570000D03*
%TD*%
D12*
%TO.P,RV202,1,1*%
%TO.N,Net-(U201B--)*%
X125450000Y-77680000D03*
D13*
%TO.P,RV202,2,2*%
%TO.N,/ANA2_MCU-PA1*%
X122910000Y-75140000D03*
%TO.P,RV202,3,3*%
%TO.N,GND*%
X125450000Y-72600000D03*
%TD*%
D19*
%TO.N,+5V*%
X67000000Y-72700000D03*
D20*
X93250000Y-71625000D03*
D19*
X79887500Y-70312500D03*
D20*
X73850000Y-80850000D03*
D19*
X67000000Y-64100000D03*
D20*
X80800000Y-86650000D03*
%TO.N,GND*%
X77500000Y-71322182D03*
D21*
X61250000Y-54300000D03*
D20*
X120550000Y-87250000D03*
X118250000Y-76300000D03*
X68250000Y-96475000D03*
X97418199Y-78750000D03*
D21*
X60500000Y-54300000D03*
D20*
X62450000Y-96400000D03*
X67575000Y-84925000D03*
X89707501Y-60362501D03*
X64950000Y-65050000D03*
X76300000Y-78800000D03*
X64975000Y-58900000D03*
X77500000Y-65822183D03*
X113416667Y-93100001D03*
X119400000Y-87250000D03*
X110032081Y-60390000D03*
X97768200Y-74800004D03*
X114687500Y-70787500D03*
X65850001Y-58900000D03*
X107316667Y-96900000D03*
D19*
X59575000Y-86925000D03*
D20*
X115950000Y-76300000D03*
X115500000Y-62450000D03*
X82550001Y-95799999D03*
X83618200Y-71250001D03*
X57950000Y-65575000D03*
X77500000Y-70222182D03*
X116049999Y-82550000D03*
X121600000Y-87250000D03*
X60337500Y-82837500D03*
X104932081Y-60390002D03*
X107216668Y-90700002D03*
X68400000Y-78700000D03*
X117250000Y-83700000D03*
X80318200Y-83000001D03*
X71425000Y-96475000D03*
X113387500Y-71762500D03*
X102600000Y-82500000D03*
X101220000Y-62790002D03*
X97800000Y-71500000D03*
X58925000Y-70350000D03*
X94777919Y-60390000D03*
X71050001Y-59000000D03*
X77500000Y-59222184D03*
X92100000Y-92700000D03*
X111394580Y-62790000D03*
X96140418Y-62790000D03*
D19*
X59575000Y-78350000D03*
D20*
X90600000Y-81350000D03*
X99857501Y-60390002D03*
X85755853Y-72962348D03*
X106600000Y-80750000D03*
X72500000Y-65800000D03*
X101116667Y-90700002D03*
X95112501Y-72575002D03*
X107316666Y-93100001D03*
X77500000Y-77924999D03*
X77500000Y-74625000D03*
X85850001Y-93050000D03*
X94250000Y-87450000D03*
X95072695Y-83355042D03*
X77500000Y-76824999D03*
X85400000Y-65750000D03*
X77500000Y-64722182D03*
X98500000Y-86000000D03*
X72400000Y-78400000D03*
X91070000Y-62762501D03*
X96550000Y-76250000D03*
X63125000Y-80575000D03*
X100525000Y-64650000D03*
X77500000Y-68022182D03*
X91650000Y-90600000D03*
X58000000Y-69425000D03*
X94239880Y-70164574D03*
X71050001Y-60100000D03*
X68500001Y-67950000D03*
X108316666Y-91600000D03*
X77500000Y-58122184D03*
X90952443Y-84509550D03*
X92618200Y-82950002D03*
X87450001Y-97099999D03*
X104750000Y-86000000D03*
X82850000Y-92150000D03*
X58025000Y-70350000D03*
X57975000Y-67525000D03*
X85970000Y-62750000D03*
X76599999Y-68049999D03*
X57975000Y-66500000D03*
X80050001Y-92399999D03*
X100200000Y-83700000D03*
X96850000Y-64650000D03*
X120550000Y-83900000D03*
X77500000Y-60322183D03*
X95112500Y-70525002D03*
X94268200Y-86300001D03*
X86100000Y-76050000D03*
X79468200Y-84300002D03*
X82184048Y-81408850D03*
X93050000Y-87400000D03*
X108850000Y-82500000D03*
D21*
X59700000Y-54300000D03*
D20*
X123225000Y-73375000D03*
X96800000Y-71500000D03*
X72500001Y-66650001D03*
X72800000Y-96500000D03*
X102116666Y-91600000D03*
X84250000Y-97100000D03*
X98700000Y-71500000D03*
X77500000Y-75724999D03*
X94250000Y-89350000D03*
X94100000Y-67600000D03*
X76550001Y-93100001D03*
X114716666Y-93100002D03*
X87450001Y-95900000D03*
X72500001Y-67500000D03*
X113416666Y-90900001D03*
X72400000Y-77500000D03*
X82550000Y-98399999D03*
X63450000Y-85175000D03*
X85700000Y-81000000D03*
D21*
X61700000Y-73750000D03*
D20*
X113416666Y-96900000D03*
X96800000Y-70500000D03*
X91000000Y-92700000D03*
X82550001Y-97100000D03*
X84950000Y-92024999D03*
X93118200Y-86300001D03*
X121925000Y-79050000D03*
X91050000Y-78000000D03*
X99800000Y-91650000D03*
X117250000Y-82500000D03*
X106450000Y-83700000D03*
X84607501Y-60350000D03*
X116050000Y-83700000D03*
D21*
X59700000Y-55000000D03*
D20*
X106294580Y-62790002D03*
X101116666Y-93100001D03*
X72400000Y-76500000D03*
X57975000Y-68450000D03*
X72500000Y-68699999D03*
X112053750Y-68912500D03*
X77500000Y-63622183D03*
D21*
X61250000Y-55000000D03*
X60600000Y-72750000D03*
D20*
X88075000Y-65325000D03*
X116037500Y-71787500D03*
X77500000Y-69122183D03*
X117050000Y-76300000D03*
X77500000Y-66922183D03*
X72400000Y-79550000D03*
X84250002Y-98400000D03*
%TO.N,+3V3*%
X83350000Y-84300000D03*
X99450000Y-74663600D03*
X83600000Y-74000000D03*
X105816666Y-89600000D03*
X95200000Y-84450000D03*
D19*
X77497183Y-61800000D03*
D20*
X111916666Y-89600000D03*
%TO.N,VCC_{F}*%
X107332081Y-60340002D03*
D19*
X72000000Y-75000000D03*
D20*
X99750000Y-88200000D03*
X102257501Y-60340002D03*
X106150000Y-96850000D03*
X112432081Y-60340000D03*
X92107501Y-60312501D03*
X120106434Y-69897312D03*
X87000000Y-64200000D03*
X97177919Y-60340000D03*
X69600000Y-80500000D03*
X118575000Y-56675000D03*
X87007501Y-60300000D03*
D21*
X80150000Y-87705331D03*
D20*
X91500000Y-96000000D03*
D21*
X82775000Y-89975000D03*
D20*
%TO.N,V_{OA}*%
X119650000Y-76300000D03*
%TO.N,/BOOT0*%
X97550000Y-90700000D03*
X88550000Y-91250000D03*
%TO.N,VBUS_{USB1}*%
X64975000Y-88225000D03*
X65250000Y-82850000D03*
%TO.N,Net-(F301-Pad1)*%
X59750764Y-85242467D03*
X59775000Y-79800000D03*
D21*
%TO.N,/SWCLK-PA14*%
X78775000Y-87875000D03*
D20*
%TO.N,/USR_LED2_MCU-PC14*%
X102450000Y-81250000D03*
X104850000Y-83000000D03*
%TO.N,/HMI/MOS3_CTRL*%
X95150000Y-68200000D03*
X98200000Y-62350000D03*
%TO.N,/HMI/MOS4_CTRL*%
X93020000Y-62350000D03*
X94300000Y-64850000D03*
%TO.N,/HMI/MOS5_CTRL*%
X95325000Y-65675000D03*
X87970000Y-62300000D03*
%TO.N,/HMI/MOS6_CTRL*%
X96500000Y-65850000D03*
X82470000Y-61350000D03*
%TO.N,Net-(U201A--)*%
X117400000Y-87450000D03*
%TO.N,Net-(U201B--)*%
X119550000Y-78300000D03*
%TO.N,/CAN_RX_MCU-PB9*%
X87450002Y-94600000D03*
X89800000Y-94600000D03*
%TO.N,/STATUS_LED1_MCU-PB7*%
X88393200Y-87300000D03*
X91200000Y-87300000D03*
%TO.N,/STATUS_LED2_MCU-PC15*%
X100700000Y-81200000D03*
X112050000Y-72125000D03*
%TD*%
D22*
%TO.N,+5V*%
X67000000Y-72700000D02*
X67000000Y-64100000D01*
D23*
X64700000Y-75000000D02*
X67000000Y-72700000D01*
X79887500Y-70312500D02*
X84537500Y-70312500D01*
D22*
X68492081Y-62607919D02*
X68492081Y-54350000D01*
D23*
X80800000Y-86650000D02*
X80050000Y-85900000D01*
X84537500Y-70312500D02*
X85850000Y-71625000D01*
X76300000Y-85900000D02*
X73850000Y-83450000D01*
X54315000Y-75000000D02*
X64700000Y-75000000D01*
X80050000Y-85900000D02*
X76300000Y-85900000D01*
X73850000Y-83450000D02*
X73850000Y-80850000D01*
D22*
X67000000Y-64100000D02*
X68492081Y-62607919D01*
D23*
X85850000Y-71625000D02*
X93250000Y-71625000D01*
%TO.N,+3V3*%
X81900000Y-88850000D02*
X80615000Y-90135000D01*
X98736404Y-73950004D02*
X83649996Y-73950004D01*
X78600000Y-71275000D02*
X78600000Y-62902817D01*
X83649996Y-73950004D02*
X83600000Y-74000000D01*
X99450000Y-74663600D02*
X98736404Y-73950004D01*
X83600000Y-81850000D02*
X84700000Y-82950000D01*
X78600000Y-62902817D02*
X77497183Y-61800000D01*
X120350000Y-62050000D02*
X126900000Y-62050000D01*
D24*
X105500000Y-84450000D02*
X95200000Y-84450000D01*
D23*
X83350000Y-84300000D02*
X81900000Y-85750000D01*
X92900000Y-84450000D02*
X95200000Y-84450000D01*
X99450000Y-74663600D02*
X99450000Y-80200000D01*
D24*
X111916666Y-89600000D02*
X105816666Y-89600000D01*
D23*
X99450000Y-80200000D02*
X95200000Y-84450000D01*
X126900000Y-62050000D02*
X127449999Y-62599999D01*
X91400000Y-82950000D02*
X92900000Y-84450000D01*
X83600000Y-74000000D02*
X81325000Y-74000000D01*
X83350000Y-84300000D02*
X84700000Y-82950000D01*
X81325000Y-74000000D02*
X78600000Y-71275000D01*
X83600000Y-74000000D02*
X83600000Y-81850000D01*
D24*
X105816666Y-84766666D02*
X105500000Y-84450000D01*
D23*
X127449999Y-62599999D02*
X127449999Y-64140000D01*
X84700000Y-82950000D02*
X91400000Y-82950000D01*
X81900000Y-85750000D02*
X81900000Y-88850000D01*
X99450000Y-74663600D02*
X107963600Y-66150000D01*
D24*
X105816666Y-89600000D02*
X105816666Y-84766666D01*
D23*
X80615000Y-90135000D02*
X77960002Y-90135000D01*
X107963600Y-66150000D02*
X116250000Y-66150000D01*
X116250000Y-66150000D02*
X120350000Y-62050000D01*
%TO.N,VCC_{F}*%
X92107501Y-60312501D02*
X92107501Y-57980420D01*
D24*
X120585000Y-64140000D02*
X122370000Y-64140000D01*
D23*
X84100000Y-91300000D02*
X84100000Y-95400000D01*
X82775000Y-89975000D02*
X84100000Y-91300000D01*
D22*
X86272081Y-55777079D02*
X87007501Y-56512499D01*
D23*
X87007501Y-60300000D02*
X87007501Y-56512499D01*
D22*
X74400000Y-72500000D02*
X74400000Y-57600000D01*
X101512081Y-51810000D02*
X101512081Y-55537503D01*
D24*
X110604794Y-56675000D02*
X110576978Y-56647184D01*
D23*
X86649999Y-97949999D02*
X89550001Y-97949999D01*
D24*
X101250000Y-88200000D02*
X103825000Y-90775000D01*
D22*
X91352081Y-55520002D02*
X90499582Y-56372501D01*
X72000000Y-75000000D02*
X72000000Y-74900000D01*
X96432081Y-55537919D02*
X95570000Y-56400000D01*
D23*
X89550001Y-97949999D02*
X91500000Y-96000000D01*
D24*
X98675000Y-96850000D02*
X92350000Y-96850000D01*
D22*
X111672082Y-55552080D02*
X111672082Y-51810000D01*
D24*
X92350000Y-96850000D02*
X91500000Y-96000000D01*
D23*
X76000000Y-86900000D02*
X69600000Y-80500000D01*
D24*
X120106434Y-69897312D02*
X120106434Y-64618566D01*
X87007501Y-60300000D02*
X87007501Y-64192499D01*
D23*
X102257501Y-60340002D02*
X102257501Y-58007921D01*
D22*
X101512081Y-55537503D02*
X100649582Y-56400002D01*
D23*
X107332081Y-60340002D02*
X107332081Y-58007921D01*
D22*
X86272081Y-51810000D02*
X86272081Y-55777079D01*
D24*
X99750000Y-88200000D02*
X101250000Y-88200000D01*
X103825000Y-90775000D02*
X103825000Y-96850000D01*
X103825000Y-96850000D02*
X98675000Y-96850000D01*
D22*
X106592081Y-55532083D02*
X105724162Y-56400002D01*
X74400000Y-57600000D02*
X75352816Y-56647184D01*
D23*
X84100000Y-95400000D02*
X86649999Y-97949999D01*
X80150000Y-87705331D02*
X79344669Y-86900000D01*
X107332081Y-58007921D02*
X105724162Y-56400002D01*
D24*
X87007501Y-64192499D02*
X87000000Y-64200000D01*
D23*
X112432081Y-60340000D02*
X112432081Y-58007919D01*
D24*
X120106434Y-64618566D02*
X120585000Y-64140000D01*
D23*
X97177919Y-60340000D02*
X97177919Y-58007919D01*
D22*
X110576978Y-56647184D02*
X111672082Y-55552080D01*
D23*
X112432081Y-58007919D02*
X110824162Y-56400000D01*
X97177919Y-58007919D02*
X95570000Y-56400000D01*
D22*
X106592081Y-51810000D02*
X106592081Y-55532083D01*
D23*
X92107501Y-57980420D02*
X90499582Y-56372501D01*
X102257501Y-58007921D02*
X100649582Y-56400002D01*
D22*
X96432081Y-51810000D02*
X96432081Y-55537919D01*
D24*
X118575000Y-56675000D02*
X110604794Y-56675000D01*
X106150000Y-96850000D02*
X103825000Y-96850000D01*
D22*
X72000000Y-74900000D02*
X74400000Y-72500000D01*
D23*
X79344669Y-86900000D02*
X76000000Y-86900000D01*
D22*
X91352081Y-51810000D02*
X91352081Y-55520002D01*
X75352816Y-56647184D02*
X110576978Y-56647184D01*
D25*
%TO.N,VCC*%
X54265000Y-68000000D02*
X54265000Y-62920000D01*
D24*
%TO.N,V_{OA}*%
X119650000Y-76300000D02*
X126275000Y-76300000D01*
X127449999Y-75125001D02*
X127449999Y-69220000D01*
X126275000Y-76300000D02*
X127449999Y-75125001D01*
%TO.N,/BOOT0*%
X97550000Y-91300000D02*
X97550000Y-90700000D01*
X89000000Y-91700000D02*
X97150000Y-91700000D01*
X97150000Y-91700000D02*
X97550000Y-91300000D01*
X88550000Y-91250000D02*
X89000000Y-91700000D01*
D23*
%TO.N,VBUS_{USB1}*%
X64975000Y-83125000D02*
X65250000Y-82850000D01*
X64975000Y-88225000D02*
X64975000Y-83125000D01*
%TO.N,Net-(F301-Pad1)*%
X59487500Y-84979203D02*
X59750764Y-85242467D01*
X59487500Y-80087500D02*
X59487500Y-84979203D01*
X59775000Y-79800000D02*
X59487500Y-80087500D01*
D24*
%TO.N,/SWCLK-PA14*%
X78775000Y-87875000D02*
X75140003Y-87875000D01*
X75140003Y-87875000D02*
X72880003Y-90135000D01*
%TO.N,/USR_LED2_MCU-PC14*%
X102450000Y-81250000D02*
X103100000Y-81250000D01*
X103100000Y-81250000D02*
X104850000Y-83000000D01*
%TO.N,/HMI/MOS3_CTRL*%
X95175305Y-68200000D02*
X95150000Y-68200000D01*
X98200000Y-62350000D02*
X98200000Y-65175305D01*
X98200000Y-65175305D02*
X95175305Y-68200000D01*
%TO.N,/HMI/MOS4_CTRL*%
X94300000Y-64850000D02*
X93020000Y-63570000D01*
X93020000Y-63570000D02*
X93020000Y-62350000D01*
%TO.N,/HMI/MOS5_CTRL*%
X89945000Y-65675000D02*
X87970000Y-63700000D01*
X87970000Y-63700000D02*
X87970000Y-62300000D01*
X95325000Y-65675000D02*
X89945000Y-65675000D01*
%TO.N,/HMI/MOS6_CTRL*%
X96500000Y-65850000D02*
X95950000Y-66400000D01*
X87520000Y-66400000D02*
X82470000Y-61350000D01*
X95950000Y-66400000D02*
X87520000Y-66400000D01*
%TO.N,/ANA1_MCU-PA0*%
X119910000Y-83140000D02*
X116910000Y-80140000D01*
X122910000Y-83140000D02*
X119910000Y-83140000D01*
X116910000Y-80140000D02*
X112910000Y-80140000D01*
D23*
%TO.N,Net-(U201A--)*%
X119170000Y-85680000D02*
X125450000Y-85680000D01*
X117400000Y-87450000D02*
X119170000Y-85680000D01*
%TO.N,Net-(U201B--)*%
X125450000Y-77680000D02*
X120170000Y-77680000D01*
X120170000Y-77680000D02*
X119550000Y-78300000D01*
D24*
%TO.N,/ANA2_MCU-PA1*%
X122910000Y-75140000D02*
X113910000Y-75140000D01*
X113910000Y-75140000D02*
X112910000Y-76140000D01*
%TO.N,/CAN_RX_MCU-PB9*%
X89800000Y-94600000D02*
X87450002Y-94600000D01*
%TO.N,/STATUS_LED1_MCU-PB7*%
X91200000Y-87300000D02*
X88393200Y-87300000D01*
%TO.N,/STATUS_LED2_MCU-PC15*%
X109775000Y-72125000D02*
X100700000Y-81200000D01*
X112050000Y-72125000D02*
X109775000Y-72125000D01*
%TD*%
%TA.AperFunction,Conductor*%
%TO.N,GND*%
G36*
X99714794Y-81099084D02*
G01*
X99770728Y-81140956D01*
X99794782Y-81202304D01*
X99814326Y-81388256D01*
X99814327Y-81388259D01*
X99872818Y-81568277D01*
X99872821Y-81568284D01*
X99967467Y-81732216D01*
X100094129Y-81872888D01*
X100247265Y-81984148D01*
X100247270Y-81984151D01*
X100420192Y-82061142D01*
X100420197Y-82061144D01*
X100605354Y-82100500D01*
X100605355Y-82100500D01*
X100794644Y-82100500D01*
X100794646Y-82100500D01*
X100979803Y-82061144D01*
X101152730Y-81984151D01*
X101305871Y-81872888D01*
X101432533Y-81732216D01*
X101453180Y-81696455D01*
X101503744Y-81648240D01*
X101572351Y-81635016D01*
X101637216Y-81660983D01*
X101667952Y-81696454D01*
X101717467Y-81782216D01*
X101799109Y-81872888D01*
X101844129Y-81922888D01*
X101997265Y-82034148D01*
X101997270Y-82034151D01*
X102170192Y-82111142D01*
X102170197Y-82111144D01*
X102355354Y-82150500D01*
X102355355Y-82150500D01*
X102544644Y-82150500D01*
X102544646Y-82150500D01*
X102729803Y-82111144D01*
X102891875Y-82038983D01*
X102961125Y-82029699D01*
X103024401Y-82059327D01*
X103029992Y-82064582D01*
X103911038Y-82945628D01*
X103944523Y-83006951D01*
X103946678Y-83020347D01*
X103948561Y-83038259D01*
X103964326Y-83188256D01*
X103964327Y-83188259D01*
X104022818Y-83368277D01*
X104022821Y-83368284D01*
X104117464Y-83532212D01*
X104117465Y-83532214D01*
X104117467Y-83532216D01*
X104194284Y-83617530D01*
X104224513Y-83680519D01*
X104215888Y-83749854D01*
X104171147Y-83803520D01*
X104104494Y-83824478D01*
X104102133Y-83824500D01*
X97186230Y-83824500D01*
X97119191Y-83804815D01*
X97073436Y-83752011D01*
X97063492Y-83682853D01*
X97092517Y-83619297D01*
X97098549Y-83612819D01*
X97493091Y-83218277D01*
X99583782Y-81127583D01*
X99645103Y-81094100D01*
X99714794Y-81099084D01*
G37*
%TD.AperFunction*%
%TA.AperFunction,Conductor*%
G36*
X98441213Y-74720189D02*
G01*
X98461855Y-74736823D01*
X98537228Y-74812196D01*
X98567478Y-74861558D01*
X98622819Y-75031880D01*
X98622821Y-75031884D01*
X98682887Y-75135921D01*
X98699500Y-75197921D01*
X98699500Y-79837769D01*
X98679815Y-79904808D01*
X98663181Y-79925450D01*
X95047228Y-83541402D01*
X94985905Y-83574887D01*
X94985329Y-83575011D01*
X94920196Y-83588856D01*
X94920192Y-83588857D01*
X94747270Y-83665848D01*
X94747265Y-83665851D01*
X94733548Y-83675818D01*
X94667742Y-83699298D01*
X94660663Y-83699500D01*
X93262229Y-83699500D01*
X93195190Y-83679815D01*
X93174548Y-83663181D01*
X91878421Y-82367052D01*
X91878414Y-82367046D01*
X91801197Y-82315452D01*
X91801197Y-82315453D01*
X91755491Y-82284913D01*
X91618917Y-82228343D01*
X91618907Y-82228340D01*
X91473920Y-82199500D01*
X91473918Y-82199500D01*
X85062230Y-82199500D01*
X84995191Y-82179815D01*
X84974549Y-82163181D01*
X84386819Y-81575451D01*
X84353334Y-81514128D01*
X84350500Y-81487770D01*
X84350500Y-74824504D01*
X84370185Y-74757465D01*
X84422989Y-74711710D01*
X84474500Y-74700504D01*
X98374174Y-74700504D01*
X98441213Y-74720189D01*
G37*
%TD.AperFunction*%
%TA.AperFunction,Conductor*%
G36*
X72761478Y-50520185D02*
G01*
X72807233Y-50572989D01*
X72817177Y-50642147D01*
X72788152Y-50705703D01*
X72765562Y-50726075D01*
X72700678Y-50771506D01*
X72533587Y-50938597D01*
X72398047Y-51132169D01*
X72398046Y-51132171D01*
X72298180Y-51346335D01*
X72298176Y-51346344D01*
X72237020Y-51574586D01*
X72237018Y-51574596D01*
X72216423Y-51809999D01*
X72216423Y-51810000D01*
X72237018Y-52045403D01*
X72237020Y-52045413D01*
X72298176Y-52273655D01*
X72298178Y-52273659D01*
X72298179Y-52273663D01*
X72342891Y-52369547D01*
X72398047Y-52487830D01*
X72398049Y-52487834D01*
X72407582Y-52501448D01*
X72533586Y-52681400D01*
X72533588Y-52681402D01*
X72700679Y-52848493D01*
X72700685Y-52848498D01*
X72886240Y-52978425D01*
X72929865Y-53033002D01*
X72937059Y-53102500D01*
X72905536Y-53164855D01*
X72886240Y-53181575D01*
X72700679Y-53311505D01*
X72533587Y-53478597D01*
X72398047Y-53672169D01*
X72398046Y-53672171D01*
X72298180Y-53886335D01*
X72298176Y-53886344D01*
X72237020Y-54114586D01*
X72237018Y-54114596D01*
X72216423Y-54349999D01*
X72216423Y-54350000D01*
X72237018Y-54585403D01*
X72237020Y-54585413D01*
X72298176Y-54813655D01*
X72298178Y-54813659D01*
X72298179Y-54813663D01*
X72390300Y-55011217D01*
X72398047Y-55027830D01*
X72398049Y-55027834D01*
X72407582Y-55041448D01*
X72533587Y-55221401D01*
X72700681Y-55388495D01*
X72779702Y-55443826D01*
X72894247Y-55524032D01*
X72894249Y-55524033D01*
X72894252Y-55524035D01*
X73108419Y-55623903D01*
X73336674Y-55685063D01*
X73513116Y-55700500D01*
X73572081Y-55705659D01*
X73572082Y-55705659D01*
X73572083Y-55705659D01*
X73631048Y-55700500D01*
X73807490Y-55685063D01*
X74035745Y-55623903D01*
X74138717Y-55575886D01*
X74207788Y-55565395D01*
X74271573Y-55593914D01*
X74309813Y-55652390D01*
X74310368Y-55722257D01*
X74278798Y-55775950D01*
X73350825Y-56703923D01*
X73350821Y-56703928D01*
X73227471Y-56873705D01*
X73227472Y-56873706D01*
X73223566Y-56879082D01*
X73125273Y-57071990D01*
X73125272Y-57071993D01*
X73058370Y-57277901D01*
X73024500Y-57491746D01*
X73024500Y-71878887D01*
X73004815Y-71945926D01*
X72988181Y-71966568D01*
X70950829Y-74003919D01*
X70950824Y-74003925D01*
X70879476Y-74102128D01*
X70871310Y-74113368D01*
X70847438Y-74146224D01*
X70823567Y-74179080D01*
X70725273Y-74371990D01*
X70725272Y-74371993D01*
X70658370Y-74577901D01*
X70624500Y-74791746D01*
X70624500Y-75108253D01*
X70658370Y-75322098D01*
X70725272Y-75528006D01*
X70725273Y-75528009D01*
X70795118Y-75665085D01*
X70823567Y-75720919D01*
X70950828Y-75896078D01*
X71103922Y-76049172D01*
X71279081Y-76176433D01*
X71373697Y-76224642D01*
X71471990Y-76274726D01*
X71471993Y-76274727D01*
X71530683Y-76293796D01*
X71677903Y-76341630D01*
X71891746Y-76375500D01*
X71891747Y-76375500D01*
X72108253Y-76375500D01*
X72108254Y-76375500D01*
X72322097Y-76341630D01*
X72528009Y-76274726D01*
X72720919Y-76176433D01*
X72896078Y-76049172D01*
X73049172Y-75896078D01*
X73176433Y-75720919D01*
X73221643Y-75632188D01*
X73244443Y-75600806D01*
X75449173Y-73396078D01*
X75532185Y-73281821D01*
X75576433Y-73220919D01*
X75674726Y-73028009D01*
X75688381Y-72985982D01*
X75713345Y-72909152D01*
X75720416Y-72887387D01*
X75741631Y-72822097D01*
X75772676Y-72626083D01*
X75775500Y-72608254D01*
X75775500Y-58221112D01*
X75795185Y-58154073D01*
X75811819Y-58133431D01*
X75886247Y-58059003D01*
X75947570Y-58025518D01*
X75973928Y-58022684D01*
X86133001Y-58022684D01*
X86200040Y-58042369D01*
X86245795Y-58095173D01*
X86257001Y-58146684D01*
X86257001Y-59765677D01*
X86240388Y-59827677D01*
X86180322Y-59931714D01*
X86167325Y-59971716D01*
X86121827Y-60111744D01*
X86102041Y-60300000D01*
X86121827Y-60488256D01*
X86121828Y-60488259D01*
X86180319Y-60668277D01*
X86180322Y-60668284D01*
X86274968Y-60832216D01*
X86310983Y-60872214D01*
X86350151Y-60915715D01*
X86380381Y-60978706D01*
X86382001Y-60998687D01*
X86382001Y-63492982D01*
X86362316Y-63560021D01*
X86350151Y-63575954D01*
X86267466Y-63667785D01*
X86172821Y-63831715D01*
X86172819Y-63831719D01*
X86152824Y-63893259D01*
X86113386Y-63950934D01*
X86049027Y-63978132D01*
X85980181Y-63966217D01*
X85947212Y-63942621D01*
X83408960Y-61404370D01*
X83375475Y-61343047D01*
X83373323Y-61329671D01*
X83355674Y-61161744D01*
X83297179Y-60981716D01*
X83202533Y-60817784D01*
X83075871Y-60677112D01*
X83075870Y-60677111D01*
X82922734Y-60565851D01*
X82922729Y-60565848D01*
X82749807Y-60488857D01*
X82749802Y-60488855D01*
X82604001Y-60457865D01*
X82564646Y-60449500D01*
X82375354Y-60449500D01*
X82342897Y-60456398D01*
X82190197Y-60488855D01*
X82190192Y-60488857D01*
X82017270Y-60565848D01*
X82017265Y-60565851D01*
X81864129Y-60677111D01*
X81737466Y-60817785D01*
X81642821Y-60981715D01*
X81642818Y-60981722D01*
X81596540Y-61124153D01*
X81584326Y-61161744D01*
X81564540Y-61350000D01*
X81584326Y-61538256D01*
X81584327Y-61538259D01*
X81642818Y-61718277D01*
X81642821Y-61718284D01*
X81737467Y-61882216D01*
X81864129Y-62022888D01*
X82017265Y-62134148D01*
X82017270Y-62134151D01*
X82190192Y-62211142D01*
X82190197Y-62211144D01*
X82375354Y-62250500D01*
X82434548Y-62250500D01*
X82501587Y-62270185D01*
X82522228Y-62286818D01*
X87034141Y-66798732D01*
X87034142Y-66798733D01*
X87121267Y-66885858D01*
X87165492Y-66915408D01*
X87223714Y-66954311D01*
X87337548Y-67001463D01*
X87458388Y-67025499D01*
X87458392Y-67025500D01*
X87458393Y-67025500D01*
X87458394Y-67025500D01*
X95165853Y-67025500D01*
X95232892Y-67045185D01*
X95278647Y-67097989D01*
X95288591Y-67167147D01*
X95259566Y-67230703D01*
X95253534Y-67237181D01*
X95227534Y-67263181D01*
X95166211Y-67296666D01*
X95139853Y-67299500D01*
X95055354Y-67299500D01*
X95022897Y-67306398D01*
X94870197Y-67338855D01*
X94870192Y-67338857D01*
X94697270Y-67415848D01*
X94697265Y-67415851D01*
X94544129Y-67527111D01*
X94417466Y-67667785D01*
X94322821Y-67831715D01*
X94322818Y-67831722D01*
X94281513Y-67958848D01*
X94264326Y-68011744D01*
X94244540Y-68200000D01*
X94264326Y-68388256D01*
X94264327Y-68388259D01*
X94322818Y-68568277D01*
X94322821Y-68568284D01*
X94417467Y-68732216D01*
X94544129Y-68872888D01*
X94697265Y-68984148D01*
X94697270Y-68984151D01*
X94870192Y-69061142D01*
X94870197Y-69061144D01*
X95055354Y-69100500D01*
X95055355Y-69100500D01*
X95244644Y-69100500D01*
X95244646Y-69100500D01*
X95429803Y-69061144D01*
X95602730Y-68984151D01*
X95755871Y-68872888D01*
X95882533Y-68732216D01*
X95977179Y-68568284D01*
X96035674Y-68388256D01*
X96050349Y-68248623D01*
X96076933Y-68184010D01*
X96085980Y-68173914D01*
X98685858Y-65574038D01*
X98754312Y-65471590D01*
X98789680Y-65386204D01*
X98801463Y-65357757D01*
X98805852Y-65335689D01*
X98807083Y-65329503D01*
X98807083Y-65329501D01*
X98825501Y-65236911D01*
X98825501Y-65113698D01*
X98825501Y-65108588D01*
X98825500Y-65108562D01*
X98825500Y-63048687D01*
X98845185Y-62981648D01*
X98857350Y-62965715D01*
X98887298Y-62932454D01*
X98932533Y-62882216D01*
X99027179Y-62718284D01*
X99085674Y-62538256D01*
X99105460Y-62350000D01*
X99085674Y-62161744D01*
X99027179Y-61981716D01*
X98932533Y-61817784D01*
X98805871Y-61677112D01*
X98805870Y-61677111D01*
X98652734Y-61565851D01*
X98652729Y-61565848D01*
X98479807Y-61488857D01*
X98479802Y-61488855D01*
X98327329Y-61456447D01*
X98294646Y-61449500D01*
X98105354Y-61449500D01*
X98072897Y-61456398D01*
X97920197Y-61488855D01*
X97920192Y-61488857D01*
X97747270Y-61565848D01*
X97747265Y-61565851D01*
X97594129Y-61677111D01*
X97467466Y-61817785D01*
X97372821Y-61981715D01*
X97372818Y-61981722D01*
X97314327Y-62161740D01*
X97314326Y-62161744D01*
X97294540Y-62350000D01*
X97314326Y-62538256D01*
X97314327Y-62538259D01*
X97372818Y-62718277D01*
X97372821Y-62718284D01*
X97467467Y-62882216D01*
X97485281Y-62902000D01*
X97542650Y-62965715D01*
X97572880Y-63028706D01*
X97574500Y-63048687D01*
X97574500Y-64864851D01*
X97554815Y-64931890D01*
X97538181Y-64952532D01*
X97296689Y-65194023D01*
X97235366Y-65227508D01*
X97165674Y-65222524D01*
X97116859Y-65189315D01*
X97105871Y-65177112D01*
X97105864Y-65177106D01*
X96952734Y-65065851D01*
X96952729Y-65065848D01*
X96779807Y-64988857D01*
X96779802Y-64988855D01*
X96634001Y-64957865D01*
X96594646Y-64949500D01*
X96405354Y-64949500D01*
X96372897Y-64956398D01*
X96220197Y-64988855D01*
X96220196Y-64988855D01*
X96087448Y-65047959D01*
X96018198Y-65057243D01*
X95954922Y-65027614D01*
X95944865Y-65017653D01*
X95930872Y-65002113D01*
X95930870Y-65002111D01*
X95777734Y-64890851D01*
X95777729Y-64890848D01*
X95604807Y-64813857D01*
X95604802Y-64813855D01*
X95451755Y-64781325D01*
X95419646Y-64774500D01*
X95309175Y-64774500D01*
X95242136Y-64754815D01*
X95196381Y-64702011D01*
X95187114Y-64668077D01*
X95187024Y-64668097D01*
X95186687Y-64666513D01*
X95185855Y-64663465D01*
X95185674Y-64661745D01*
X95185673Y-64661742D01*
X95183181Y-64654073D01*
X95127179Y-64481716D01*
X95032533Y-64317784D01*
X94905871Y-64177112D01*
X94854791Y-64140000D01*
X94752734Y-64065851D01*
X94752729Y-64065848D01*
X94579807Y-63988857D01*
X94579802Y-63988855D01*
X94401392Y-63950934D01*
X94394646Y-63949500D01*
X94394645Y-63949500D01*
X94335453Y-63949500D01*
X94268414Y-63929815D01*
X94247772Y-63913181D01*
X93681819Y-63347228D01*
X93648334Y-63285905D01*
X93645500Y-63259547D01*
X93645500Y-63048687D01*
X93665185Y-62981648D01*
X93677350Y-62965715D01*
X93707298Y-62932454D01*
X93752533Y-62882216D01*
X93847179Y-62718284D01*
X93905674Y-62538256D01*
X93925460Y-62350000D01*
X93905674Y-62161744D01*
X93847179Y-61981716D01*
X93752533Y-61817784D01*
X93625871Y-61677112D01*
X93625870Y-61677111D01*
X93472734Y-61565851D01*
X93472729Y-61565848D01*
X93299807Y-61488857D01*
X93299802Y-61488855D01*
X93147329Y-61456447D01*
X93114646Y-61449500D01*
X92925354Y-61449500D01*
X92892897Y-61456398D01*
X92740197Y-61488855D01*
X92740192Y-61488857D01*
X92567270Y-61565848D01*
X92567265Y-61565851D01*
X92414129Y-61677111D01*
X92287466Y-61817785D01*
X92192821Y-61981715D01*
X92192818Y-61981722D01*
X92134327Y-62161740D01*
X92134326Y-62161744D01*
X92114540Y-62350000D01*
X92134326Y-62538256D01*
X92134327Y-62538259D01*
X92192818Y-62718277D01*
X92192821Y-62718284D01*
X92287467Y-62882216D01*
X92305281Y-62902000D01*
X92362650Y-62965715D01*
X92392880Y-63028706D01*
X92394500Y-63048687D01*
X92394500Y-63631611D01*
X92418535Y-63752444D01*
X92418540Y-63752461D01*
X92465685Y-63866281D01*
X92465688Y-63866286D01*
X92491282Y-63904589D01*
X92491283Y-63904592D01*
X92491284Y-63904592D01*
X92534140Y-63968731D01*
X92534141Y-63968732D01*
X92534142Y-63968733D01*
X92621267Y-64055858D01*
X92621268Y-64055858D01*
X92628335Y-64062925D01*
X92628334Y-64062925D01*
X92628338Y-64062928D01*
X93361038Y-64795629D01*
X93394523Y-64856952D01*
X93396678Y-64870347D01*
X93401113Y-64912537D01*
X93388544Y-64981267D01*
X93340813Y-65032291D01*
X93277792Y-65049500D01*
X90255452Y-65049500D01*
X90188413Y-65029815D01*
X90167771Y-65013181D01*
X88631819Y-63477229D01*
X88598334Y-63415906D01*
X88595500Y-63389548D01*
X88595500Y-62998687D01*
X88615185Y-62931648D01*
X88627350Y-62915715D01*
X88665820Y-62872989D01*
X88702533Y-62832216D01*
X88797179Y-62668284D01*
X88855674Y-62488256D01*
X88875460Y-62300000D01*
X88855674Y-62111744D01*
X88797179Y-61931716D01*
X88702533Y-61767784D01*
X88575871Y-61627112D01*
X88575870Y-61627111D01*
X88422734Y-61515851D01*
X88422729Y-61515848D01*
X88249807Y-61438857D01*
X88249802Y-61438855D01*
X88104001Y-61407865D01*
X88064646Y-61399500D01*
X87875354Y-61399500D01*
X87782780Y-61419176D01*
X87713114Y-61413860D01*
X87657381Y-61371722D01*
X87633276Y-61306142D01*
X87633001Y-61297886D01*
X87633001Y-60998687D01*
X87652686Y-60931648D01*
X87664851Y-60915715D01*
X87683392Y-60895122D01*
X87740034Y-60832216D01*
X87834680Y-60668284D01*
X87893175Y-60488256D01*
X87912961Y-60300000D01*
X87893175Y-60111744D01*
X87834680Y-59931716D01*
X87797709Y-59867679D01*
X87774614Y-59827677D01*
X87758001Y-59765677D01*
X87758001Y-58146684D01*
X87777686Y-58079645D01*
X87830490Y-58033890D01*
X87882001Y-58022684D01*
X91037035Y-58022684D01*
X91104074Y-58042369D01*
X91124716Y-58059003D01*
X91320682Y-58254969D01*
X91354167Y-58316292D01*
X91357001Y-58342650D01*
X91357001Y-59778178D01*
X91340388Y-59840178D01*
X91280322Y-59944215D01*
X91271386Y-59971718D01*
X91221827Y-60124245D01*
X91202041Y-60312501D01*
X91221827Y-60500757D01*
X91221828Y-60500760D01*
X91280319Y-60680778D01*
X91280322Y-60680785D01*
X91374968Y-60844717D01*
X91470744Y-60951087D01*
X91501630Y-60985389D01*
X91654766Y-61096649D01*
X91654771Y-61096652D01*
X91827693Y-61173643D01*
X91827698Y-61173645D01*
X92012855Y-61213001D01*
X92012856Y-61213001D01*
X92202145Y-61213001D01*
X92202147Y-61213001D01*
X92387304Y-61173645D01*
X92560231Y-61096652D01*
X92713372Y-60985389D01*
X92840034Y-60844717D01*
X92934680Y-60680785D01*
X92993175Y-60500757D01*
X93012961Y-60312501D01*
X92993175Y-60124245D01*
X92934680Y-59944217D01*
X92927463Y-59931716D01*
X92874614Y-59840178D01*
X92858001Y-59778178D01*
X92858001Y-58146684D01*
X92877686Y-58079645D01*
X92930490Y-58033890D01*
X92982001Y-58022684D01*
X96079954Y-58022684D01*
X96146993Y-58042369D01*
X96167635Y-58059003D01*
X96391100Y-58282468D01*
X96424585Y-58343791D01*
X96427419Y-58370149D01*
X96427419Y-59805677D01*
X96410806Y-59867677D01*
X96350740Y-59971714D01*
X96301181Y-60124241D01*
X96292245Y-60151744D01*
X96272459Y-60340000D01*
X96292245Y-60528256D01*
X96292246Y-60528258D01*
X96292246Y-60528259D01*
X96350737Y-60708277D01*
X96350738Y-60708279D01*
X96350740Y-60708284D01*
X96445386Y-60872216D01*
X96498899Y-60931648D01*
X96572048Y-61012888D01*
X96725184Y-61124148D01*
X96725189Y-61124151D01*
X96898111Y-61201142D01*
X96898116Y-61201144D01*
X97083273Y-61240500D01*
X97083274Y-61240500D01*
X97272563Y-61240500D01*
X97272565Y-61240500D01*
X97457722Y-61201144D01*
X97630649Y-61124151D01*
X97783790Y-61012888D01*
X97910452Y-60872216D01*
X98005098Y-60708284D01*
X98063593Y-60528256D01*
X98083379Y-60340000D01*
X98063593Y-60151744D01*
X98005098Y-59971716D01*
X97989222Y-59944217D01*
X97945032Y-59867677D01*
X97928419Y-59805677D01*
X97928419Y-58146684D01*
X97948104Y-58079645D01*
X98000908Y-58033890D01*
X98052419Y-58022684D01*
X101159534Y-58022684D01*
X101226573Y-58042369D01*
X101247215Y-58059003D01*
X101470682Y-58282470D01*
X101504167Y-58343793D01*
X101507001Y-58370151D01*
X101507001Y-59805679D01*
X101490388Y-59867679D01*
X101430322Y-59971716D01*
X101371829Y-60151740D01*
X101371827Y-60151746D01*
X101352041Y-60340002D01*
X101371827Y-60528258D01*
X101371828Y-60528261D01*
X101430319Y-60708279D01*
X101430321Y-60708284D01*
X101430322Y-60708286D01*
X101524968Y-60872218D01*
X101620851Y-60978706D01*
X101651630Y-61012890D01*
X101804766Y-61124150D01*
X101804771Y-61124153D01*
X101977693Y-61201144D01*
X101977698Y-61201146D01*
X102162855Y-61240502D01*
X102162856Y-61240502D01*
X102352145Y-61240502D01*
X102352147Y-61240502D01*
X102537304Y-61201146D01*
X102710231Y-61124153D01*
X102863372Y-61012890D01*
X102990034Y-60872218D01*
X103084680Y-60708286D01*
X103143175Y-60528258D01*
X103162961Y-60340002D01*
X103143175Y-60151746D01*
X103084680Y-59971718D01*
X103084678Y-59971714D01*
X103024614Y-59867679D01*
X103008001Y-59805679D01*
X103008001Y-58146684D01*
X103027686Y-58079645D01*
X103080490Y-58033890D01*
X103132001Y-58022684D01*
X106234114Y-58022684D01*
X106301153Y-58042369D01*
X106321795Y-58059003D01*
X106545262Y-58282470D01*
X106578747Y-58343793D01*
X106581581Y-58370151D01*
X106581581Y-59805679D01*
X106564968Y-59867679D01*
X106504902Y-59971716D01*
X106446409Y-60151740D01*
X106446407Y-60151746D01*
X106426621Y-60340002D01*
X106446407Y-60528258D01*
X106446408Y-60528261D01*
X106504899Y-60708279D01*
X106504901Y-60708284D01*
X106504902Y-60708286D01*
X106599548Y-60872218D01*
X106695431Y-60978706D01*
X106726210Y-61012890D01*
X106879346Y-61124150D01*
X106879351Y-61124153D01*
X107052273Y-61201144D01*
X107052278Y-61201146D01*
X107237435Y-61240502D01*
X107237436Y-61240502D01*
X107426725Y-61240502D01*
X107426727Y-61240502D01*
X107611884Y-61201146D01*
X107784811Y-61124153D01*
X107937952Y-61012890D01*
X108064614Y-60872218D01*
X108159260Y-60708286D01*
X108217755Y-60528258D01*
X108237541Y-60340002D01*
X108217755Y-60151746D01*
X108159260Y-59971718D01*
X108159258Y-59971714D01*
X108099194Y-59867679D01*
X108082581Y-59805679D01*
X108082581Y-58146684D01*
X108102266Y-58079645D01*
X108155070Y-58033890D01*
X108206581Y-58022684D01*
X110685231Y-58022684D01*
X110685232Y-58022684D01*
X110899075Y-57988814D01*
X111104987Y-57921910D01*
X111143770Y-57902148D01*
X111212437Y-57889252D01*
X111277178Y-57915527D01*
X111287746Y-57924952D01*
X111645262Y-58282468D01*
X111678747Y-58343791D01*
X111681581Y-58370149D01*
X111681581Y-59805677D01*
X111664968Y-59867677D01*
X111604902Y-59971714D01*
X111555343Y-60124241D01*
X111546407Y-60151744D01*
X111526621Y-60340000D01*
X111546407Y-60528256D01*
X111546408Y-60528258D01*
X111546408Y-60528259D01*
X111604899Y-60708277D01*
X111604900Y-60708279D01*
X111604902Y-60708284D01*
X111699548Y-60872216D01*
X111753061Y-60931648D01*
X111826210Y-61012888D01*
X111979346Y-61124148D01*
X111979351Y-61124151D01*
X112152273Y-61201142D01*
X112152278Y-61201144D01*
X112337435Y-61240500D01*
X112337436Y-61240500D01*
X112526725Y-61240500D01*
X112526727Y-61240500D01*
X112711884Y-61201144D01*
X112884811Y-61124151D01*
X113037952Y-61012888D01*
X113164614Y-60872216D01*
X113259260Y-60708284D01*
X113317755Y-60528256D01*
X113337541Y-60340000D01*
X113317755Y-60151744D01*
X113259260Y-59971716D01*
X113243384Y-59944217D01*
X113199194Y-59867677D01*
X113182581Y-59805677D01*
X113182581Y-57933998D01*
X113153740Y-57789011D01*
X113153739Y-57789010D01*
X113153739Y-57789006D01*
X113097165Y-57652424D01*
X113046390Y-57576433D01*
X113046390Y-57576432D01*
X113015031Y-57529500D01*
X112997712Y-57512181D01*
X112964227Y-57450858D01*
X112969211Y-57381166D01*
X113011083Y-57325233D01*
X113076547Y-57300816D01*
X113085393Y-57300500D01*
X117871252Y-57300500D01*
X117938291Y-57320185D01*
X117963400Y-57341526D01*
X117969126Y-57347885D01*
X117969130Y-57347889D01*
X118122265Y-57459148D01*
X118122270Y-57459151D01*
X118295192Y-57536142D01*
X118295197Y-57536144D01*
X118480354Y-57575500D01*
X118480355Y-57575500D01*
X118669644Y-57575500D01*
X118669646Y-57575500D01*
X118854803Y-57536144D01*
X119027730Y-57459151D01*
X119180871Y-57347888D01*
X119307533Y-57207216D01*
X119402179Y-57043284D01*
X119460674Y-56863256D01*
X119480460Y-56675000D01*
X119460674Y-56486744D01*
X119402179Y-56306716D01*
X119307533Y-56142784D01*
X119180871Y-56002112D01*
X119180870Y-56002111D01*
X119027734Y-55890851D01*
X119027729Y-55890848D01*
X118854807Y-55813857D01*
X118854802Y-55813855D01*
X118709001Y-55782865D01*
X118669646Y-55774500D01*
X118480354Y-55774500D01*
X118447897Y-55781398D01*
X118295197Y-55813855D01*
X118295192Y-55813857D01*
X118122270Y-55890848D01*
X118122265Y-55890851D01*
X117969130Y-56002110D01*
X117969126Y-56002114D01*
X117963400Y-56008474D01*
X117903913Y-56045121D01*
X117871252Y-56049500D01*
X113127419Y-56049500D01*
X113060380Y-56029815D01*
X113014625Y-55977011D01*
X113004681Y-55907853D01*
X113009488Y-55887181D01*
X113013713Y-55874177D01*
X113047582Y-55660339D01*
X113047582Y-55394759D01*
X113067267Y-55327720D01*
X113120071Y-55281965D01*
X113189229Y-55272021D01*
X113252785Y-55301046D01*
X113259263Y-55307078D01*
X113340680Y-55388495D01*
X113419701Y-55443826D01*
X113534246Y-55524032D01*
X113534248Y-55524033D01*
X113534251Y-55524035D01*
X113748418Y-55623903D01*
X113976673Y-55685063D01*
X114153115Y-55700500D01*
X114212080Y-55705659D01*
X114212081Y-55705659D01*
X114212082Y-55705659D01*
X114271047Y-55700500D01*
X114447489Y-55685063D01*
X114675744Y-55623903D01*
X114889911Y-55524035D01*
X115083482Y-55388495D01*
X115250576Y-55221401D01*
X115380506Y-55035842D01*
X115435083Y-54992217D01*
X115504581Y-54985023D01*
X115566936Y-55016546D01*
X115583656Y-55035842D01*
X115713581Y-55221395D01*
X115713586Y-55221401D01*
X115880680Y-55388495D01*
X115959701Y-55443826D01*
X116074246Y-55524032D01*
X116074248Y-55524033D01*
X116074251Y-55524035D01*
X116288418Y-55623903D01*
X116516673Y-55685063D01*
X116693115Y-55700500D01*
X116752080Y-55705659D01*
X116752081Y-55705659D01*
X116752082Y-55705659D01*
X116811047Y-55700500D01*
X116987489Y-55685063D01*
X117215744Y-55623903D01*
X117429911Y-55524035D01*
X117623482Y-55388495D01*
X117790576Y-55221401D01*
X117926116Y-55027830D01*
X118025984Y-54813663D01*
X118087144Y-54585408D01*
X118107740Y-54350000D01*
X118087144Y-54114592D01*
X118025984Y-53886337D01*
X117926116Y-53672171D01*
X117920506Y-53664158D01*
X117790575Y-53478597D01*
X117623483Y-53311506D01*
X117623476Y-53311501D01*
X117614537Y-53305242D01*
X117546599Y-53257671D01*
X117429915Y-53175967D01*
X117429911Y-53175965D01*
X117416105Y-53169527D01*
X117215744Y-53076097D01*
X117215740Y-53076096D01*
X117215736Y-53076094D01*
X116987494Y-53014938D01*
X116987484Y-53014936D01*
X116752082Y-52994341D01*
X116752080Y-52994341D01*
X116516677Y-53014936D01*
X116516667Y-53014938D01*
X116288425Y-53076094D01*
X116288416Y-53076098D01*
X116074252Y-53175964D01*
X116074250Y-53175965D01*
X115880678Y-53311505D01*
X115713586Y-53478597D01*
X115583656Y-53664158D01*
X115529079Y-53707783D01*
X115459581Y-53714977D01*
X115397226Y-53683454D01*
X115380506Y-53664158D01*
X115250575Y-53478597D01*
X115083483Y-53311506D01*
X115083476Y-53311501D01*
X115074537Y-53305242D01*
X115006599Y-53257671D01*
X114889915Y-53175967D01*
X114889911Y-53175965D01*
X114876105Y-53169527D01*
X114675744Y-53076097D01*
X114675740Y-53076096D01*
X114675736Y-53076094D01*
X114447494Y-53014938D01*
X114447484Y-53014936D01*
X114212082Y-52994341D01*
X114212080Y-52994341D01*
X113976677Y-53014936D01*
X113976667Y-53014938D01*
X113748425Y-53076094D01*
X113748416Y-53076098D01*
X113534252Y-53175964D01*
X113534250Y-53175965D01*
X113340678Y-53311505D01*
X113259263Y-53392921D01*
X113197940Y-53426406D01*
X113128248Y-53421422D01*
X113072315Y-53379550D01*
X113047898Y-53314086D01*
X113047582Y-53305240D01*
X113047582Y-51701746D01*
X113024631Y-51556843D01*
X113013712Y-51487903D01*
X112967714Y-51346335D01*
X112946809Y-51281993D01*
X112946808Y-51281990D01*
X112877144Y-51145269D01*
X112848515Y-51089081D01*
X112721254Y-50913922D01*
X112568160Y-50760828D01*
X112518595Y-50724816D01*
X112475931Y-50669488D01*
X112469952Y-50599874D01*
X112502558Y-50538079D01*
X112563397Y-50503722D01*
X112591482Y-50500500D01*
X124934108Y-50500500D01*
X124997294Y-50500500D01*
X125002703Y-50500618D01*
X125025606Y-50501618D01*
X125091723Y-50524208D01*
X125135131Y-50578958D01*
X125142048Y-50648484D01*
X125110279Y-50710713D01*
X125049909Y-50745888D01*
X125020197Y-50749500D01*
X124797524Y-50749500D01*
X124567076Y-50771505D01*
X124394401Y-50787993D01*
X124394389Y-50787995D01*
X123996781Y-50864628D01*
X123996764Y-50864632D01*
X123608231Y-50978715D01*
X123608219Y-50978719D01*
X123232283Y-51129221D01*
X123232279Y-51129223D01*
X122872343Y-51314783D01*
X122531683Y-51533711D01*
X122531676Y-51533716D01*
X122531672Y-51533719D01*
X122479698Y-51574592D01*
X122213359Y-51784043D01*
X122213357Y-51784044D01*
X121939252Y-52045403D01*
X121920280Y-52063493D01*
X121881908Y-52107777D01*
X121655094Y-52369534D01*
X121655083Y-52369547D01*
X121420206Y-52699385D01*
X121420200Y-52699393D01*
X121217725Y-53050091D01*
X121217717Y-53050107D01*
X121049494Y-53418462D01*
X121049492Y-53418466D01*
X120917053Y-53801125D01*
X120917050Y-53801136D01*
X120821579Y-54194673D01*
X120763948Y-54595501D01*
X120744680Y-55000000D01*
X120763948Y-55404498D01*
X120821579Y-55805326D01*
X120917050Y-56198863D01*
X120917053Y-56198874D01*
X121049492Y-56581533D01*
X121049494Y-56581537D01*
X121217717Y-56949892D01*
X121217725Y-56949908D01*
X121420200Y-57300606D01*
X121420206Y-57300614D01*
X121655083Y-57630452D01*
X121655092Y-57630462D01*
X121655093Y-57630464D01*
X121920280Y-57936507D01*
X122213358Y-58215956D01*
X122531672Y-58466281D01*
X122872340Y-58685215D01*
X123232276Y-58870775D01*
X123608221Y-59021281D01*
X123996770Y-59135369D01*
X124394405Y-59212007D01*
X124797524Y-59250500D01*
X124797530Y-59250500D01*
X125202470Y-59250500D01*
X125202476Y-59250500D01*
X125605595Y-59212007D01*
X126003230Y-59135369D01*
X126391779Y-59021281D01*
X126767724Y-58870775D01*
X127127660Y-58685215D01*
X127468328Y-58466281D01*
X127786642Y-58215956D01*
X128079720Y-57936507D01*
X128344907Y-57630464D01*
X128383383Y-57576433D01*
X128579793Y-57300614D01*
X128579799Y-57300606D01*
X128579800Y-57300603D01*
X128579803Y-57300600D01*
X128782279Y-56949900D01*
X128950503Y-56581543D01*
X128950505Y-56581536D01*
X128950507Y-56581533D01*
X129082946Y-56198874D01*
X129082946Y-56198871D01*
X129082950Y-56198862D01*
X129178421Y-55805325D01*
X129236052Y-55404494D01*
X129251640Y-55077242D01*
X129274493Y-55011217D01*
X129329414Y-54968026D01*
X129398967Y-54961385D01*
X129461070Y-54993401D01*
X129496005Y-55053910D01*
X129499500Y-55083144D01*
X129499500Y-94916855D01*
X129479815Y-94983894D01*
X129427011Y-95029649D01*
X129357853Y-95039593D01*
X129294297Y-95010568D01*
X129256523Y-94951790D01*
X129251640Y-94922755D01*
X129251359Y-94916855D01*
X129236052Y-94595506D01*
X129178421Y-94194675D01*
X129082950Y-93801138D01*
X129082946Y-93801125D01*
X128950507Y-93418466D01*
X128950505Y-93418462D01*
X128906833Y-93322835D01*
X128782279Y-93050100D01*
X128579803Y-92699400D01*
X128579799Y-92699393D01*
X128579793Y-92699385D01*
X128344916Y-92369547D01*
X128344905Y-92369534D01*
X128079720Y-92063493D01*
X127786642Y-91784044D01*
X127468328Y-91533719D01*
X127401325Y-91490659D01*
X127305066Y-91428797D01*
X127127660Y-91314785D01*
X126767724Y-91129225D01*
X126767723Y-91129224D01*
X126767720Y-91129223D01*
X126767716Y-91129221D01*
X126391780Y-90978719D01*
X126391768Y-90978715D01*
X126003235Y-90864632D01*
X126003218Y-90864628D01*
X125605610Y-90787995D01*
X125605598Y-90787993D01*
X125471222Y-90775162D01*
X125202476Y-90749500D01*
X124797524Y-90749500D01*
X124555652Y-90772595D01*
X124394401Y-90787993D01*
X124394389Y-90787995D01*
X123996781Y-90864628D01*
X123996764Y-90864632D01*
X123608231Y-90978715D01*
X123608219Y-90978719D01*
X123232283Y-91129221D01*
X123232279Y-91129223D01*
X122872343Y-91314783D01*
X122531683Y-91533711D01*
X122531676Y-91533716D01*
X122531672Y-91533719D01*
X122292044Y-91722164D01*
X122213359Y-91784043D01*
X122213357Y-91784044D01*
X121920283Y-92063490D01*
X121920281Y-92063492D01*
X121655094Y-92369534D01*
X121655083Y-92369547D01*
X121420206Y-92699385D01*
X121420200Y-92699393D01*
X121217725Y-93050091D01*
X121217717Y-93050107D01*
X121049494Y-93418462D01*
X121049492Y-93418466D01*
X120917053Y-93801125D01*
X120917050Y-93801136D01*
X120821579Y-94194673D01*
X120763948Y-94595501D01*
X120744680Y-95000000D01*
X120763948Y-95404498D01*
X120821579Y-95805326D01*
X120917050Y-96198863D01*
X120917053Y-96198874D01*
X121049492Y-96581533D01*
X121049494Y-96581537D01*
X121217717Y-96949892D01*
X121217725Y-96949908D01*
X121420200Y-97300606D01*
X121420206Y-97300614D01*
X121655083Y-97630452D01*
X121655092Y-97630462D01*
X121655093Y-97630464D01*
X121920280Y-97936507D01*
X122213358Y-98215956D01*
X122531672Y-98466281D01*
X122872340Y-98685215D01*
X123232276Y-98870775D01*
X123232281Y-98870777D01*
X123232283Y-98870778D01*
X123296986Y-98896681D01*
X123608221Y-99021281D01*
X123996770Y-99135369D01*
X124231016Y-99180516D01*
X124336947Y-99200933D01*
X124394405Y-99212007D01*
X124797524Y-99250500D01*
X124797530Y-99250500D01*
X125020197Y-99250500D01*
X125087236Y-99270185D01*
X125132991Y-99322989D01*
X125142935Y-99392147D01*
X125113910Y-99455703D01*
X125055132Y-99493477D01*
X125025606Y-99498382D01*
X125002703Y-99499382D01*
X124997294Y-99499500D01*
X55002706Y-99499500D01*
X54997297Y-99499382D01*
X54974394Y-99498382D01*
X54908277Y-99475792D01*
X54864869Y-99421042D01*
X54857952Y-99351516D01*
X54889721Y-99289287D01*
X54950091Y-99254112D01*
X54979803Y-99250500D01*
X55202470Y-99250500D01*
X55202476Y-99250500D01*
X55605595Y-99212007D01*
X56003230Y-99135369D01*
X56391779Y-99021281D01*
X56767724Y-98870775D01*
X57127660Y-98685215D01*
X57468328Y-98466281D01*
X57786642Y-98215956D01*
X58079720Y-97936507D01*
X58344907Y-97630464D01*
X58469535Y-97455450D01*
X58579793Y-97300614D01*
X58579799Y-97300606D01*
X58579800Y-97300603D01*
X58579803Y-97300600D01*
X58782279Y-96949900D01*
X58950503Y-96581543D01*
X58950505Y-96581536D01*
X58950507Y-96581533D01*
X59082946Y-96198874D01*
X59082946Y-96198871D01*
X59082950Y-96198862D01*
X59178421Y-95805325D01*
X59236052Y-95404494D01*
X59255320Y-95000000D01*
X59236052Y-94595506D01*
X59178421Y-94194675D01*
X59082950Y-93801138D01*
X59082946Y-93801125D01*
X58950507Y-93418466D01*
X58950505Y-93418462D01*
X58906833Y-93322835D01*
X58782279Y-93050100D01*
X58579803Y-92699400D01*
X58579799Y-92699393D01*
X58579793Y-92699385D01*
X58541065Y-92644999D01*
X62634343Y-92644999D01*
X62634343Y-92645000D01*
X62654938Y-92880403D01*
X62654940Y-92880413D01*
X62716096Y-93108655D01*
X62716098Y-93108659D01*
X62716099Y-93108663D01*
X62796006Y-93280023D01*
X62815967Y-93322830D01*
X62815969Y-93322834D01*
X62882926Y-93418457D01*
X62951507Y-93516401D01*
X63118601Y-93683495D01*
X63118603Y-93683496D01*
X63118605Y-93683498D01*
X63304160Y-93813425D01*
X63347785Y-93868002D01*
X63354979Y-93937500D01*
X63323456Y-93999855D01*
X63304160Y-94016575D01*
X63118599Y-94146505D01*
X62951507Y-94313597D01*
X62815967Y-94507169D01*
X62815966Y-94507171D01*
X62716100Y-94721335D01*
X62716096Y-94721344D01*
X62654940Y-94949586D01*
X62654938Y-94949596D01*
X62634343Y-95184999D01*
X62634343Y-95185000D01*
X62654938Y-95420403D01*
X62654940Y-95420413D01*
X62716096Y-95648655D01*
X62716098Y-95648659D01*
X62716099Y-95648663D01*
X62792143Y-95811740D01*
X62815967Y-95862830D01*
X62815969Y-95862834D01*
X62924283Y-96017521D01*
X62951503Y-96056396D01*
X62951508Y-96056402D01*
X63118599Y-96223493D01*
X63118605Y-96223498D01*
X63304160Y-96353425D01*
X63347785Y-96408002D01*
X63354979Y-96477500D01*
X63323456Y-96539855D01*
X63304160Y-96556575D01*
X63118599Y-96686505D01*
X62951507Y-96853597D01*
X62815967Y-97047169D01*
X62815966Y-97047171D01*
X62716100Y-97261335D01*
X62716096Y-97261344D01*
X62654940Y-97489586D01*
X62654938Y-97489596D01*
X62634343Y-97724999D01*
X62634343Y-97725000D01*
X62654938Y-97960403D01*
X62654940Y-97960413D01*
X62716096Y-98188655D01*
X62716098Y-98188659D01*
X62716099Y-98188663D01*
X62728826Y-98215955D01*
X62815967Y-98402830D01*
X62815969Y-98402834D01*
X62907076Y-98532947D01*
X62951507Y-98596401D01*
X63118601Y-98763495D01*
X63215386Y-98831265D01*
X63312167Y-98899032D01*
X63312169Y-98899033D01*
X63312172Y-98899035D01*
X63526339Y-98998903D01*
X63754594Y-99060063D01*
X63931036Y-99075500D01*
X63990001Y-99080659D01*
X63990002Y-99080659D01*
X63990003Y-99080659D01*
X64048968Y-99075500D01*
X64225410Y-99060063D01*
X64453665Y-98998903D01*
X64667832Y-98899035D01*
X64861403Y-98763495D01*
X64983331Y-98641566D01*
X65044650Y-98608084D01*
X65114342Y-98613068D01*
X65170276Y-98654939D01*
X65187191Y-98685917D01*
X65236204Y-98817328D01*
X65236208Y-98817335D01*
X65322454Y-98932544D01*
X65322457Y-98932547D01*
X65437666Y-99018793D01*
X65437673Y-99018797D01*
X65572519Y-99069091D01*
X65572518Y-99069091D01*
X65579446Y-99069835D01*
X65632129Y-99075500D01*
X67427874Y-99075499D01*
X67487485Y-99069091D01*
X67622333Y-99018796D01*
X67737548Y-98932546D01*
X67823798Y-98817331D01*
X67874093Y-98682483D01*
X67880502Y-98622873D01*
X67880501Y-96827128D01*
X67874093Y-96767517D01*
X67872812Y-96764083D01*
X67823799Y-96632671D01*
X67823795Y-96632664D01*
X67737549Y-96517455D01*
X67737546Y-96517452D01*
X67622337Y-96431206D01*
X67622330Y-96431202D01*
X67490919Y-96382189D01*
X67434985Y-96340318D01*
X67410568Y-96274853D01*
X67425420Y-96206580D01*
X67446565Y-96178332D01*
X67568497Y-96056401D01*
X67704037Y-95862830D01*
X67803905Y-95648663D01*
X67865065Y-95420408D01*
X67885661Y-95185000D01*
X67865065Y-94949592D01*
X67803905Y-94721337D01*
X67704037Y-94507171D01*
X67698427Y-94499158D01*
X67568496Y-94313597D01*
X67401404Y-94146506D01*
X67401403Y-94146505D01*
X67215844Y-94016575D01*
X67172220Y-93961998D01*
X67165027Y-93892499D01*
X67196549Y-93830145D01*
X67215845Y-93813425D01*
X67233393Y-93801138D01*
X67401403Y-93683496D01*
X67568497Y-93516402D01*
X67704037Y-93322831D01*
X67803905Y-93108664D01*
X67865065Y-92880409D01*
X67885661Y-92645001D01*
X67865065Y-92409593D01*
X67803905Y-92181338D01*
X67704037Y-91967172D01*
X67704036Y-91967170D01*
X67568496Y-91773598D01*
X67401404Y-91606507D01*
X67401401Y-91606505D01*
X67355764Y-91574549D01*
X67207836Y-91470968D01*
X67207832Y-91470966D01*
X67205891Y-91470061D01*
X66993665Y-91371098D01*
X66993661Y-91371097D01*
X66993657Y-91371095D01*
X66765415Y-91309939D01*
X66765405Y-91309937D01*
X66530003Y-91289342D01*
X66530001Y-91289342D01*
X66294598Y-91309937D01*
X66294588Y-91309939D01*
X66066346Y-91371095D01*
X66066337Y-91371099D01*
X65852173Y-91470965D01*
X65852171Y-91470966D01*
X65658599Y-91606506D01*
X65491507Y-91773598D01*
X65361577Y-91959159D01*
X65307000Y-92002784D01*
X65237502Y-92009978D01*
X65175147Y-91978455D01*
X65158427Y-91959159D01*
X65028496Y-91773597D01*
X64861404Y-91606506D01*
X64861398Y-91606502D01*
X64757454Y-91533719D01*
X64667836Y-91470967D01*
X64667832Y-91470965D01*
X64597694Y-91438259D01*
X64453665Y-91371097D01*
X64453661Y-91371096D01*
X64453657Y-91371094D01*
X64225415Y-91309938D01*
X64225405Y-91309936D01*
X63990003Y-91289341D01*
X63990001Y-91289341D01*
X63754598Y-91309936D01*
X63754588Y-91309938D01*
X63526346Y-91371094D01*
X63526337Y-91371098D01*
X63312173Y-91470964D01*
X63312171Y-91470965D01*
X63118599Y-91606505D01*
X62951507Y-91773597D01*
X62815967Y-91967169D01*
X62815966Y-91967171D01*
X62730479Y-92150500D01*
X62716100Y-92181336D01*
X62716096Y-92181344D01*
X62654940Y-92409586D01*
X62654938Y-92409596D01*
X62634343Y-92644999D01*
X58541065Y-92644999D01*
X58344916Y-92369547D01*
X58344905Y-92369534D01*
X58079720Y-92063493D01*
X57786642Y-91784044D01*
X57468328Y-91533719D01*
X57401325Y-91490659D01*
X57305066Y-91428797D01*
X57127660Y-91314785D01*
X56767724Y-91129225D01*
X56767723Y-91129224D01*
X56767720Y-91129223D01*
X56767716Y-91129221D01*
X56391780Y-90978719D01*
X56391768Y-90978715D01*
X56003235Y-90864632D01*
X56003218Y-90864628D01*
X55605610Y-90787995D01*
X55605598Y-90787993D01*
X55471222Y-90775162D01*
X55202476Y-90749500D01*
X54797524Y-90749500D01*
X54555652Y-90772595D01*
X54394401Y-90787993D01*
X54394389Y-90787995D01*
X53996781Y-90864628D01*
X53996764Y-90864632D01*
X53608231Y-90978715D01*
X53608219Y-90978719D01*
X53232283Y-91129221D01*
X53232279Y-91129223D01*
X52872343Y-91314783D01*
X52531683Y-91533711D01*
X52531676Y-91533716D01*
X52531672Y-91533719D01*
X52292044Y-91722164D01*
X52213359Y-91784043D01*
X52213357Y-91784044D01*
X51920283Y-92063490D01*
X51920281Y-92063492D01*
X51655094Y-92369534D01*
X51655083Y-92369547D01*
X51420206Y-92699385D01*
X51420200Y-92699393D01*
X51217725Y-93050091D01*
X51217717Y-93050107D01*
X51049494Y-93418462D01*
X51049492Y-93418466D01*
X50917053Y-93801125D01*
X50917050Y-93801136D01*
X50821579Y-94194673D01*
X50763948Y-94595501D01*
X50763948Y-94595506D01*
X50754767Y-94788256D01*
X50748360Y-94922755D01*
X50725507Y-94988782D01*
X50670586Y-95031973D01*
X50601033Y-95038614D01*
X50538930Y-95006598D01*
X50503995Y-94946089D01*
X50500500Y-94916855D01*
X50500500Y-88225000D01*
X64069540Y-88225000D01*
X64089326Y-88413256D01*
X64089327Y-88413259D01*
X64147818Y-88593277D01*
X64147821Y-88593284D01*
X64242467Y-88757216D01*
X64346616Y-88872885D01*
X64369129Y-88897888D01*
X64522265Y-89009148D01*
X64522270Y-89009151D01*
X64695192Y-89086142D01*
X64695197Y-89086144D01*
X64880354Y-89125500D01*
X64880355Y-89125500D01*
X65069644Y-89125500D01*
X65069646Y-89125500D01*
X65254803Y-89086144D01*
X65427730Y-89009151D01*
X65580871Y-88897888D01*
X65707533Y-88757216D01*
X65802179Y-88593284D01*
X65860674Y-88413256D01*
X65880460Y-88225000D01*
X65860674Y-88036744D01*
X65802179Y-87856716D01*
X65787749Y-87831722D01*
X65742113Y-87752677D01*
X65725500Y-87690677D01*
X65725500Y-83680788D01*
X65745185Y-83613749D01*
X65776614Y-83580470D01*
X65855871Y-83522888D01*
X65982533Y-83382216D01*
X66077179Y-83218284D01*
X66135674Y-83038256D01*
X66155460Y-82850000D01*
X66135674Y-82661744D01*
X66077179Y-82481716D01*
X65982533Y-82317784D01*
X65855871Y-82177112D01*
X65805841Y-82140763D01*
X65702734Y-82065851D01*
X65702729Y-82065848D01*
X65529807Y-81988857D01*
X65529802Y-81988855D01*
X65384001Y-81957865D01*
X65344646Y-81949500D01*
X65155354Y-81949500D01*
X65122897Y-81956398D01*
X64970197Y-81988855D01*
X64970192Y-81988857D01*
X64797270Y-82065848D01*
X64797265Y-82065851D01*
X64644129Y-82177111D01*
X64517466Y-82317785D01*
X64422821Y-82481715D01*
X64422818Y-82481722D01*
X64364327Y-82661739D01*
X64364325Y-82661747D01*
X64364243Y-82662534D01*
X64364038Y-82663100D01*
X64362976Y-82668098D01*
X64362284Y-82667951D01*
X64344027Y-82718453D01*
X64309913Y-82769509D01*
X64253343Y-82906082D01*
X64253340Y-82906092D01*
X64224500Y-83051079D01*
X64224500Y-87690677D01*
X64207887Y-87752677D01*
X64147821Y-87856714D01*
X64107044Y-87982214D01*
X64089326Y-88036744D01*
X64069540Y-88225000D01*
X50500500Y-88225000D01*
X50500500Y-86668543D01*
X51749499Y-86668543D01*
X51787947Y-86861829D01*
X51787950Y-86861839D01*
X51863364Y-87043907D01*
X51863371Y-87043920D01*
X51972860Y-87207781D01*
X51972863Y-87207785D01*
X52112214Y-87347136D01*
X52112218Y-87347139D01*
X52276079Y-87456628D01*
X52276092Y-87456635D01*
X52446241Y-87527112D01*
X52458165Y-87532051D01*
X52458169Y-87532051D01*
X52458170Y-87532052D01*
X52651456Y-87570500D01*
X52651459Y-87570500D01*
X53448543Y-87570500D01*
X53594458Y-87541475D01*
X53641835Y-87532051D01*
X53823914Y-87456632D01*
X53987782Y-87347139D01*
X54127139Y-87207782D01*
X54236632Y-87043914D01*
X54312051Y-86861835D01*
X54350500Y-86668543D01*
X55679499Y-86668543D01*
X55717947Y-86861829D01*
X55717950Y-86861839D01*
X55793364Y-87043907D01*
X55793371Y-87043920D01*
X55902860Y-87207781D01*
X55902863Y-87207785D01*
X56042214Y-87347136D01*
X56042218Y-87347139D01*
X56206079Y-87456628D01*
X56206092Y-87456635D01*
X56376241Y-87527112D01*
X56388165Y-87532051D01*
X56388169Y-87532051D01*
X56388170Y-87532052D01*
X56581456Y-87570500D01*
X56581459Y-87570500D01*
X57878543Y-87570500D01*
X58024458Y-87541475D01*
X58071835Y-87532051D01*
X58253914Y-87456632D01*
X58417782Y-87347139D01*
X58557139Y-87207782D01*
X58666632Y-87043914D01*
X58742051Y-86861835D01*
X58780500Y-86668541D01*
X58780500Y-86471459D01*
X58780500Y-86471456D01*
X58742052Y-86278170D01*
X58742051Y-86278169D01*
X58742051Y-86278165D01*
X58686051Y-86142967D01*
X58666635Y-86096092D01*
X58666628Y-86096079D01*
X58557139Y-85932218D01*
X58557136Y-85932214D01*
X58417785Y-85792863D01*
X58417781Y-85792860D01*
X58253920Y-85683371D01*
X58253907Y-85683364D01*
X58071839Y-85607950D01*
X58071829Y-85607947D01*
X57878543Y-85569500D01*
X57878541Y-85569500D01*
X57331333Y-85569500D01*
X57264294Y-85549815D01*
X57218539Y-85497011D01*
X57208595Y-85427853D01*
X57223947Y-85383499D01*
X57236278Y-85362140D01*
X57236277Y-85362140D01*
X57236281Y-85362135D01*
X57275500Y-85215766D01*
X57275500Y-85064234D01*
X57272523Y-85053123D01*
X58736999Y-85053123D01*
X58765840Y-85198110D01*
X58765843Y-85198120D01*
X58822413Y-85334693D01*
X58822418Y-85334702D01*
X58832975Y-85350501D01*
X58832976Y-85350501D01*
X58844062Y-85367094D01*
X58864280Y-85423020D01*
X58865089Y-85430716D01*
X58865091Y-85430727D01*
X58923582Y-85610744D01*
X58923585Y-85610751D01*
X59018231Y-85774683D01*
X59144893Y-85915355D01*
X59298029Y-86026615D01*
X59298034Y-86026618D01*
X59470956Y-86103609D01*
X59470961Y-86103611D01*
X59656118Y-86142967D01*
X59656119Y-86142967D01*
X59845408Y-86142967D01*
X59845410Y-86142967D01*
X60030567Y-86103611D01*
X60203494Y-86026618D01*
X60356635Y-85915355D01*
X60483297Y-85774683D01*
X60577943Y-85610751D01*
X60636438Y-85430723D01*
X60656224Y-85242467D01*
X60636438Y-85054211D01*
X60577943Y-84874183D01*
X60483297Y-84710251D01*
X60406722Y-84625206D01*
X60356640Y-84569583D01*
X60356635Y-84569579D01*
X60289113Y-84520520D01*
X60246448Y-84465189D01*
X60238000Y-84420203D01*
X60238000Y-80639870D01*
X60257685Y-80572831D01*
X60289116Y-80539551D01*
X60343554Y-80500000D01*
X68694540Y-80500000D01*
X68714326Y-80688256D01*
X68714327Y-80688259D01*
X68772818Y-80868277D01*
X68772821Y-80868284D01*
X68867467Y-81032216D01*
X68929935Y-81101593D01*
X68994129Y-81172888D01*
X69147265Y-81284148D01*
X69147270Y-81284151D01*
X69320191Y-81361142D01*
X69320193Y-81361142D01*
X69320197Y-81361144D01*
X69385329Y-81374987D01*
X69446809Y-81408178D01*
X69447228Y-81408596D01*
X75089293Y-87050661D01*
X75122778Y-87111984D01*
X75117794Y-87181676D01*
X75075922Y-87237609D01*
X75025804Y-87259959D01*
X74977598Y-87269548D01*
X74957551Y-87273536D01*
X74942806Y-87279644D01*
X74939226Y-87281127D01*
X74939224Y-87281128D01*
X74843724Y-87320684D01*
X74843711Y-87320691D01*
X74741270Y-87389141D01*
X74741266Y-87389144D01*
X73335649Y-88794762D01*
X73274326Y-88828247D01*
X73215875Y-88826856D01*
X73115416Y-88799938D01*
X73115406Y-88799936D01*
X72880004Y-88779341D01*
X72880002Y-88779341D01*
X72644599Y-88799936D01*
X72644589Y-88799938D01*
X72416347Y-88861094D01*
X72416338Y-88861098D01*
X72202174Y-88960964D01*
X72202172Y-88960965D01*
X72008600Y-89096505D01*
X71841508Y-89263597D01*
X71705968Y-89457169D01*
X71705967Y-89457171D01*
X71606101Y-89671335D01*
X71606097Y-89671344D01*
X71544941Y-89899586D01*
X71544939Y-89899596D01*
X71524344Y-90134999D01*
X71524344Y-90135000D01*
X71544939Y-90370403D01*
X71544941Y-90370413D01*
X71606097Y-90598655D01*
X71606099Y-90598659D01*
X71606100Y-90598663D01*
X71659598Y-90713389D01*
X71705968Y-90812830D01*
X71705970Y-90812834D01*
X71775535Y-90912182D01*
X71841508Y-91006401D01*
X72008602Y-91173495D01*
X72092461Y-91232214D01*
X72202168Y-91309032D01*
X72202170Y-91309033D01*
X72202173Y-91309035D01*
X72416340Y-91408903D01*
X72644595Y-91470063D01*
X72821037Y-91485500D01*
X72880002Y-91490659D01*
X72880003Y-91490659D01*
X72880004Y-91490659D01*
X72938969Y-91485500D01*
X73115411Y-91470063D01*
X73343666Y-91408903D01*
X73557833Y-91309035D01*
X73751404Y-91173495D01*
X73918498Y-91006401D01*
X74048427Y-90820842D01*
X74103004Y-90777218D01*
X74172502Y-90770024D01*
X74234857Y-90801547D01*
X74251577Y-90820842D01*
X74381507Y-91006401D01*
X74548601Y-91173495D01*
X74632460Y-91232214D01*
X74742167Y-91309032D01*
X74742169Y-91309033D01*
X74742172Y-91309035D01*
X74956339Y-91408903D01*
X75184594Y-91470063D01*
X75361036Y-91485500D01*
X75420001Y-91490659D01*
X75420002Y-91490659D01*
X75420003Y-91490659D01*
X75478968Y-91485500D01*
X75655410Y-91470063D01*
X75883665Y-91408903D01*
X76097832Y-91309035D01*
X76291403Y-91173495D01*
X76413331Y-91051566D01*
X76474650Y-91018084D01*
X76544342Y-91023068D01*
X76600276Y-91064939D01*
X76617191Y-91095917D01*
X76666204Y-91227328D01*
X76666208Y-91227335D01*
X76752454Y-91342544D01*
X76752457Y-91342547D01*
X76867666Y-91428793D01*
X76867673Y-91428797D01*
X77002519Y-91479091D01*
X77002518Y-91479091D01*
X77009446Y-91479835D01*
X77062129Y-91485500D01*
X78857874Y-91485499D01*
X78917485Y-91479091D01*
X79052333Y-91428796D01*
X79167548Y-91342546D01*
X79253798Y-91227331D01*
X79304093Y-91092483D01*
X79310502Y-91032873D01*
X79310502Y-91009500D01*
X79330187Y-90942461D01*
X79382991Y-90896706D01*
X79434502Y-90885500D01*
X80688920Y-90885500D01*
X80793846Y-90864628D01*
X80833913Y-90856658D01*
X80939714Y-90812834D01*
X80970493Y-90800085D01*
X80970493Y-90800084D01*
X80970495Y-90800084D01*
X81029737Y-90760500D01*
X81029737Y-90760499D01*
X81029739Y-90760499D01*
X81077918Y-90728307D01*
X81093416Y-90717952D01*
X81773890Y-90037476D01*
X81835210Y-90003993D01*
X81904901Y-90008977D01*
X81960835Y-90050848D01*
X81984788Y-90111274D01*
X81989630Y-90154250D01*
X81989631Y-90154254D01*
X82049211Y-90324523D01*
X82130059Y-90453191D01*
X82145184Y-90477262D01*
X82272738Y-90604816D01*
X82425478Y-90700789D01*
X82425480Y-90700789D01*
X82425484Y-90700792D01*
X82431756Y-90703813D01*
X82430869Y-90705653D01*
X82466939Y-90728307D01*
X83313181Y-91574549D01*
X83346666Y-91635872D01*
X83349500Y-91662230D01*
X83349500Y-95473918D01*
X83349500Y-95473920D01*
X83349499Y-95473920D01*
X83378340Y-95618907D01*
X83378343Y-95618917D01*
X83434914Y-95755492D01*
X83434915Y-95755494D01*
X83434916Y-95755495D01*
X83452178Y-95781330D01*
X83467812Y-95804727D01*
X83467813Y-95804730D01*
X83517046Y-95878414D01*
X83517052Y-95878421D01*
X86171579Y-98532947D01*
X86171583Y-98532950D01*
X86294497Y-98615079D01*
X86294510Y-98615086D01*
X86390725Y-98654939D01*
X86431086Y-98671657D01*
X86431090Y-98671657D01*
X86431091Y-98671658D01*
X86576078Y-98700499D01*
X86576081Y-98700499D01*
X89623921Y-98700499D01*
X89721463Y-98681095D01*
X89768914Y-98671657D01*
X89905496Y-98615083D01*
X89954730Y-98582185D01*
X90028417Y-98532951D01*
X91500708Y-97060658D01*
X91562029Y-97027175D01*
X91631720Y-97032159D01*
X91676068Y-97060660D01*
X91951263Y-97335855D01*
X91951267Y-97335858D01*
X92053712Y-97404310D01*
X92053711Y-97404310D01*
X92053713Y-97404311D01*
X92053715Y-97404312D01*
X92086436Y-97417865D01*
X92086437Y-97417866D01*
X92086438Y-97417866D01*
X92167548Y-97451463D01*
X92187597Y-97455451D01*
X92221196Y-97462134D01*
X92288392Y-97475501D01*
X92288394Y-97475501D01*
X92417721Y-97475501D01*
X92417741Y-97475500D01*
X98613394Y-97475500D01*
X103763394Y-97475500D01*
X105446252Y-97475500D01*
X105513291Y-97495185D01*
X105538400Y-97516526D01*
X105544126Y-97522885D01*
X105544130Y-97522889D01*
X105697265Y-97634148D01*
X105697270Y-97634151D01*
X105870192Y-97711142D01*
X105870197Y-97711144D01*
X106055354Y-97750500D01*
X106055355Y-97750500D01*
X106244644Y-97750500D01*
X106244646Y-97750500D01*
X106429803Y-97711144D01*
X106602730Y-97634151D01*
X106755871Y-97522888D01*
X106882533Y-97382216D01*
X106977179Y-97218284D01*
X107035674Y-97038256D01*
X107055460Y-96850000D01*
X107035674Y-96661744D01*
X106977179Y-96481716D01*
X106882533Y-96317784D01*
X106755871Y-96177112D01*
X106755870Y-96177111D01*
X106602734Y-96065851D01*
X106602729Y-96065848D01*
X106429807Y-95988857D01*
X106429802Y-95988855D01*
X106284001Y-95957865D01*
X106244646Y-95949500D01*
X106055354Y-95949500D01*
X106022897Y-95956398D01*
X105870197Y-95988855D01*
X105870192Y-95988857D01*
X105697270Y-96065848D01*
X105697265Y-96065851D01*
X105544130Y-96177110D01*
X105544126Y-96177114D01*
X105538400Y-96183474D01*
X105478913Y-96220121D01*
X105446252Y-96224500D01*
X104574500Y-96224500D01*
X104507461Y-96204815D01*
X104461706Y-96152011D01*
X104450500Y-96100500D01*
X104450500Y-90713393D01*
X104450499Y-90713389D01*
X104428903Y-90604815D01*
X104426463Y-90592548D01*
X104395397Y-90517548D01*
X104392991Y-90511740D01*
X104379314Y-90478719D01*
X104379309Y-90478710D01*
X104362257Y-90453191D01*
X104362256Y-90453190D01*
X104310858Y-90376267D01*
X104310856Y-90376264D01*
X104220637Y-90286045D01*
X104220606Y-90286016D01*
X101740198Y-87805608D01*
X101740178Y-87805586D01*
X101648735Y-87714143D01*
X101613615Y-87690677D01*
X101580102Y-87668284D01*
X101580103Y-87668284D01*
X101580101Y-87668282D01*
X101546290Y-87645690D01*
X101546286Y-87645688D01*
X101528343Y-87638256D01*
X101465792Y-87612347D01*
X101432453Y-87598537D01*
X101422427Y-87596543D01*
X101372029Y-87586518D01*
X101311610Y-87574500D01*
X101311607Y-87574500D01*
X101311606Y-87574500D01*
X100453748Y-87574500D01*
X100386709Y-87554815D01*
X100361600Y-87533474D01*
X100355873Y-87527114D01*
X100355869Y-87527110D01*
X100202734Y-87415851D01*
X100202729Y-87415848D01*
X100029807Y-87338857D01*
X100029802Y-87338855D01*
X99884001Y-87307865D01*
X99844646Y-87299500D01*
X99655354Y-87299500D01*
X99622897Y-87306398D01*
X99470197Y-87338855D01*
X99470192Y-87338857D01*
X99297270Y-87415848D01*
X99297265Y-87415851D01*
X99144129Y-87527111D01*
X99017466Y-87667785D01*
X98922821Y-87831715D01*
X98922818Y-87831722D01*
X98873921Y-87982214D01*
X98864326Y-88011744D01*
X98844540Y-88200000D01*
X98864326Y-88388256D01*
X98864327Y-88388259D01*
X98922818Y-88568277D01*
X98922821Y-88568284D01*
X99017467Y-88732216D01*
X99110814Y-88835888D01*
X99144129Y-88872888D01*
X99297265Y-88984148D01*
X99297270Y-88984151D01*
X99470192Y-89061142D01*
X99470197Y-89061144D01*
X99655354Y-89100500D01*
X99655355Y-89100500D01*
X99844644Y-89100500D01*
X99844646Y-89100500D01*
X100029803Y-89061144D01*
X100202730Y-88984151D01*
X100355871Y-88872888D01*
X100358788Y-88869647D01*
X100361600Y-88866526D01*
X100421087Y-88829879D01*
X100453748Y-88825500D01*
X100939548Y-88825500D01*
X101006587Y-88845185D01*
X101027229Y-88861819D01*
X103163181Y-90997771D01*
X103196666Y-91059094D01*
X103199500Y-91085452D01*
X103199500Y-96100500D01*
X103179815Y-96167539D01*
X103127011Y-96213294D01*
X103075500Y-96224500D01*
X92660453Y-96224500D01*
X92593414Y-96204815D01*
X92572772Y-96188181D01*
X92438960Y-96054369D01*
X92405475Y-95993046D01*
X92403323Y-95979668D01*
X92385674Y-95811744D01*
X92327179Y-95631716D01*
X92232533Y-95467784D01*
X92105871Y-95327112D01*
X92105870Y-95327111D01*
X91952734Y-95215851D01*
X91952729Y-95215848D01*
X91779807Y-95138857D01*
X91779802Y-95138855D01*
X91634001Y-95107865D01*
X91594646Y-95099500D01*
X91405354Y-95099500D01*
X91372897Y-95106398D01*
X91220197Y-95138855D01*
X91220192Y-95138857D01*
X91047270Y-95215848D01*
X91047265Y-95215851D01*
X90894129Y-95327111D01*
X90767466Y-95467785D01*
X90672821Y-95631715D01*
X90672819Y-95631719D01*
X90617479Y-95802039D01*
X90587229Y-95851401D01*
X89275452Y-97163180D01*
X89214129Y-97196665D01*
X89187771Y-97199499D01*
X87012228Y-97199499D01*
X86945189Y-97179814D01*
X86924547Y-97163180D01*
X84886819Y-95125451D01*
X84853334Y-95064128D01*
X84850500Y-95037770D01*
X84850500Y-94600000D01*
X86544542Y-94600000D01*
X86564328Y-94788256D01*
X86564329Y-94788259D01*
X86622820Y-94968277D01*
X86622823Y-94968284D01*
X86717469Y-95132216D01*
X86819187Y-95245185D01*
X86844131Y-95272888D01*
X86997267Y-95384148D01*
X86997272Y-95384151D01*
X87170194Y-95461142D01*
X87170199Y-95461144D01*
X87355356Y-95500500D01*
X87355357Y-95500500D01*
X87544646Y-95500500D01*
X87544648Y-95500500D01*
X87729805Y-95461144D01*
X87902732Y-95384151D01*
X88055873Y-95272888D01*
X88058790Y-95269647D01*
X88061602Y-95266526D01*
X88121089Y-95229879D01*
X88153750Y-95225500D01*
X89096252Y-95225500D01*
X89163291Y-95245185D01*
X89188400Y-95266526D01*
X89194126Y-95272885D01*
X89194130Y-95272889D01*
X89347265Y-95384148D01*
X89347270Y-95384151D01*
X89520192Y-95461142D01*
X89520197Y-95461144D01*
X89705354Y-95500500D01*
X89705355Y-95500500D01*
X89894644Y-95500500D01*
X89894646Y-95500500D01*
X90079803Y-95461144D01*
X90252730Y-95384151D01*
X90405871Y-95272888D01*
X90532533Y-95132216D01*
X90627179Y-94968284D01*
X90685674Y-94788256D01*
X90705460Y-94600000D01*
X90685674Y-94411744D01*
X90627179Y-94231716D01*
X90532533Y-94067784D01*
X90405871Y-93927112D01*
X90405870Y-93927111D01*
X90252734Y-93815851D01*
X90252729Y-93815848D01*
X90079807Y-93738857D01*
X90079802Y-93738855D01*
X89934001Y-93707865D01*
X89894646Y-93699500D01*
X89705354Y-93699500D01*
X89672897Y-93706398D01*
X89520197Y-93738855D01*
X89520192Y-93738857D01*
X89347270Y-93815848D01*
X89347265Y-93815851D01*
X89194130Y-93927110D01*
X89194126Y-93927114D01*
X89188400Y-93933474D01*
X89128913Y-93970121D01*
X89096252Y-93974500D01*
X88153750Y-93974500D01*
X88086711Y-93954815D01*
X88061602Y-93933474D01*
X88055875Y-93927114D01*
X88055871Y-93927110D01*
X87902736Y-93815851D01*
X87902731Y-93815848D01*
X87729809Y-93738857D01*
X87729804Y-93738855D01*
X87584003Y-93707865D01*
X87544648Y-93699500D01*
X87355356Y-93699500D01*
X87322899Y-93706398D01*
X87170199Y-93738855D01*
X87170194Y-93738857D01*
X86997272Y-93815848D01*
X86997267Y-93815851D01*
X86844131Y-93927111D01*
X86717468Y-94067785D01*
X86622823Y-94231715D01*
X86622820Y-94231722D01*
X86596217Y-94313599D01*
X86564328Y-94411744D01*
X86544542Y-94600000D01*
X84850500Y-94600000D01*
X84850500Y-91250000D01*
X87644540Y-91250000D01*
X87664326Y-91438256D01*
X87664327Y-91438259D01*
X87722818Y-91618277D01*
X87722821Y-91618284D01*
X87817467Y-91782216D01*
X87944129Y-91922888D01*
X88097265Y-92034148D01*
X88097270Y-92034151D01*
X88270192Y-92111142D01*
X88270197Y-92111144D01*
X88455354Y-92150500D01*
X88514546Y-92150500D01*
X88581585Y-92170185D01*
X88596430Y-92182147D01*
X88596557Y-92181993D01*
X88601264Y-92185856D01*
X88601267Y-92185858D01*
X88652490Y-92220084D01*
X88703714Y-92254312D01*
X88784207Y-92287652D01*
X88817548Y-92301463D01*
X88877971Y-92313481D01*
X88938393Y-92325500D01*
X97211607Y-92325500D01*
X97272029Y-92313481D01*
X97332452Y-92301463D01*
X97332455Y-92301461D01*
X97332458Y-92301461D01*
X97365787Y-92287654D01*
X97365786Y-92287654D01*
X97365792Y-92287652D01*
X97446286Y-92254312D01*
X97497509Y-92220084D01*
X97497511Y-92220083D01*
X97510271Y-92211556D01*
X97548733Y-92185858D01*
X97635858Y-92098733D01*
X97635859Y-92098730D01*
X98035857Y-91698734D01*
X98046405Y-91682949D01*
X98104311Y-91596286D01*
X98151463Y-91482452D01*
X98162136Y-91428796D01*
X98171534Y-91381545D01*
X98201001Y-91322766D01*
X98231096Y-91289342D01*
X98282533Y-91232216D01*
X98377179Y-91068284D01*
X98435674Y-90888256D01*
X98455460Y-90700000D01*
X98435674Y-90511744D01*
X98377179Y-90331716D01*
X98282533Y-90167784D01*
X98155871Y-90027112D01*
X98155870Y-90027111D01*
X98002734Y-89915851D01*
X98002729Y-89915848D01*
X97829807Y-89838857D01*
X97829802Y-89838855D01*
X97684001Y-89807865D01*
X97644646Y-89799500D01*
X97455354Y-89799500D01*
X97422897Y-89806398D01*
X97270197Y-89838855D01*
X97270192Y-89838857D01*
X97097270Y-89915848D01*
X97097265Y-89915851D01*
X96944129Y-90027111D01*
X96817466Y-90167785D01*
X96722821Y-90331715D01*
X96722818Y-90331722D01*
X96667979Y-90500500D01*
X96664326Y-90511744D01*
X96644540Y-90700000D01*
X96664326Y-90888256D01*
X96664327Y-90888259D01*
X96672100Y-90912182D01*
X96674095Y-90982023D01*
X96638015Y-91041856D01*
X96575314Y-91072684D01*
X96554169Y-91074500D01*
X89529910Y-91074500D01*
X89462871Y-91054815D01*
X89417116Y-91002011D01*
X89411979Y-90988818D01*
X89377181Y-90881722D01*
X89377180Y-90881721D01*
X89377179Y-90881716D01*
X89282533Y-90717784D01*
X89155871Y-90577112D01*
X89155870Y-90577111D01*
X89002734Y-90465851D01*
X89002729Y-90465848D01*
X88829807Y-90388857D01*
X88829802Y-90388855D01*
X88684001Y-90357865D01*
X88644646Y-90349500D01*
X88455354Y-90349500D01*
X88422897Y-90356398D01*
X88270197Y-90388855D01*
X88270192Y-90388857D01*
X88097270Y-90465848D01*
X88097265Y-90465851D01*
X87944129Y-90577111D01*
X87817466Y-90717785D01*
X87722821Y-90881715D01*
X87722818Y-90881722D01*
X87673311Y-91034090D01*
X87664326Y-91061744D01*
X87644540Y-91250000D01*
X84850500Y-91250000D01*
X84850500Y-91226079D01*
X84821659Y-91081092D01*
X84821658Y-91081091D01*
X84821658Y-91081087D01*
X84765084Y-90944505D01*
X84702785Y-90851267D01*
X84702785Y-90851266D01*
X84702783Y-90851265D01*
X84682952Y-90821584D01*
X83528307Y-89666939D01*
X83505653Y-89630869D01*
X83503813Y-89631756D01*
X83500792Y-89625484D01*
X83500789Y-89625480D01*
X83500789Y-89625478D01*
X83404816Y-89472738D01*
X83277262Y-89345184D01*
X83224468Y-89312011D01*
X83124523Y-89249211D01*
X82954254Y-89189631D01*
X82954249Y-89189630D01*
X82775004Y-89169435D01*
X82774994Y-89169435D01*
X82766283Y-89170416D01*
X82697462Y-89158357D01*
X82646085Y-89111005D01*
X82628465Y-89043394D01*
X82630790Y-89023002D01*
X82633546Y-89009151D01*
X82648599Y-88933474D01*
X82650500Y-88923919D01*
X82650500Y-87300000D01*
X87487740Y-87300000D01*
X87507526Y-87488256D01*
X87507527Y-87488259D01*
X87566018Y-87668277D01*
X87566020Y-87668282D01*
X87566021Y-87668284D01*
X87660667Y-87832216D01*
X87758446Y-87940810D01*
X87787329Y-87972888D01*
X87940465Y-88084148D01*
X87940470Y-88084151D01*
X88113392Y-88161142D01*
X88113397Y-88161144D01*
X88298554Y-88200500D01*
X88298555Y-88200500D01*
X88487844Y-88200500D01*
X88487846Y-88200500D01*
X88673003Y-88161144D01*
X88845930Y-88084151D01*
X88999071Y-87972888D01*
X89001988Y-87969647D01*
X89004800Y-87966526D01*
X89064287Y-87929879D01*
X89096948Y-87925500D01*
X90496252Y-87925500D01*
X90563291Y-87945185D01*
X90588400Y-87966526D01*
X90594126Y-87972885D01*
X90594130Y-87972889D01*
X90747265Y-88084148D01*
X90747270Y-88084151D01*
X90920192Y-88161142D01*
X90920197Y-88161144D01*
X91105354Y-88200500D01*
X91105355Y-88200500D01*
X91294644Y-88200500D01*
X91294646Y-88200500D01*
X91479803Y-88161144D01*
X91652730Y-88084151D01*
X91805871Y-87972888D01*
X91932533Y-87832216D01*
X92027179Y-87668284D01*
X92085674Y-87488256D01*
X92105460Y-87300000D01*
X92085674Y-87111744D01*
X92027179Y-86931716D01*
X91932533Y-86767784D01*
X91805871Y-86627112D01*
X91805870Y-86627111D01*
X91652734Y-86515851D01*
X91652729Y-86515848D01*
X91479807Y-86438857D01*
X91479802Y-86438855D01*
X91334001Y-86407865D01*
X91294646Y-86399500D01*
X91105354Y-86399500D01*
X91072897Y-86406398D01*
X90920197Y-86438855D01*
X90920192Y-86438857D01*
X90747270Y-86515848D01*
X90747265Y-86515851D01*
X90594130Y-86627110D01*
X90594126Y-86627114D01*
X90588400Y-86633474D01*
X90528913Y-86670121D01*
X90496252Y-86674500D01*
X89096948Y-86674500D01*
X89029909Y-86654815D01*
X89004800Y-86633474D01*
X88999073Y-86627114D01*
X88999069Y-86627110D01*
X88845934Y-86515851D01*
X88845929Y-86515848D01*
X88673007Y-86438857D01*
X88673002Y-86438855D01*
X88527201Y-86407865D01*
X88487846Y-86399500D01*
X88298554Y-86399500D01*
X88266097Y-86406398D01*
X88113397Y-86438855D01*
X88113392Y-86438857D01*
X87940470Y-86515848D01*
X87940465Y-86515851D01*
X87787329Y-86627111D01*
X87660666Y-86767785D01*
X87566021Y-86931715D01*
X87566018Y-86931722D01*
X87507527Y-87111740D01*
X87507526Y-87111744D01*
X87487740Y-87300000D01*
X82650500Y-87300000D01*
X82650500Y-86112228D01*
X82670185Y-86045189D01*
X82686815Y-86024551D01*
X83502770Y-85208595D01*
X83564091Y-85175112D01*
X83564427Y-85175039D01*
X83629803Y-85161144D01*
X83802730Y-85084151D01*
X83955871Y-84972888D01*
X84082533Y-84832216D01*
X84177179Y-84668284D01*
X84232522Y-84497955D01*
X84262769Y-84448597D01*
X84974548Y-83736819D01*
X85035871Y-83703334D01*
X85062229Y-83700500D01*
X91037770Y-83700500D01*
X91104809Y-83720185D01*
X91125451Y-83736819D01*
X92421580Y-85032948D01*
X92421584Y-85032951D01*
X92544498Y-85115080D01*
X92544511Y-85115087D01*
X92655704Y-85161144D01*
X92681087Y-85171658D01*
X92681091Y-85171658D01*
X92681092Y-85171659D01*
X92826079Y-85200500D01*
X92826082Y-85200500D01*
X92973917Y-85200500D01*
X94660663Y-85200500D01*
X94727702Y-85220185D01*
X94733548Y-85224182D01*
X94747265Y-85234148D01*
X94747270Y-85234151D01*
X94920192Y-85311142D01*
X94920197Y-85311144D01*
X95105354Y-85350500D01*
X95105355Y-85350500D01*
X95294644Y-85350500D01*
X95294646Y-85350500D01*
X95479803Y-85311144D01*
X95652730Y-85234151D01*
X95805871Y-85122888D01*
X95808788Y-85119647D01*
X95811600Y-85116526D01*
X95871087Y-85079879D01*
X95903748Y-85075500D01*
X105067166Y-85075500D01*
X105134205Y-85095185D01*
X105179960Y-85147989D01*
X105191166Y-85199500D01*
X105191166Y-88901312D01*
X105171481Y-88968351D01*
X105159316Y-88984284D01*
X105084132Y-89067784D01*
X104989487Y-89231715D01*
X104989484Y-89231722D01*
X104946240Y-89364815D01*
X104930992Y-89411744D01*
X104911206Y-89600000D01*
X104930992Y-89788256D01*
X104930993Y-89788259D01*
X104989484Y-89968277D01*
X104989487Y-89968284D01*
X105084133Y-90132216D01*
X105185851Y-90245185D01*
X105210795Y-90272888D01*
X105363931Y-90384148D01*
X105363936Y-90384151D01*
X105536858Y-90461142D01*
X105536863Y-90461144D01*
X105722020Y-90500500D01*
X105722021Y-90500500D01*
X105911310Y-90500500D01*
X105911312Y-90500500D01*
X106096469Y-90461144D01*
X106269396Y-90384151D01*
X106422537Y-90272888D01*
X106425454Y-90269647D01*
X106428266Y-90266526D01*
X106487753Y-90229879D01*
X106520414Y-90225500D01*
X111212918Y-90225500D01*
X111279957Y-90245185D01*
X111305066Y-90266526D01*
X111310792Y-90272885D01*
X111310796Y-90272889D01*
X111463931Y-90384148D01*
X111463936Y-90384151D01*
X111636858Y-90461142D01*
X111636863Y-90461144D01*
X111822020Y-90500500D01*
X111822021Y-90500500D01*
X112011310Y-90500500D01*
X112011312Y-90500500D01*
X112196469Y-90461144D01*
X112369396Y-90384151D01*
X112522537Y-90272888D01*
X112649199Y-90132216D01*
X112743845Y-89968284D01*
X112802340Y-89788256D01*
X112822126Y-89600000D01*
X112802340Y-89411744D01*
X112745604Y-89237129D01*
X112743847Y-89231722D01*
X112743846Y-89231721D01*
X112743845Y-89231716D01*
X112649199Y-89067784D01*
X112522537Y-88927112D01*
X112522536Y-88927111D01*
X112369400Y-88815851D01*
X112369395Y-88815848D01*
X112196473Y-88738857D01*
X112196468Y-88738855D01*
X112045901Y-88706852D01*
X112011312Y-88699500D01*
X111822020Y-88699500D01*
X111789563Y-88706398D01*
X111636863Y-88738855D01*
X111636858Y-88738857D01*
X111463936Y-88815848D01*
X111463931Y-88815851D01*
X111310796Y-88927110D01*
X111310792Y-88927114D01*
X111305066Y-88933474D01*
X111245579Y-88970121D01*
X111212918Y-88974500D01*
X106566166Y-88974500D01*
X106499127Y-88954815D01*
X106453372Y-88902011D01*
X106442166Y-88850500D01*
X106442166Y-87450000D01*
X116494540Y-87450000D01*
X116514326Y-87638256D01*
X116514327Y-87638259D01*
X116572818Y-87818277D01*
X116572821Y-87818284D01*
X116667467Y-87982216D01*
X116732869Y-88054852D01*
X116794129Y-88122888D01*
X116947265Y-88234148D01*
X116947270Y-88234151D01*
X117120192Y-88311142D01*
X117120197Y-88311144D01*
X117305354Y-88350500D01*
X117305355Y-88350500D01*
X117494644Y-88350500D01*
X117494646Y-88350500D01*
X117679803Y-88311144D01*
X117852730Y-88234151D01*
X118005871Y-88122888D01*
X118132533Y-87982216D01*
X118227179Y-87818284D01*
X118282522Y-87647956D01*
X118312768Y-87598598D01*
X119444549Y-86466819D01*
X119505872Y-86433334D01*
X119532230Y-86430500D01*
X124270755Y-86430500D01*
X124337794Y-86450185D01*
X124383549Y-86502989D01*
X124386937Y-86511167D01*
X124395202Y-86533328D01*
X124395206Y-86533335D01*
X124481452Y-86648544D01*
X124481455Y-86648547D01*
X124596664Y-86734793D01*
X124596671Y-86734797D01*
X124731517Y-86785091D01*
X124731516Y-86785091D01*
X124738444Y-86785835D01*
X124791127Y-86791500D01*
X126108872Y-86791499D01*
X126168483Y-86785091D01*
X126303331Y-86734796D01*
X126418546Y-86648546D01*
X126504796Y-86533331D01*
X126555091Y-86398483D01*
X126561500Y-86338873D01*
X126561499Y-85021128D01*
X126555091Y-84961517D01*
X126543149Y-84929500D01*
X126504797Y-84826671D01*
X126504793Y-84826664D01*
X126418547Y-84711455D01*
X126418544Y-84711452D01*
X126303335Y-84625206D01*
X126303328Y-84625202D01*
X126168482Y-84574908D01*
X126168483Y-84574908D01*
X126108883Y-84568501D01*
X126108881Y-84568500D01*
X126108873Y-84568500D01*
X126108864Y-84568500D01*
X124791129Y-84568500D01*
X124791123Y-84568501D01*
X124731516Y-84574908D01*
X124596671Y-84625202D01*
X124596664Y-84625206D01*
X124481455Y-84711452D01*
X124481452Y-84711455D01*
X124395206Y-84826664D01*
X124395202Y-84826671D01*
X124386937Y-84848833D01*
X124345066Y-84904767D01*
X124279602Y-84929184D01*
X124270755Y-84929500D01*
X119096080Y-84929500D01*
X118951092Y-84958340D01*
X118951086Y-84958342D01*
X118814508Y-85014914D01*
X118814496Y-85014921D01*
X118765269Y-85047813D01*
X118691588Y-85097044D01*
X118691580Y-85097050D01*
X117247228Y-86541402D01*
X117185905Y-86574887D01*
X117185329Y-86575011D01*
X117120196Y-86588856D01*
X117120192Y-86588857D01*
X116947270Y-86665848D01*
X116947265Y-86665851D01*
X116794129Y-86777111D01*
X116667466Y-86917785D01*
X116572821Y-87081715D01*
X116572818Y-87081722D01*
X116518304Y-87249500D01*
X116514326Y-87261744D01*
X116494540Y-87450000D01*
X106442166Y-87450000D01*
X106442166Y-84705059D01*
X106442165Y-84705055D01*
X106434850Y-84668278D01*
X106418129Y-84584214D01*
X106370977Y-84470380D01*
X106370976Y-84470379D01*
X106370973Y-84470373D01*
X106302525Y-84367934D01*
X106302524Y-84367933D01*
X106215399Y-84280808D01*
X106215398Y-84280807D01*
X105992927Y-84058337D01*
X105992925Y-84058334D01*
X105992925Y-84058335D01*
X105985858Y-84051268D01*
X105985858Y-84051267D01*
X105898733Y-83964142D01*
X105845265Y-83928416D01*
X105845266Y-83928416D01*
X105845264Y-83928414D01*
X105796290Y-83895690D01*
X105796286Y-83895688D01*
X105787433Y-83892021D01*
X105712888Y-83861144D01*
X105712886Y-83861142D01*
X105682455Y-83848538D01*
X105682453Y-83848537D01*
X105682452Y-83848537D01*
X105622029Y-83836518D01*
X105611154Y-83834355D01*
X105570022Y-83826173D01*
X105508111Y-83793788D01*
X105473537Y-83733072D01*
X105477278Y-83663302D01*
X105502062Y-83621587D01*
X105582533Y-83532216D01*
X105677179Y-83368284D01*
X105735674Y-83188256D01*
X105755460Y-83000000D01*
X105735674Y-82811744D01*
X105677179Y-82631716D01*
X105582533Y-82467784D01*
X105455871Y-82327112D01*
X105455870Y-82327111D01*
X105302734Y-82215851D01*
X105302729Y-82215848D01*
X105129807Y-82138857D01*
X105129802Y-82138855D01*
X104984001Y-82107865D01*
X104944646Y-82099500D01*
X104944645Y-82099500D01*
X104885452Y-82099500D01*
X104818413Y-82079815D01*
X104797771Y-82063181D01*
X103590198Y-80855608D01*
X103590178Y-80855586D01*
X103498736Y-80764144D01*
X103498732Y-80764141D01*
X103431042Y-80718912D01*
X103396286Y-80695688D01*
X103396287Y-80695688D01*
X103396285Y-80695687D01*
X103354587Y-80678416D01*
X103312888Y-80661144D01*
X103312886Y-80661142D01*
X103282455Y-80648538D01*
X103282453Y-80648537D01*
X103282452Y-80648537D01*
X103222029Y-80636518D01*
X103161610Y-80624500D01*
X103161607Y-80624500D01*
X103161606Y-80624500D01*
X103153748Y-80624500D01*
X103086709Y-80604815D01*
X103061600Y-80583474D01*
X103055873Y-80577114D01*
X103055869Y-80577110D01*
X102902734Y-80465851D01*
X102902729Y-80465848D01*
X102729807Y-80388857D01*
X102729803Y-80388856D01*
X102677682Y-80377777D01*
X102616201Y-80344584D01*
X102582424Y-80283421D01*
X102587078Y-80213706D01*
X102615781Y-80168808D01*
X102644589Y-80140000D01*
X111654723Y-80140000D01*
X111673051Y-80349500D01*
X111673793Y-80357975D01*
X111673793Y-80357979D01*
X111730422Y-80569322D01*
X111730424Y-80569326D01*
X111730425Y-80569330D01*
X111773518Y-80661744D01*
X111822897Y-80767638D01*
X111835184Y-80785185D01*
X111948402Y-80946877D01*
X112103123Y-81101598D01*
X112282361Y-81227102D01*
X112480670Y-81319575D01*
X112692023Y-81376207D01*
X112874926Y-81392208D01*
X112909998Y-81395277D01*
X112910000Y-81395277D01*
X112910002Y-81395277D01*
X112938254Y-81392805D01*
X113127977Y-81376207D01*
X113339330Y-81319575D01*
X113537639Y-81227102D01*
X113716877Y-81101598D01*
X113871598Y-80946877D01*
X113961575Y-80818375D01*
X114016151Y-80774752D01*
X114063149Y-80765500D01*
X116599548Y-80765500D01*
X116666587Y-80785185D01*
X116687229Y-80801819D01*
X119511263Y-83625855D01*
X119511267Y-83625858D01*
X119613712Y-83694310D01*
X119613711Y-83694310D01*
X119613713Y-83694311D01*
X119613715Y-83694312D01*
X119654350Y-83711143D01*
X119654351Y-83711144D01*
X119654352Y-83711144D01*
X119727548Y-83741463D01*
X119747597Y-83745451D01*
X119769732Y-83749854D01*
X119848392Y-83765501D01*
X119848394Y-83765501D01*
X119977721Y-83765501D01*
X119977741Y-83765500D01*
X121927783Y-83765500D01*
X121994822Y-83785185D01*
X122026737Y-83814773D01*
X122085072Y-83892021D01*
X122237302Y-84030796D01*
X122412439Y-84139237D01*
X122604520Y-84213649D01*
X122807004Y-84251500D01*
X122807006Y-84251500D01*
X123012994Y-84251500D01*
X123012996Y-84251500D01*
X123215480Y-84213649D01*
X123407561Y-84139237D01*
X123582698Y-84030796D01*
X123734928Y-83892021D01*
X123859065Y-83727636D01*
X123928169Y-83588856D01*
X123950882Y-83543243D01*
X123951406Y-83541402D01*
X124007256Y-83345113D01*
X124026262Y-83140000D01*
X124007256Y-82934887D01*
X123950883Y-82736760D01*
X123950882Y-82736756D01*
X123859068Y-82552370D01*
X123859067Y-82552369D01*
X123859065Y-82552364D01*
X123734928Y-82387979D01*
X123582698Y-82249204D01*
X123407561Y-82140763D01*
X123407560Y-82140762D01*
X123250235Y-82079815D01*
X123215480Y-82066351D01*
X123012996Y-82028500D01*
X122807004Y-82028500D01*
X122604520Y-82066351D01*
X122604517Y-82066351D01*
X122604517Y-82066352D01*
X122412439Y-82140762D01*
X122412438Y-82140763D01*
X122237306Y-82249201D01*
X122237304Y-82249202D01*
X122237302Y-82249204D01*
X122108028Y-82367052D01*
X122085071Y-82387980D01*
X122026737Y-82465227D01*
X121970628Y-82506863D01*
X121927783Y-82514500D01*
X120220453Y-82514500D01*
X120153414Y-82494815D01*
X120132772Y-82478181D01*
X117402928Y-79748338D01*
X117402925Y-79748334D01*
X117402925Y-79748335D01*
X117395858Y-79741268D01*
X117395858Y-79741267D01*
X117308733Y-79654142D01*
X117245280Y-79611744D01*
X117245281Y-79611744D01*
X117245279Y-79611742D01*
X117206290Y-79585690D01*
X117206286Y-79585688D01*
X117125792Y-79552347D01*
X117092453Y-79538537D01*
X117082427Y-79536543D01*
X117032029Y-79526518D01*
X116971610Y-79514500D01*
X116971607Y-79514500D01*
X116971606Y-79514500D01*
X114063150Y-79514500D01*
X113996111Y-79494815D01*
X113961575Y-79461623D01*
X113871599Y-79333124D01*
X113806259Y-79267784D01*
X113716877Y-79178402D01*
X113537639Y-79052898D01*
X113537640Y-79052898D01*
X113537638Y-79052897D01*
X113420847Y-78998437D01*
X113339330Y-78960425D01*
X113339326Y-78960424D01*
X113339322Y-78960422D01*
X113127977Y-78903793D01*
X112910002Y-78884723D01*
X112909998Y-78884723D01*
X112764682Y-78897436D01*
X112692023Y-78903793D01*
X112692020Y-78903793D01*
X112480677Y-78960422D01*
X112480668Y-78960426D01*
X112282361Y-79052898D01*
X112282357Y-79052900D01*
X112103121Y-79178402D01*
X111948402Y-79333121D01*
X111822900Y-79512357D01*
X111822898Y-79512361D01*
X111730426Y-79710668D01*
X111730422Y-79710677D01*
X111673793Y-79922020D01*
X111673793Y-79922024D01*
X111655448Y-80131716D01*
X111654723Y-80140000D01*
X102644589Y-80140000D01*
X109997771Y-72786819D01*
X110059094Y-72753334D01*
X110085452Y-72750500D01*
X111346252Y-72750500D01*
X111413291Y-72770185D01*
X111438400Y-72791526D01*
X111444126Y-72797885D01*
X111444130Y-72797889D01*
X111597265Y-72909148D01*
X111597270Y-72909151D01*
X111770192Y-72986142D01*
X111770197Y-72986144D01*
X111955354Y-73025500D01*
X111955355Y-73025500D01*
X112144644Y-73025500D01*
X112144646Y-73025500D01*
X112329803Y-72986144D01*
X112502730Y-72909151D01*
X112655871Y-72797888D01*
X112782533Y-72657216D01*
X112877179Y-72493284D01*
X112935674Y-72313256D01*
X112955460Y-72125000D01*
X112935674Y-71936744D01*
X112877179Y-71756716D01*
X112782533Y-71592784D01*
X112655871Y-71452112D01*
X112655870Y-71452111D01*
X112502734Y-71340851D01*
X112502729Y-71340848D01*
X112329807Y-71263857D01*
X112329802Y-71263855D01*
X112184001Y-71232865D01*
X112144646Y-71224500D01*
X111955354Y-71224500D01*
X111922897Y-71231398D01*
X111770197Y-71263855D01*
X111770192Y-71263857D01*
X111597270Y-71340848D01*
X111597265Y-71340851D01*
X111444130Y-71452110D01*
X111444126Y-71452114D01*
X111438400Y-71458474D01*
X111378913Y-71495121D01*
X111346252Y-71499500D01*
X109713389Y-71499500D01*
X109652971Y-71511518D01*
X109615259Y-71519019D01*
X109592550Y-71523536D01*
X109592548Y-71523537D01*
X109559207Y-71537347D01*
X109478718Y-71570685D01*
X109478709Y-71570690D01*
X109435596Y-71599499D01*
X109435595Y-71599500D01*
X109376268Y-71639140D01*
X109335682Y-71679727D01*
X109289142Y-71726267D01*
X109289139Y-71726270D01*
X100752229Y-80263181D01*
X100690906Y-80296666D01*
X100664548Y-80299500D01*
X100605354Y-80299500D01*
X100593409Y-80302039D01*
X100420197Y-80338855D01*
X100420192Y-80338857D01*
X100374936Y-80359007D01*
X100305686Y-80368292D01*
X100242409Y-80338664D01*
X100205196Y-80279529D01*
X100200500Y-80245728D01*
X100200500Y-75197921D01*
X100217113Y-75135921D01*
X100277179Y-75031884D01*
X100332522Y-74861555D01*
X100362769Y-74812197D01*
X108238148Y-66936819D01*
X108299471Y-66903334D01*
X108325829Y-66900500D01*
X116323920Y-66900500D01*
X116421462Y-66881096D01*
X116468913Y-66871658D01*
X116605495Y-66815084D01*
X116660186Y-66778541D01*
X116728416Y-66732952D01*
X120624548Y-62836818D01*
X120685871Y-62803334D01*
X120712229Y-62800500D01*
X121013512Y-62800500D01*
X121080551Y-62820185D01*
X121126306Y-62872989D01*
X121136250Y-62942147D01*
X121112779Y-62998811D01*
X121076204Y-63047668D01*
X121076202Y-63047671D01*
X121025908Y-63182517D01*
X121019501Y-63242116D01*
X121019500Y-63242135D01*
X121019500Y-63390500D01*
X120999815Y-63457539D01*
X120947011Y-63503294D01*
X120895500Y-63514500D01*
X120652741Y-63514500D01*
X120652721Y-63514499D01*
X120646607Y-63514499D01*
X120523394Y-63514499D01*
X120422597Y-63534548D01*
X120422592Y-63534548D01*
X120402550Y-63538536D01*
X120402548Y-63538537D01*
X120356087Y-63557782D01*
X120288711Y-63585689D01*
X120186267Y-63654141D01*
X120186263Y-63654144D01*
X119784551Y-64055858D01*
X119707703Y-64132706D01*
X119707701Y-64132708D01*
X119664138Y-64176270D01*
X119620576Y-64219832D01*
X119588352Y-64268059D01*
X119588351Y-64268058D01*
X119552123Y-64322277D01*
X119552119Y-64322284D01*
X119518781Y-64402772D01*
X119518781Y-64402773D01*
X119504971Y-64436114D01*
X119504969Y-64436120D01*
X119494493Y-64488782D01*
X119494494Y-64488783D01*
X119481583Y-64553699D01*
X119481579Y-64553720D01*
X119480934Y-64556959D01*
X119480934Y-69198624D01*
X119461249Y-69265663D01*
X119449084Y-69281596D01*
X119373900Y-69365096D01*
X119279255Y-69529027D01*
X119279252Y-69529034D01*
X119220761Y-69709052D01*
X119220760Y-69709056D01*
X119200974Y-69897312D01*
X119220760Y-70085568D01*
X119220761Y-70085571D01*
X119279252Y-70265589D01*
X119279255Y-70265596D01*
X119373901Y-70429528D01*
X119486932Y-70555061D01*
X119500563Y-70570200D01*
X119653699Y-70681460D01*
X119653704Y-70681463D01*
X119826626Y-70758454D01*
X119826631Y-70758456D01*
X120011788Y-70797812D01*
X120011789Y-70797812D01*
X120201078Y-70797812D01*
X120201080Y-70797812D01*
X120386237Y-70758456D01*
X120559164Y-70681463D01*
X120712305Y-70570200D01*
X120838967Y-70429528D01*
X120886472Y-70347245D01*
X120937038Y-70299031D01*
X121005645Y-70285807D01*
X121070510Y-70311775D01*
X121093123Y-70334932D01*
X121162454Y-70427546D01*
X121165102Y-70429528D01*
X121277664Y-70513793D01*
X121277671Y-70513797D01*
X121412517Y-70564091D01*
X121412516Y-70564091D01*
X121419444Y-70564835D01*
X121472127Y-70570500D01*
X123267872Y-70570499D01*
X123327483Y-70564091D01*
X123462331Y-70513796D01*
X123577546Y-70427546D01*
X123663796Y-70312331D01*
X123712810Y-70180916D01*
X123754681Y-70124984D01*
X123820145Y-70100566D01*
X123888418Y-70115417D01*
X123916673Y-70136569D01*
X124038599Y-70258495D01*
X124135384Y-70326265D01*
X124232165Y-70394032D01*
X124232167Y-70394033D01*
X124232170Y-70394035D01*
X124446337Y-70493903D01*
X124446343Y-70493904D01*
X124446344Y-70493905D01*
X124501285Y-70508626D01*
X124674592Y-70555063D01*
X124851034Y-70570500D01*
X124909999Y-70575659D01*
X124910000Y-70575659D01*
X124910001Y-70575659D01*
X124968966Y-70570500D01*
X125145408Y-70555063D01*
X125373663Y-70493903D01*
X125587830Y-70394035D01*
X125781401Y-70258495D01*
X125948495Y-70091401D01*
X126078424Y-69905842D01*
X126133001Y-69862218D01*
X126202499Y-69855024D01*
X126264854Y-69886547D01*
X126281574Y-69905842D01*
X126411504Y-70091401D01*
X126578598Y-70258495D01*
X126771623Y-70393653D01*
X126815247Y-70448228D01*
X126824499Y-70495226D01*
X126824499Y-74814548D01*
X126804814Y-74881587D01*
X126788180Y-74902229D01*
X126052229Y-75638181D01*
X125990906Y-75671666D01*
X125964548Y-75674500D01*
X124077739Y-75674500D01*
X124010700Y-75654815D01*
X123964945Y-75602011D01*
X123955001Y-75532853D01*
X123958473Y-75516565D01*
X123985581Y-75421290D01*
X124007256Y-75345113D01*
X124026262Y-75140000D01*
X124007256Y-74934887D01*
X123956774Y-74757465D01*
X123950882Y-74736756D01*
X123859068Y-74552370D01*
X123859067Y-74552369D01*
X123859065Y-74552364D01*
X123734928Y-74387979D01*
X123582698Y-74249204D01*
X123407561Y-74140763D01*
X123407560Y-74140762D01*
X123239096Y-74075500D01*
X123215480Y-74066351D01*
X123012996Y-74028500D01*
X122807004Y-74028500D01*
X122604520Y-74066351D01*
X122604517Y-74066351D01*
X122604517Y-74066352D01*
X122412439Y-74140762D01*
X122412438Y-74140763D01*
X122237306Y-74249201D01*
X122237304Y-74249202D01*
X122237302Y-74249204D01*
X122120879Y-74355337D01*
X122085071Y-74387980D01*
X122026737Y-74465227D01*
X121970628Y-74506863D01*
X121927783Y-74514500D01*
X113977741Y-74514500D01*
X113977721Y-74514499D01*
X113971607Y-74514499D01*
X113848394Y-74514499D01*
X113747597Y-74534548D01*
X113747592Y-74534548D01*
X113727551Y-74538535D01*
X113705970Y-74547474D01*
X113694167Y-74552364D01*
X113694166Y-74552364D01*
X113613721Y-74585684D01*
X113613708Y-74585691D01*
X113511267Y-74654141D01*
X113511263Y-74654144D01*
X113283996Y-74881411D01*
X113222673Y-74914896D01*
X113164222Y-74913505D01*
X113127977Y-74903793D01*
X113018988Y-74894258D01*
X112910002Y-74884723D01*
X112909998Y-74884723D01*
X112764682Y-74897436D01*
X112692023Y-74903793D01*
X112692020Y-74903793D01*
X112480677Y-74960422D01*
X112480668Y-74960426D01*
X112282361Y-75052898D01*
X112282357Y-75052900D01*
X112103121Y-75178402D01*
X111948402Y-75333121D01*
X111822900Y-75512357D01*
X111822898Y-75512361D01*
X111730426Y-75710668D01*
X111730422Y-75710677D01*
X111673793Y-75922020D01*
X111673793Y-75922024D01*
X111654723Y-76139997D01*
X111654723Y-76140002D01*
X111657910Y-76176432D01*
X111671894Y-76336276D01*
X111673793Y-76357975D01*
X111673793Y-76357979D01*
X111730422Y-76569322D01*
X111730424Y-76569326D01*
X111730425Y-76569330D01*
X111776565Y-76668277D01*
X111822897Y-76767638D01*
X111822898Y-76767639D01*
X111948402Y-76946877D01*
X112103123Y-77101598D01*
X112282361Y-77227102D01*
X112480670Y-77319575D01*
X112692023Y-77376207D01*
X112874926Y-77392208D01*
X112909998Y-77395277D01*
X112910000Y-77395277D01*
X112910002Y-77395277D01*
X112938254Y-77392805D01*
X113127977Y-77376207D01*
X113339330Y-77319575D01*
X113537639Y-77227102D01*
X113716877Y-77101598D01*
X113871598Y-76946877D01*
X113997102Y-76767639D01*
X114089575Y-76569330D01*
X114146207Y-76357977D01*
X114165277Y-76140000D01*
X114146207Y-75922023D01*
X114146092Y-75921592D01*
X114146096Y-75921397D01*
X114145266Y-75916686D01*
X114146212Y-75916519D01*
X114147755Y-75851743D01*
X114186918Y-75793880D01*
X114251147Y-75766377D01*
X114265867Y-75765500D01*
X118706156Y-75765500D01*
X118773195Y-75785185D01*
X118818950Y-75837989D01*
X118828894Y-75907147D01*
X118824087Y-75927818D01*
X118770632Y-76092335D01*
X118764326Y-76111744D01*
X118744540Y-76300000D01*
X118764326Y-76488256D01*
X118764327Y-76488259D01*
X118822818Y-76668277D01*
X118822821Y-76668284D01*
X118917467Y-76832216D01*
X119039680Y-76967947D01*
X119044129Y-76972888D01*
X119197265Y-77084148D01*
X119197270Y-77084151D01*
X119370197Y-77161144D01*
X119370200Y-77161144D01*
X119371941Y-77161711D01*
X119372822Y-77162313D01*
X119376134Y-77163788D01*
X119375864Y-77164393D01*
X119429618Y-77201146D01*
X119456818Y-77265504D01*
X119444906Y-77334351D01*
X119421306Y-77367326D01*
X119397227Y-77391404D01*
X119335904Y-77424888D01*
X119335330Y-77425011D01*
X119270196Y-77438856D01*
X119270192Y-77438857D01*
X119097270Y-77515848D01*
X119097265Y-77515851D01*
X118944129Y-77627111D01*
X118817466Y-77767785D01*
X118722821Y-77931715D01*
X118722818Y-77931722D01*
X118664327Y-78111740D01*
X118664326Y-78111744D01*
X118644540Y-78300000D01*
X118664326Y-78488256D01*
X118664327Y-78488259D01*
X118722818Y-78668277D01*
X118722821Y-78668284D01*
X118817467Y-78832216D01*
X118913487Y-78938857D01*
X118944129Y-78972888D01*
X119097265Y-79084148D01*
X119097270Y-79084151D01*
X119270192Y-79161142D01*
X119270197Y-79161144D01*
X119455354Y-79200500D01*
X119455355Y-79200500D01*
X119644644Y-79200500D01*
X119644646Y-79200500D01*
X119829803Y-79161144D01*
X120002730Y-79084151D01*
X120155871Y-78972888D01*
X120282533Y-78832216D01*
X120377179Y-78668284D01*
X120426600Y-78516181D01*
X120466037Y-78458507D01*
X120530396Y-78431308D01*
X120544531Y-78430500D01*
X124270755Y-78430500D01*
X124337794Y-78450185D01*
X124383549Y-78502989D01*
X124386937Y-78511167D01*
X124395202Y-78533328D01*
X124395206Y-78533335D01*
X124481452Y-78648544D01*
X124481455Y-78648547D01*
X124596664Y-78734793D01*
X124596671Y-78734797D01*
X124731517Y-78785091D01*
X124731516Y-78785091D01*
X124738444Y-78785835D01*
X124791127Y-78791500D01*
X126108872Y-78791499D01*
X126168483Y-78785091D01*
X126303331Y-78734796D01*
X126418546Y-78648546D01*
X126504796Y-78533331D01*
X126555091Y-78398483D01*
X126561500Y-78338873D01*
X126561499Y-77021128D01*
X126555091Y-76961517D01*
X126554262Y-76953804D01*
X126555671Y-76953652D01*
X126558957Y-76892299D01*
X126599820Y-76835625D01*
X126606988Y-76830455D01*
X126622509Y-76820084D01*
X126673733Y-76785858D01*
X126760858Y-76698733D01*
X126760858Y-76698731D01*
X126771066Y-76688524D01*
X126771067Y-76688521D01*
X127935857Y-75523734D01*
X128004311Y-75421286D01*
X128031931Y-75354604D01*
X128035863Y-75345113D01*
X128051460Y-75307457D01*
X128051462Y-75307453D01*
X128064017Y-75244334D01*
X128069758Y-75215470D01*
X128075500Y-75186608D01*
X128075500Y-75058284D01*
X128075499Y-75058258D01*
X128075499Y-70495226D01*
X128095184Y-70428187D01*
X128128373Y-70393654D01*
X128321400Y-70258495D01*
X128488494Y-70091401D01*
X128624034Y-69897830D01*
X128723902Y-69683663D01*
X128785062Y-69455408D01*
X128805658Y-69220000D01*
X128802788Y-69187202D01*
X128795203Y-69100500D01*
X128785062Y-68984592D01*
X128723902Y-68756337D01*
X128624034Y-68542171D01*
X128618424Y-68534158D01*
X128488493Y-68348597D01*
X128321401Y-68181506D01*
X128321395Y-68181501D01*
X128135841Y-68051575D01*
X128092216Y-67996998D01*
X128085022Y-67927500D01*
X128116545Y-67865145D01*
X128135841Y-67848425D01*
X128244514Y-67772331D01*
X128321400Y-67718495D01*
X128488494Y-67551401D01*
X128624034Y-67357830D01*
X128723902Y-67143663D01*
X128785062Y-66915408D01*
X128805658Y-66680000D01*
X128785062Y-66444592D01*
X128723902Y-66216337D01*
X128624034Y-66002171D01*
X128618424Y-65994158D01*
X128488493Y-65808597D01*
X128321401Y-65641506D01*
X128321395Y-65641501D01*
X128135841Y-65511575D01*
X128092216Y-65456998D01*
X128085022Y-65387500D01*
X128116545Y-65325145D01*
X128135841Y-65308425D01*
X128237973Y-65236911D01*
X128321400Y-65178495D01*
X128488494Y-65011401D01*
X128624034Y-64817830D01*
X128723902Y-64603663D01*
X128785062Y-64375408D01*
X128805658Y-64140000D01*
X128785062Y-63904592D01*
X128723902Y-63676337D01*
X128624034Y-63462171D01*
X128618424Y-63454158D01*
X128488493Y-63268597D01*
X128321403Y-63101507D01*
X128253374Y-63053872D01*
X128209750Y-62999294D01*
X128200499Y-62952298D01*
X128200499Y-62526078D01*
X128171658Y-62381091D01*
X128171657Y-62381090D01*
X128171657Y-62381086D01*
X128138070Y-62300000D01*
X128115085Y-62244508D01*
X128115084Y-62244506D01*
X128082185Y-62195269D01*
X128082184Y-62195267D01*
X128032955Y-62121588D01*
X128032951Y-62121583D01*
X127378421Y-61467052D01*
X127378420Y-61467051D01*
X127374334Y-61464321D01*
X127279192Y-61400750D01*
X127255495Y-61384916D01*
X127255493Y-61384915D01*
X127255490Y-61384913D01*
X127118917Y-61328343D01*
X127118907Y-61328340D01*
X126973920Y-61299500D01*
X126973918Y-61299500D01*
X120276082Y-61299500D01*
X120276076Y-61299500D01*
X120247242Y-61305234D01*
X120247243Y-61305235D01*
X120131093Y-61328339D01*
X120131083Y-61328342D01*
X120051081Y-61361479D01*
X120051082Y-61361480D01*
X119994506Y-61384915D01*
X119924808Y-61431486D01*
X119871582Y-61467049D01*
X119871579Y-61467052D01*
X115975451Y-65363181D01*
X115914128Y-65396666D01*
X115887770Y-65399500D01*
X107889682Y-65399500D01*
X107865496Y-65404311D01*
X107865495Y-65404311D01*
X107744695Y-65428339D01*
X107744687Y-65428341D01*
X107668257Y-65460000D01*
X107608106Y-65484915D01*
X107552500Y-65522070D01*
X107485182Y-65567049D01*
X107485179Y-65567052D01*
X99537680Y-73514550D01*
X99476357Y-73548035D01*
X99406665Y-73543051D01*
X99362317Y-73514550D01*
X99214819Y-73367051D01*
X99214818Y-73367050D01*
X99141133Y-73317816D01*
X99141133Y-73317817D01*
X99091895Y-73284917D01*
X98955321Y-73228347D01*
X98955311Y-73228344D01*
X98810324Y-73199504D01*
X98810322Y-73199504D01*
X84042376Y-73199504D01*
X83991940Y-73188783D01*
X83879807Y-73138857D01*
X83879802Y-73138855D01*
X83734001Y-73107865D01*
X83694646Y-73099500D01*
X83505354Y-73099500D01*
X83472897Y-73106398D01*
X83320197Y-73138855D01*
X83320192Y-73138857D01*
X83147270Y-73215848D01*
X83147265Y-73215851D01*
X83133548Y-73225818D01*
X83067742Y-73249298D01*
X83060663Y-73249500D01*
X81687230Y-73249500D01*
X81620191Y-73229815D01*
X81599549Y-73213181D01*
X79995651Y-71609283D01*
X79962166Y-71547960D01*
X79967150Y-71478268D01*
X80009022Y-71422335D01*
X80060542Y-71399715D01*
X80189956Y-71375524D01*
X80380137Y-71301848D01*
X80553541Y-71194481D01*
X80657929Y-71099319D01*
X80662269Y-71095363D01*
X80725073Y-71064746D01*
X80745807Y-71063000D01*
X84175270Y-71063000D01*
X84242309Y-71082685D01*
X84262951Y-71099319D01*
X84772916Y-71609283D01*
X85267049Y-72103416D01*
X85320847Y-72157214D01*
X85371585Y-72207952D01*
X85494498Y-72290080D01*
X85494511Y-72290087D01*
X85631082Y-72346656D01*
X85631087Y-72346658D01*
X85631091Y-72346658D01*
X85631092Y-72346659D01*
X85776079Y-72375500D01*
X85776082Y-72375500D01*
X92710663Y-72375500D01*
X92777702Y-72395185D01*
X92783548Y-72399182D01*
X92797265Y-72409148D01*
X92797270Y-72409151D01*
X92970192Y-72486142D01*
X92970197Y-72486144D01*
X93155354Y-72525500D01*
X93155355Y-72525500D01*
X93344644Y-72525500D01*
X93344646Y-72525500D01*
X93529803Y-72486144D01*
X93702730Y-72409151D01*
X93855871Y-72297888D01*
X93982533Y-72157216D01*
X94077179Y-71993284D01*
X94135674Y-71813256D01*
X94155460Y-71625000D01*
X94135674Y-71436744D01*
X94077179Y-71256716D01*
X93982533Y-71092784D01*
X93855871Y-70952112D01*
X93855870Y-70952111D01*
X93702734Y-70840851D01*
X93702729Y-70840848D01*
X93529807Y-70763857D01*
X93529802Y-70763855D01*
X93384001Y-70732865D01*
X93344646Y-70724500D01*
X93155354Y-70724500D01*
X93122897Y-70731398D01*
X92970197Y-70763855D01*
X92970192Y-70763857D01*
X92797270Y-70840848D01*
X92797265Y-70840851D01*
X92783548Y-70850818D01*
X92717742Y-70874298D01*
X92710663Y-70874500D01*
X86212229Y-70874500D01*
X86145190Y-70854815D01*
X86124548Y-70838181D01*
X85015921Y-69729552D01*
X85015914Y-69729546D01*
X84942229Y-69680312D01*
X84942229Y-69680313D01*
X84892991Y-69647413D01*
X84756417Y-69590843D01*
X84756407Y-69590840D01*
X84611420Y-69562000D01*
X84611418Y-69562000D01*
X80745807Y-69562000D01*
X80678768Y-69542315D01*
X80662269Y-69529637D01*
X80553541Y-69430519D01*
X80553539Y-69430517D01*
X80380142Y-69323155D01*
X80380135Y-69323151D01*
X80255705Y-69274947D01*
X80189956Y-69249476D01*
X79989476Y-69212000D01*
X79785524Y-69212000D01*
X79634239Y-69240279D01*
X79585038Y-69249477D01*
X79519293Y-69274947D01*
X79449670Y-69280808D01*
X79387930Y-69248098D01*
X79353675Y-69187202D01*
X79350500Y-69159320D01*
X79350500Y-62828898D01*
X79350499Y-62828897D01*
X79336471Y-62758370D01*
X79321659Y-62683905D01*
X79267408Y-62552934D01*
X79265765Y-62548342D01*
X79265084Y-62547322D01*
X79232186Y-62498087D01*
X79232185Y-62498085D01*
X79182956Y-62424406D01*
X79182952Y-62424401D01*
X78638534Y-61879983D01*
X78605049Y-61818660D01*
X78602744Y-61803743D01*
X78602397Y-61800004D01*
X78602398Y-61800000D01*
X78583580Y-61596917D01*
X78527765Y-61400750D01*
X78519880Y-61384915D01*
X78447970Y-61240500D01*
X78436856Y-61218179D01*
X78313947Y-61055421D01*
X78313945Y-61055418D01*
X78163224Y-60918019D01*
X78163222Y-60918017D01*
X77989825Y-60810655D01*
X77989818Y-60810651D01*
X77894729Y-60773814D01*
X77799639Y-60736976D01*
X77599159Y-60699500D01*
X77395207Y-60699500D01*
X77194727Y-60736976D01*
X77194724Y-60736976D01*
X77194724Y-60736977D01*
X77004547Y-60810651D01*
X77004540Y-60810655D01*
X76831143Y-60918017D01*
X76831141Y-60918019D01*
X76680420Y-61055418D01*
X76557510Y-61218178D01*
X76466605Y-61400739D01*
X76466600Y-61400752D01*
X76410785Y-61596917D01*
X76391968Y-61799999D01*
X76391968Y-61800000D01*
X76410785Y-62003082D01*
X76466600Y-62199247D01*
X76466605Y-62199260D01*
X76557510Y-62381821D01*
X76680420Y-62544581D01*
X76831141Y-62681980D01*
X76831143Y-62681982D01*
X76886362Y-62716172D01*
X77004546Y-62789348D01*
X77194727Y-62863024D01*
X77395207Y-62900500D01*
X77484953Y-62900500D01*
X77551992Y-62920185D01*
X77572634Y-62936819D01*
X77813181Y-63177366D01*
X77846666Y-63238689D01*
X77849500Y-63265047D01*
X77849500Y-71348918D01*
X77849500Y-71348920D01*
X77849499Y-71348920D01*
X77878340Y-71493907D01*
X77878343Y-71493917D01*
X77934914Y-71630492D01*
X77967812Y-71679727D01*
X77967813Y-71679730D01*
X78017046Y-71753414D01*
X78017052Y-71753421D01*
X80846584Y-74582952D01*
X80846586Y-74582954D01*
X80876058Y-74602645D01*
X80920270Y-74632186D01*
X80969505Y-74665084D01*
X80969506Y-74665084D01*
X80969507Y-74665085D01*
X80969509Y-74665086D01*
X81106082Y-74721656D01*
X81106087Y-74721658D01*
X81106091Y-74721658D01*
X81106092Y-74721659D01*
X81251079Y-74750500D01*
X81251082Y-74750500D01*
X81251083Y-74750500D01*
X81398917Y-74750500D01*
X82725500Y-74750500D01*
X82792539Y-74770185D01*
X82838294Y-74822989D01*
X82849500Y-74874500D01*
X82849500Y-81923918D01*
X82849500Y-81923920D01*
X82849499Y-81923920D01*
X82878340Y-82068907D01*
X82878343Y-82068917D01*
X82934913Y-82205490D01*
X82934914Y-82205491D01*
X82934916Y-82205495D01*
X82941836Y-82215851D01*
X82950181Y-82228340D01*
X82950182Y-82228342D01*
X83017051Y-82328420D01*
X83550950Y-82862319D01*
X83584435Y-82923642D01*
X83579451Y-82993334D01*
X83550950Y-83037681D01*
X83197229Y-83391402D01*
X83135906Y-83424887D01*
X83135330Y-83425011D01*
X83070196Y-83438856D01*
X83070192Y-83438857D01*
X82897270Y-83515848D01*
X82897265Y-83515851D01*
X82744129Y-83627111D01*
X82617466Y-83767785D01*
X82522821Y-83931715D01*
X82522819Y-83931719D01*
X82467478Y-84102041D01*
X82437228Y-84151403D01*
X81317052Y-85271578D01*
X81317049Y-85271581D01*
X81274877Y-85334696D01*
X81274878Y-85334697D01*
X81234914Y-85394508D01*
X81178343Y-85531082D01*
X81178340Y-85531091D01*
X81151280Y-85667127D01*
X81118894Y-85729037D01*
X81058178Y-85763611D01*
X80988409Y-85759870D01*
X80941982Y-85730615D01*
X80528421Y-85317052D01*
X80528414Y-85317046D01*
X80454729Y-85267812D01*
X80454729Y-85267813D01*
X80405491Y-85234913D01*
X80268917Y-85178343D01*
X80268907Y-85178340D01*
X80123920Y-85149500D01*
X80123918Y-85149500D01*
X76662229Y-85149500D01*
X76595190Y-85129815D01*
X76574548Y-85113181D01*
X74636819Y-83175451D01*
X74603334Y-83114128D01*
X74600500Y-83087770D01*
X74600500Y-81384321D01*
X74617113Y-81322321D01*
X74618697Y-81319577D01*
X74677179Y-81218284D01*
X74735674Y-81038256D01*
X74755460Y-80850000D01*
X74735674Y-80661744D01*
X74677179Y-80481716D01*
X74582533Y-80317784D01*
X74455871Y-80177112D01*
X74444439Y-80168806D01*
X74302734Y-80065851D01*
X74302729Y-80065848D01*
X74129807Y-79988857D01*
X74129802Y-79988855D01*
X73984001Y-79957865D01*
X73944646Y-79949500D01*
X73755354Y-79949500D01*
X73722897Y-79956398D01*
X73570197Y-79988855D01*
X73570192Y-79988857D01*
X73397270Y-80065848D01*
X73397265Y-80065851D01*
X73244129Y-80177111D01*
X73117466Y-80317785D01*
X73022821Y-80481715D01*
X73022818Y-80481722D01*
X72964327Y-80661740D01*
X72964326Y-80661744D01*
X72944540Y-80850000D01*
X72964326Y-81038256D01*
X72964327Y-81038259D01*
X73022818Y-81218277D01*
X73022821Y-81218284D01*
X73081301Y-81319575D01*
X73082887Y-81322321D01*
X73099500Y-81384321D01*
X73099500Y-82638770D01*
X73079815Y-82705809D01*
X73027011Y-82751564D01*
X72957853Y-82761508D01*
X72894297Y-82732483D01*
X72887819Y-82726451D01*
X70512770Y-80351402D01*
X70482521Y-80302041D01*
X70441929Y-80177111D01*
X70427181Y-80131721D01*
X70427178Y-80131715D01*
X70423926Y-80126082D01*
X70332533Y-79967784D01*
X70205871Y-79827112D01*
X70196787Y-79820512D01*
X70052734Y-79715851D01*
X70052729Y-79715848D01*
X69879807Y-79638857D01*
X69879802Y-79638855D01*
X69734001Y-79607865D01*
X69694646Y-79599500D01*
X69505354Y-79599500D01*
X69472897Y-79606398D01*
X69320197Y-79638855D01*
X69320192Y-79638857D01*
X69147270Y-79715848D01*
X69147265Y-79715851D01*
X68994129Y-79827111D01*
X68867466Y-79967785D01*
X68772821Y-80131715D01*
X68772818Y-80131722D01*
X68719225Y-80296666D01*
X68714326Y-80311744D01*
X68694540Y-80500000D01*
X60343554Y-80500000D01*
X60380866Y-80472892D01*
X60380867Y-80472890D01*
X60380871Y-80472888D01*
X60507533Y-80332216D01*
X60602179Y-80168284D01*
X60660674Y-79988256D01*
X60680460Y-79800000D01*
X60660674Y-79611744D01*
X60602179Y-79431716D01*
X60507533Y-79267784D01*
X60380871Y-79127112D01*
X60380870Y-79127111D01*
X60227734Y-79015851D01*
X60227729Y-79015848D01*
X60054807Y-78938857D01*
X60054802Y-78938855D01*
X59889843Y-78903793D01*
X59869646Y-78899500D01*
X59680354Y-78899500D01*
X59660157Y-78903793D01*
X59495197Y-78938855D01*
X59495192Y-78938857D01*
X59322270Y-79015848D01*
X59322265Y-79015851D01*
X59169129Y-79127111D01*
X59042466Y-79267785D01*
X58947821Y-79431715D01*
X58947818Y-79431722D01*
X58889326Y-79611744D01*
X58888005Y-79617956D01*
X58869820Y-79661057D01*
X58855314Y-79682768D01*
X58855313Y-79682769D01*
X58822421Y-79731996D01*
X58822414Y-79732008D01*
X58765842Y-79868586D01*
X58765840Y-79868592D01*
X58737000Y-80013579D01*
X58737000Y-80013582D01*
X58737000Y-85053121D01*
X58737000Y-85053123D01*
X58736999Y-85053123D01*
X57272523Y-85053123D01*
X57236281Y-84917865D01*
X57160515Y-84786635D01*
X57053365Y-84679485D01*
X56987750Y-84641602D01*
X56922136Y-84603719D01*
X56814613Y-84574909D01*
X56775766Y-84564500D01*
X56624234Y-84564500D01*
X56477863Y-84603719D01*
X56346635Y-84679485D01*
X56346632Y-84679487D01*
X56239487Y-84786632D01*
X56239485Y-84786635D01*
X56163719Y-84917863D01*
X56137713Y-85014921D01*
X56124500Y-85064234D01*
X56124500Y-85215766D01*
X56138446Y-85267812D01*
X56163719Y-85362136D01*
X56198871Y-85423020D01*
X56239485Y-85493365D01*
X56239488Y-85493368D01*
X56244188Y-85499493D01*
X56269383Y-85564662D01*
X56255346Y-85633107D01*
X56210510Y-85679023D01*
X56211151Y-85679983D01*
X56206612Y-85683015D01*
X56206533Y-85683097D01*
X56206296Y-85683226D01*
X56042218Y-85792860D01*
X56042214Y-85792863D01*
X55902863Y-85932214D01*
X55902860Y-85932218D01*
X55793371Y-86096079D01*
X55793364Y-86096092D01*
X55717950Y-86278160D01*
X55717947Y-86278170D01*
X55679500Y-86471456D01*
X55679500Y-86471459D01*
X55679500Y-86668541D01*
X55679500Y-86668543D01*
X55679499Y-86668543D01*
X54350500Y-86668543D01*
X54350500Y-86668541D01*
X54350500Y-86471459D01*
X54350500Y-86471456D01*
X54312052Y-86278170D01*
X54312051Y-86278169D01*
X54312051Y-86278165D01*
X54256051Y-86142967D01*
X54236635Y-86096092D01*
X54236628Y-86096079D01*
X54127139Y-85932218D01*
X54127136Y-85932214D01*
X53987785Y-85792863D01*
X53987781Y-85792860D01*
X53823920Y-85683371D01*
X53823907Y-85683364D01*
X53641839Y-85607950D01*
X53641829Y-85607947D01*
X53448543Y-85569500D01*
X53448541Y-85569500D01*
X52651459Y-85569500D01*
X52651457Y-85569500D01*
X52458170Y-85607947D01*
X52458160Y-85607950D01*
X52276092Y-85683364D01*
X52276079Y-85683371D01*
X52112218Y-85792860D01*
X52112214Y-85792863D01*
X51972863Y-85932214D01*
X51972860Y-85932218D01*
X51863371Y-86096079D01*
X51863364Y-86096092D01*
X51787950Y-86278160D01*
X51787947Y-86278170D01*
X51749500Y-86471456D01*
X51749500Y-86471459D01*
X51749500Y-86668541D01*
X51749500Y-86668543D01*
X51749499Y-86668543D01*
X50500500Y-86668543D01*
X50500500Y-78028543D01*
X51749499Y-78028543D01*
X51787947Y-78221829D01*
X51787950Y-78221839D01*
X51863364Y-78403907D01*
X51863371Y-78403920D01*
X51972860Y-78567781D01*
X51972863Y-78567785D01*
X52112214Y-78707136D01*
X52112218Y-78707139D01*
X52276079Y-78816628D01*
X52276092Y-78816635D01*
X52441480Y-78885140D01*
X52458165Y-78892051D01*
X52458169Y-78892051D01*
X52458170Y-78892052D01*
X52651456Y-78930500D01*
X52651459Y-78930500D01*
X53448543Y-78930500D01*
X53582805Y-78903793D01*
X53641835Y-78892051D01*
X53823914Y-78816632D01*
X53987782Y-78707139D01*
X54127139Y-78567782D01*
X54236632Y-78403914D01*
X54312051Y-78221835D01*
X54350500Y-78028543D01*
X55679499Y-78028543D01*
X55717947Y-78221829D01*
X55717950Y-78221839D01*
X55793364Y-78403907D01*
X55793371Y-78403920D01*
X55902860Y-78567781D01*
X55902863Y-78567785D01*
X56042214Y-78707136D01*
X56042218Y-78707139D01*
X56211151Y-78820017D01*
X56210180Y-78821470D01*
X56254109Y-78864619D01*
X56269571Y-78932757D01*
X56245741Y-78998437D01*
X56244190Y-79000502D01*
X56239489Y-79006627D01*
X56163719Y-79137863D01*
X56124500Y-79284234D01*
X56124500Y-79435765D01*
X56163719Y-79582136D01*
X56180814Y-79611744D01*
X56239485Y-79713365D01*
X56346635Y-79820515D01*
X56477865Y-79896281D01*
X56624234Y-79935500D01*
X56624236Y-79935500D01*
X56775764Y-79935500D01*
X56775766Y-79935500D01*
X56922135Y-79896281D01*
X57053365Y-79820515D01*
X57160515Y-79713365D01*
X57236281Y-79582135D01*
X57275500Y-79435766D01*
X57275500Y-79284234D01*
X57236281Y-79137865D01*
X57230073Y-79127112D01*
X57223947Y-79116501D01*
X57207473Y-79048602D01*
X57230325Y-78982574D01*
X57285245Y-78939383D01*
X57331333Y-78930500D01*
X57878543Y-78930500D01*
X58012805Y-78903793D01*
X58071835Y-78892051D01*
X58253914Y-78816632D01*
X58417782Y-78707139D01*
X58557139Y-78567782D01*
X58666632Y-78403914D01*
X58742051Y-78221835D01*
X58780500Y-78028541D01*
X58780500Y-77831459D01*
X58780500Y-77831456D01*
X58742052Y-77638170D01*
X58742051Y-77638169D01*
X58742051Y-77638165D01*
X58737472Y-77627111D01*
X58666635Y-77456092D01*
X58666628Y-77456079D01*
X58557139Y-77292218D01*
X58557136Y-77292214D01*
X58417785Y-77152863D01*
X58417781Y-77152860D01*
X58253920Y-77043371D01*
X58253907Y-77043364D01*
X58071839Y-76967950D01*
X58071829Y-76967947D01*
X57878543Y-76929500D01*
X57878541Y-76929500D01*
X56581459Y-76929500D01*
X56581457Y-76929500D01*
X56388170Y-76967947D01*
X56388160Y-76967950D01*
X56206092Y-77043364D01*
X56206079Y-77043371D01*
X56042218Y-77152860D01*
X56042214Y-77152863D01*
X55902863Y-77292214D01*
X55902860Y-77292218D01*
X55793371Y-77456079D01*
X55793364Y-77456092D01*
X55717950Y-77638160D01*
X55717947Y-77638170D01*
X55679500Y-77831456D01*
X55679500Y-77831459D01*
X55679500Y-78028541D01*
X55679500Y-78028543D01*
X55679499Y-78028543D01*
X54350500Y-78028543D01*
X54350500Y-78028541D01*
X54350500Y-77831459D01*
X54350500Y-77831456D01*
X54312052Y-77638170D01*
X54312051Y-77638169D01*
X54312051Y-77638165D01*
X54307472Y-77627111D01*
X54236635Y-77456092D01*
X54236628Y-77456079D01*
X54127139Y-77292218D01*
X54127136Y-77292214D01*
X53987785Y-77152863D01*
X53987781Y-77152860D01*
X53823920Y-77043371D01*
X53823907Y-77043364D01*
X53641839Y-76967950D01*
X53641829Y-76967947D01*
X53448543Y-76929500D01*
X53448541Y-76929500D01*
X52651459Y-76929500D01*
X52651457Y-76929500D01*
X52458170Y-76967947D01*
X52458160Y-76967950D01*
X52276092Y-77043364D01*
X52276079Y-77043371D01*
X52112218Y-77152860D01*
X52112214Y-77152863D01*
X51972863Y-77292214D01*
X51972860Y-77292218D01*
X51863371Y-77456079D01*
X51863364Y-77456092D01*
X51787950Y-77638160D01*
X51787947Y-77638170D01*
X51749500Y-77831456D01*
X51749500Y-77831459D01*
X51749500Y-78028541D01*
X51749500Y-78028543D01*
X51749499Y-78028543D01*
X50500500Y-78028543D01*
X50500500Y-76403315D01*
X50520185Y-76336276D01*
X50572989Y-76290521D01*
X50642147Y-76280577D01*
X50674159Y-76291233D01*
X50674359Y-76290697D01*
X50817517Y-76344091D01*
X50817516Y-76344091D01*
X50824444Y-76344835D01*
X50877127Y-76350500D01*
X52672872Y-76350499D01*
X52732483Y-76344091D01*
X52867331Y-76293796D01*
X52982546Y-76207546D01*
X53068796Y-76092331D01*
X53117810Y-75960916D01*
X53159681Y-75904984D01*
X53225145Y-75880566D01*
X53293418Y-75895417D01*
X53321673Y-75916569D01*
X53443599Y-76038495D01*
X53540384Y-76106265D01*
X53637165Y-76174032D01*
X53637167Y-76174033D01*
X53637170Y-76174035D01*
X53851337Y-76273903D01*
X53851343Y-76273904D01*
X53851344Y-76273905D01*
X53854412Y-76274727D01*
X54079592Y-76335063D01*
X54256034Y-76350500D01*
X54314999Y-76355659D01*
X54315000Y-76355659D01*
X54315001Y-76355659D01*
X54373966Y-76350500D01*
X54550408Y-76335063D01*
X54778663Y-76273903D01*
X54992830Y-76174035D01*
X55186401Y-76038495D01*
X55353495Y-75871401D01*
X55401127Y-75803376D01*
X55455704Y-75759751D01*
X55502701Y-75750500D01*
X64773920Y-75750500D01*
X64871462Y-75731096D01*
X64918913Y-75721658D01*
X65055495Y-75665084D01*
X65136649Y-75610859D01*
X65178416Y-75582952D01*
X66669343Y-74092023D01*
X66730664Y-74058540D01*
X66776415Y-74057233D01*
X66891746Y-74075500D01*
X66891748Y-74075500D01*
X67108253Y-74075500D01*
X67108254Y-74075500D01*
X67322097Y-74041630D01*
X67528009Y-73974726D01*
X67720919Y-73876433D01*
X67896078Y-73749172D01*
X68049172Y-73596078D01*
X68176433Y-73420919D01*
X68274726Y-73228009D01*
X68341630Y-73022097D01*
X68375500Y-72808254D01*
X68375500Y-64721112D01*
X68395185Y-64654073D01*
X68411819Y-64633431D01*
X68944835Y-64100415D01*
X69541253Y-63503997D01*
X69668514Y-63328838D01*
X69766807Y-63135928D01*
X69833711Y-62930016D01*
X69841282Y-62882216D01*
X69867581Y-62716173D01*
X69867581Y-54241746D01*
X69833711Y-54027903D01*
X69787713Y-53886335D01*
X69766808Y-53821993D01*
X69766807Y-53821990D01*
X69708615Y-53707783D01*
X69668514Y-53629081D01*
X69541253Y-53453922D01*
X69388159Y-53300828D01*
X69213000Y-53173567D01*
X69212999Y-53173566D01*
X69212993Y-53173562D01*
X69208848Y-53171022D01*
X69209763Y-53169527D01*
X69164464Y-53126737D01*
X69147674Y-53058915D01*
X69170218Y-52992782D01*
X69200437Y-52962661D01*
X69363483Y-52848495D01*
X69530577Y-52681401D01*
X69666117Y-52487830D01*
X69765985Y-52273663D01*
X69827145Y-52045408D01*
X69847741Y-51810000D01*
X69827145Y-51574592D01*
X69765985Y-51346337D01*
X69666117Y-51132171D01*
X69665902Y-51131863D01*
X69530576Y-50938597D01*
X69363484Y-50771506D01*
X69363483Y-50771505D01*
X69298601Y-50726074D01*
X69254978Y-50671498D01*
X69247785Y-50601999D01*
X69279307Y-50539645D01*
X69339537Y-50504231D01*
X69369726Y-50500500D01*
X72694439Y-50500500D01*
X72761478Y-50520185D01*
G37*
%TD.AperFunction*%
%TA.AperFunction,Conductor*%
G36*
X62601478Y-50520185D02*
G01*
X62647233Y-50572989D01*
X62657177Y-50642147D01*
X62628152Y-50705703D01*
X62605562Y-50726075D01*
X62540678Y-50771506D01*
X62373587Y-50938597D01*
X62238047Y-51132169D01*
X62238046Y-51132171D01*
X62138180Y-51346335D01*
X62138176Y-51346344D01*
X62077020Y-51574586D01*
X62077018Y-51574596D01*
X62056423Y-51809999D01*
X62056423Y-51810000D01*
X62077018Y-52045403D01*
X62077020Y-52045413D01*
X62138176Y-52273655D01*
X62138178Y-52273659D01*
X62138179Y-52273663D01*
X62182891Y-52369547D01*
X62238047Y-52487830D01*
X62238049Y-52487834D01*
X62247582Y-52501448D01*
X62373586Y-52681400D01*
X62373588Y-52681402D01*
X62495512Y-52803326D01*
X62528997Y-52864649D01*
X62524013Y-52934341D01*
X62482141Y-52990274D01*
X62451165Y-53007189D01*
X62319751Y-53056203D01*
X62319746Y-53056206D01*
X62204537Y-53142452D01*
X62204534Y-53142455D01*
X62118288Y-53257664D01*
X62118284Y-53257671D01*
X62067990Y-53392517D01*
X62061583Y-53452116D01*
X62061583Y-53452123D01*
X62061582Y-53452135D01*
X62061582Y-55247870D01*
X62061583Y-55247876D01*
X62067990Y-55307483D01*
X62118284Y-55442328D01*
X62118288Y-55442335D01*
X62204534Y-55557544D01*
X62204537Y-55557547D01*
X62319746Y-55643793D01*
X62319753Y-55643797D01*
X62454599Y-55694091D01*
X62454598Y-55694091D01*
X62461526Y-55694835D01*
X62514209Y-55700500D01*
X64309954Y-55700499D01*
X64369565Y-55694091D01*
X64504413Y-55643796D01*
X64619628Y-55557546D01*
X64705878Y-55442331D01*
X64756173Y-55307483D01*
X64762582Y-55247873D01*
X64762581Y-53452128D01*
X64756217Y-53392922D01*
X64756173Y-53392516D01*
X64705879Y-53257671D01*
X64705875Y-53257664D01*
X64619629Y-53142455D01*
X64619626Y-53142452D01*
X64504417Y-53056206D01*
X64504410Y-53056202D01*
X64372999Y-53007189D01*
X64317065Y-52965318D01*
X64292648Y-52899853D01*
X64307500Y-52831580D01*
X64328645Y-52803332D01*
X64450577Y-52681401D01*
X64586117Y-52487830D01*
X64685985Y-52273663D01*
X64747145Y-52045408D01*
X64767741Y-51810000D01*
X64747145Y-51574592D01*
X64685985Y-51346337D01*
X64586117Y-51132171D01*
X64585902Y-51131863D01*
X64450576Y-50938597D01*
X64283484Y-50771506D01*
X64283483Y-50771505D01*
X64218601Y-50726074D01*
X64174978Y-50671498D01*
X64167785Y-50601999D01*
X64199307Y-50539645D01*
X64259537Y-50504231D01*
X64289726Y-50500500D01*
X67614439Y-50500500D01*
X67681478Y-50520185D01*
X67727233Y-50572989D01*
X67737177Y-50642147D01*
X67708152Y-50705703D01*
X67685562Y-50726075D01*
X67620678Y-50771506D01*
X67453587Y-50938597D01*
X67318047Y-51132169D01*
X67318046Y-51132171D01*
X67218180Y-51346335D01*
X67218176Y-51346344D01*
X67157020Y-51574586D01*
X67157018Y-51574596D01*
X67136423Y-51809999D01*
X67136423Y-51810000D01*
X67157018Y-52045403D01*
X67157020Y-52045413D01*
X67218176Y-52273655D01*
X67218178Y-52273659D01*
X67218179Y-52273663D01*
X67262891Y-52369547D01*
X67318047Y-52487830D01*
X67318049Y-52487834D01*
X67327582Y-52501448D01*
X67453587Y-52681401D01*
X67620681Y-52848495D01*
X67694028Y-52899853D01*
X67783725Y-52962660D01*
X67827350Y-53017237D01*
X67834544Y-53086735D01*
X67803021Y-53149090D01*
X67774847Y-53170260D01*
X67775314Y-53171022D01*
X67771168Y-53173562D01*
X67676665Y-53242222D01*
X67596003Y-53300828D01*
X67596001Y-53300830D01*
X67596000Y-53300830D01*
X67442911Y-53453919D01*
X67442911Y-53453920D01*
X67442909Y-53453922D01*
X67424980Y-53478599D01*
X67315648Y-53629080D01*
X67217354Y-53821990D01*
X67217353Y-53821993D01*
X67150451Y-54027901D01*
X67116581Y-54241746D01*
X67116581Y-61986806D01*
X67096896Y-62053845D01*
X67080262Y-62074487D01*
X65950829Y-63203919D01*
X65950829Y-63203920D01*
X65950827Y-63203922D01*
X65891263Y-63285905D01*
X65834750Y-63363688D01*
X65823570Y-63379074D01*
X65725273Y-63571990D01*
X65725272Y-63571993D01*
X65658370Y-63777901D01*
X65624500Y-63991746D01*
X65624500Y-72808259D01*
X65642765Y-72923578D01*
X65633811Y-72992871D01*
X65607973Y-73030657D01*
X64425451Y-74213181D01*
X64364128Y-74246666D01*
X64337770Y-74249500D01*
X55502701Y-74249500D01*
X55435662Y-74229815D01*
X55401126Y-74196623D01*
X55353494Y-74128597D01*
X55186402Y-73961506D01*
X55186395Y-73961501D01*
X54992834Y-73825967D01*
X54992830Y-73825965D01*
X54992828Y-73825964D01*
X54778663Y-73726097D01*
X54778659Y-73726096D01*
X54778655Y-73726094D01*
X54550413Y-73664938D01*
X54550403Y-73664936D01*
X54315001Y-73644341D01*
X54314999Y-73644341D01*
X54079596Y-73664936D01*
X54079586Y-73664938D01*
X53851344Y-73726094D01*
X53851335Y-73726098D01*
X53637171Y-73825964D01*
X53637169Y-73825965D01*
X53443600Y-73961503D01*
X53321673Y-74083430D01*
X53260350Y-74116914D01*
X53190658Y-74111930D01*
X53134725Y-74070058D01*
X53117810Y-74039081D01*
X53068797Y-73907671D01*
X53068793Y-73907664D01*
X52982547Y-73792455D01*
X52982544Y-73792452D01*
X52867335Y-73706206D01*
X52867328Y-73706202D01*
X52732482Y-73655908D01*
X52732483Y-73655908D01*
X52672883Y-73649501D01*
X52672881Y-73649500D01*
X52672873Y-73649500D01*
X52672864Y-73649500D01*
X50877129Y-73649500D01*
X50877123Y-73649501D01*
X50817516Y-73655908D01*
X50674359Y-73709303D01*
X50673771Y-73707726D01*
X50615647Y-73720368D01*
X50550184Y-73695947D01*
X50508316Y-73640011D01*
X50500500Y-73596684D01*
X50500500Y-62801902D01*
X52764500Y-62801902D01*
X52764500Y-68118097D01*
X52801446Y-68351368D01*
X52874433Y-68575996D01*
X52966321Y-68756335D01*
X52981657Y-68786433D01*
X53120483Y-68977510D01*
X53287490Y-69144517D01*
X53478567Y-69283343D01*
X53577991Y-69334002D01*
X53689003Y-69390566D01*
X53689005Y-69390566D01*
X53689008Y-69390568D01*
X53809412Y-69429689D01*
X53913631Y-69463553D01*
X54146903Y-69500500D01*
X54146908Y-69500500D01*
X54383097Y-69500500D01*
X54616368Y-69463553D01*
X54641420Y-69455413D01*
X54840992Y-69390568D01*
X55051433Y-69283343D01*
X55242510Y-69144517D01*
X55409517Y-68977510D01*
X55548343Y-68786433D01*
X55655568Y-68575992D01*
X55728553Y-68351368D01*
X55736146Y-68303430D01*
X55765500Y-68118097D01*
X55765500Y-62801902D01*
X55728553Y-62568631D01*
X55655566Y-62344003D01*
X55581810Y-62199250D01*
X55548343Y-62133567D01*
X55409517Y-61942490D01*
X55242510Y-61775483D01*
X55051433Y-61636657D01*
X55032698Y-61627111D01*
X54840996Y-61529433D01*
X54616368Y-61456446D01*
X54383097Y-61419500D01*
X54383092Y-61419500D01*
X54146908Y-61419500D01*
X54146903Y-61419500D01*
X53913631Y-61456446D01*
X53689003Y-61529433D01*
X53478566Y-61636657D01*
X53369550Y-61715862D01*
X53287490Y-61775483D01*
X53287488Y-61775485D01*
X53287487Y-61775485D01*
X53120485Y-61942487D01*
X53120485Y-61942488D01*
X53120483Y-61942490D01*
X53062070Y-62022888D01*
X52981657Y-62133566D01*
X52874433Y-62344003D01*
X52801446Y-62568631D01*
X52764500Y-62801902D01*
X50500500Y-62801902D01*
X50500500Y-55002706D01*
X50500618Y-54997297D01*
X50508270Y-54822032D01*
X50517386Y-54613226D01*
X50518326Y-54602495D01*
X50568152Y-54224025D01*
X50570025Y-54213405D01*
X50652649Y-53840709D01*
X50655440Y-53830295D01*
X50770230Y-53466227D01*
X50773917Y-53456095D01*
X50920003Y-53103412D01*
X50924561Y-53093638D01*
X51100822Y-52755045D01*
X51106217Y-52745700D01*
X51311325Y-52423744D01*
X51317515Y-52414905D01*
X51549896Y-52112060D01*
X51556834Y-52103791D01*
X51814726Y-51822352D01*
X51822352Y-51814726D01*
X52103791Y-51556834D01*
X52112060Y-51549896D01*
X52414905Y-51317515D01*
X52423744Y-51311325D01*
X52745700Y-51106217D01*
X52755045Y-51100822D01*
X53093638Y-50924561D01*
X53103412Y-50920003D01*
X53456095Y-50773917D01*
X53466227Y-50770230D01*
X53830295Y-50655440D01*
X53840709Y-50652649D01*
X54213405Y-50570025D01*
X54224025Y-50568152D01*
X54602495Y-50518326D01*
X54613226Y-50517386D01*
X54997297Y-50500617D01*
X55002706Y-50500500D01*
X55065892Y-50500500D01*
X62534439Y-50500500D01*
X62601478Y-50520185D01*
G37*
%TD.AperFunction*%
%TA.AperFunction,Conductor*%
G36*
X87976725Y-64592555D02*
G01*
X87987755Y-64602345D01*
X88948229Y-65562819D01*
X88981714Y-65624142D01*
X88976730Y-65693834D01*
X88934858Y-65749767D01*
X88869394Y-65774184D01*
X88860548Y-65774500D01*
X87830453Y-65774500D01*
X87763414Y-65754815D01*
X87742772Y-65738181D01*
X87510556Y-65505965D01*
X87259257Y-65254667D01*
X87225773Y-65193345D01*
X87230757Y-65123654D01*
X87272628Y-65067720D01*
X87296491Y-65053713D01*
X87452730Y-64984151D01*
X87605871Y-64872888D01*
X87732533Y-64732216D01*
X87792687Y-64628025D01*
X87843254Y-64579811D01*
X87911861Y-64566587D01*
X87976725Y-64592555D01*
G37*
%TD.AperFunction*%
%TA.AperFunction,Conductor*%
G36*
X77841478Y-50520185D02*
G01*
X77887233Y-50572989D01*
X77897177Y-50642147D01*
X77868152Y-50705703D01*
X77845562Y-50726075D01*
X77780678Y-50771506D01*
X77613587Y-50938597D01*
X77478047Y-51132169D01*
X77478046Y-51132171D01*
X77378180Y-51346335D01*
X77378176Y-51346344D01*
X77317020Y-51574586D01*
X77317018Y-51574596D01*
X77296423Y-51809999D01*
X77296423Y-51810000D01*
X77317018Y-52045403D01*
X77317020Y-52045413D01*
X77378176Y-52273655D01*
X77378178Y-52273659D01*
X77378179Y-52273663D01*
X77422891Y-52369547D01*
X77478047Y-52487830D01*
X77478049Y-52487834D01*
X77487582Y-52501448D01*
X77613587Y-52681401D01*
X77780681Y-52848495D01*
X77947521Y-52965318D01*
X77966239Y-52978424D01*
X78009864Y-53033001D01*
X78017058Y-53102499D01*
X77985535Y-53164854D01*
X77966240Y-53181574D01*
X77780675Y-53311508D01*
X77613586Y-53478597D01*
X77478046Y-53672169D01*
X77478045Y-53672171D01*
X77378179Y-53886335D01*
X77378175Y-53886344D01*
X77317019Y-54114586D01*
X77317017Y-54114596D01*
X77296422Y-54349999D01*
X77296422Y-54350000D01*
X77317017Y-54585403D01*
X77317019Y-54585413D01*
X77378175Y-54813655D01*
X77378177Y-54813659D01*
X77378178Y-54813663D01*
X77470299Y-55011217D01*
X77478046Y-55027830D01*
X77478050Y-55027836D01*
X77512167Y-55076560D01*
X77534495Y-55142766D01*
X77517485Y-55210533D01*
X77466538Y-55258347D01*
X77410593Y-55271684D01*
X75244562Y-55271684D01*
X75173281Y-55282974D01*
X75030717Y-55305554D01*
X74824809Y-55372456D01*
X74824806Y-55372458D01*
X74770444Y-55400157D01*
X74701774Y-55413053D01*
X74637034Y-55386776D01*
X74596777Y-55329670D01*
X74593785Y-55259864D01*
X74612572Y-55218550D01*
X74746117Y-55027830D01*
X74845985Y-54813663D01*
X74907145Y-54585408D01*
X74927741Y-54350000D01*
X74907145Y-54114592D01*
X74845985Y-53886337D01*
X74746117Y-53672171D01*
X74740507Y-53664158D01*
X74610576Y-53478597D01*
X74443484Y-53311506D01*
X74443478Y-53311501D01*
X74257924Y-53181575D01*
X74214299Y-53126998D01*
X74207105Y-53057500D01*
X74238628Y-52995145D01*
X74257924Y-52978425D01*
X74370136Y-52899853D01*
X74443483Y-52848495D01*
X74610577Y-52681401D01*
X74746117Y-52487830D01*
X74845985Y-52273663D01*
X74907145Y-52045408D01*
X74927741Y-51810000D01*
X74907145Y-51574592D01*
X74845985Y-51346337D01*
X74746117Y-51132171D01*
X74745902Y-51131863D01*
X74610576Y-50938597D01*
X74443484Y-50771506D01*
X74443483Y-50771505D01*
X74378601Y-50726074D01*
X74334978Y-50671498D01*
X74327785Y-50601999D01*
X74359307Y-50539645D01*
X74419537Y-50504231D01*
X74449726Y-50500500D01*
X77774439Y-50500500D01*
X77841478Y-50520185D01*
G37*
%TD.AperFunction*%
%TD*%
M02*
