%TF.GenerationSoftware,KiCad,Pcbnew,8.0.5*%
%TF.CreationDate,2024-10-04T16:45:10+08:00*%
%TF.ProjectId,Chao Recruit,4368616f-2052-4656-9372-7569742e6b69,rev?*%
%TF.SameCoordinates,Original*%
%TF.FileFunction,Soldermask,Top*%
%TF.FilePolarity,Negative*%
%FSLAX46Y46*%
G04 Gerber Fmt 4.6, Leading zero omitted, Abs format (unit mm)*
G04 Created by KiCad (PCBNEW 8.0.5) date 2024-10-04 16:45:10*
%MOMM*%
%LPD*%
G01*
G04 APERTURE LIST*
G04 Aperture macros list*
%AMRoundRect*
0 Rectangle with rounded corners*
0 $1 Rounding radius*
0 $2 $3 $4 $5 $6 $7 $8 $9 X,Y pos of 4 corners*
0 Add a 4 corners polygon primitive as box body*
4,1,4,$2,$3,$4,$5,$6,$7,$8,$9,$2,$3,0*
0 Add four circle primitives for the rounded corners*
1,1,$1+$1,$2,$3*
1,1,$1+$1,$4,$5*
1,1,$1+$1,$6,$7*
1,1,$1+$1,$8,$9*
0 Add four rect primitives between the rounded corners*
20,1,$1+$1,$2,$3,$4,$5,0*
20,1,$1+$1,$4,$5,$6,$7,0*
20,1,$1+$1,$6,$7,$8,$9,0*
20,1,$1+$1,$8,$9,$2,$3,0*%
G04 Aperture macros list end*
%ADD10RoundRect,0.112500X0.112500X-0.187500X0.112500X0.187500X-0.112500X0.187500X-0.112500X-0.187500X0*%
%ADD11RoundRect,0.140000X-0.170000X0.140000X-0.170000X-0.140000X0.170000X-0.140000X0.170000X0.140000X0*%
%ADD12R,1.700000X1.700000*%
%ADD13O,1.700000X1.700000*%
%ADD14RoundRect,0.218750X-0.218750X-0.256250X0.218750X-0.256250X0.218750X0.256250X-0.218750X0.256250X0*%
%ADD15RoundRect,0.135000X0.185000X-0.135000X0.185000X0.135000X-0.185000X0.135000X-0.185000X-0.135000X0*%
%ADD16RoundRect,0.135000X0.135000X0.185000X-0.135000X0.185000X-0.135000X-0.185000X0.135000X-0.185000X0*%
%ADD17RoundRect,0.135000X-0.135000X-0.185000X0.135000X-0.185000X0.135000X0.185000X-0.135000X0.185000X0*%
%ADD18RoundRect,0.140000X0.170000X-0.140000X0.170000X0.140000X-0.170000X0.140000X-0.170000X-0.140000X0*%
%ADD19RoundRect,0.150000X-0.587500X-0.150000X0.587500X-0.150000X0.587500X0.150000X-0.587500X0.150000X0*%
%ADD20RoundRect,0.140000X0.140000X0.170000X-0.140000X0.170000X-0.140000X-0.170000X0.140000X-0.170000X0*%
%ADD21RoundRect,0.375000X-0.625000X-0.375000X0.625000X-0.375000X0.625000X0.375000X-0.625000X0.375000X0*%
%ADD22RoundRect,0.500000X-0.500000X-1.400000X0.500000X-1.400000X0.500000X1.400000X-0.500000X1.400000X0*%
%ADD23RoundRect,0.218750X-0.256250X0.218750X-0.256250X-0.218750X0.256250X-0.218750X0.256250X0.218750X0*%
%ADD24RoundRect,0.102000X0.611000X-0.611000X0.611000X0.611000X-0.611000X0.611000X-0.611000X-0.611000X0*%
%ADD25C,1.426000*%
%ADD26R,0.750000X1.000000*%
%ADD27RoundRect,0.112500X-0.187500X-0.112500X0.187500X-0.112500X0.187500X0.112500X-0.187500X0.112500X0*%
%ADD28RoundRect,0.135000X-0.185000X0.135000X-0.185000X-0.135000X0.185000X-0.135000X0.185000X0.135000X0*%
%ADD29RoundRect,0.150000X-0.512500X-0.150000X0.512500X-0.150000X0.512500X0.150000X-0.512500X0.150000X0*%
%ADD30RoundRect,0.150000X0.150000X-0.587500X0.150000X0.587500X-0.150000X0.587500X-0.150000X-0.587500X0*%
%ADD31RoundRect,0.218750X0.218750X0.256250X-0.218750X0.256250X-0.218750X-0.256250X0.218750X-0.256250X0*%
%ADD32RoundRect,0.140000X-0.140000X-0.170000X0.140000X-0.170000X0.140000X0.170000X-0.140000X0.170000X0*%
%ADD33RoundRect,0.225000X0.225000X0.250000X-0.225000X0.250000X-0.225000X-0.250000X0.225000X-0.250000X0*%
%ADD34RoundRect,0.225000X-0.225000X-0.250000X0.225000X-0.250000X0.225000X0.250000X-0.225000X0.250000X0*%
%ADD35R,3.810000X4.240000*%
%ADD36RoundRect,0.112500X0.187500X0.112500X-0.187500X0.112500X-0.187500X-0.112500X0.187500X-0.112500X0*%
%ADD37RoundRect,0.150000X0.150000X-0.825000X0.150000X0.825000X-0.150000X0.825000X-0.150000X-0.825000X0*%
%ADD38C,1.500000*%
%ADD39RoundRect,0.218750X0.256250X-0.218750X0.256250X0.218750X-0.256250X0.218750X-0.256250X-0.218750X0*%
%ADD40RoundRect,0.112500X-0.112500X0.187500X-0.112500X-0.187500X0.112500X-0.187500X0.112500X0.187500X0*%
%ADD41RoundRect,0.225000X0.250000X-0.225000X0.250000X0.225000X-0.250000X0.225000X-0.250000X-0.225000X0*%
%ADD42RoundRect,0.075000X0.662500X0.075000X-0.662500X0.075000X-0.662500X-0.075000X0.662500X-0.075000X0*%
%ADD43RoundRect,0.075000X0.075000X0.662500X-0.075000X0.662500X-0.075000X-0.662500X0.075000X-0.662500X0*%
%ADD44RoundRect,0.243750X-0.243750X-0.456250X0.243750X-0.456250X0.243750X0.456250X-0.243750X0.456250X0*%
%ADD45C,4.700000*%
%ADD46C,7.500000*%
%ADD47RoundRect,0.150000X0.825000X0.150000X-0.825000X0.150000X-0.825000X-0.150000X0.825000X-0.150000X0*%
%ADD48RoundRect,0.100000X0.637500X0.100000X-0.637500X0.100000X-0.637500X-0.100000X0.637500X-0.100000X0*%
%ADD49C,0.650000*%
%ADD50R,1.450000X0.600000*%
%ADD51R,1.450000X0.300000*%
%ADD52O,2.100000X1.000000*%
%ADD53O,1.600000X1.000000*%
%ADD54RoundRect,0.150000X0.587500X0.150000X-0.587500X0.150000X-0.587500X-0.150000X0.587500X-0.150000X0*%
G04 APERTURE END LIST*
D10*
%TO.C,D301*%
X66725000Y-87200000D03*
X66725000Y-85100000D03*
%TD*%
D11*
%TO.C,C113*%
X68400000Y-76900000D03*
X68400000Y-77860000D03*
%TD*%
D12*
%TO.C,J101*%
X77960002Y-90135000D03*
D13*
X75420002Y-90135000D03*
X72880003Y-90135000D03*
X70340002Y-90135000D03*
%TD*%
D14*
%TO.C,D210*%
X98970000Y-57090002D03*
X100545002Y-57090002D03*
%TD*%
D15*
%TO.C,R204*%
X112432081Y-59359998D03*
X112432081Y-58340000D03*
%TD*%
D16*
%TO.C,R107*%
X65694998Y-63000000D03*
X64675000Y-63000000D03*
%TD*%
D17*
%TO.C,R104*%
X114696667Y-90400002D03*
X115716665Y-90400002D03*
%TD*%
D18*
%TO.C,C102*%
X83618200Y-73100003D03*
X83618200Y-72140003D03*
%TD*%
D10*
%TO.C,D105*%
X64950001Y-68150000D03*
X64950001Y-66050000D03*
%TD*%
D19*
%TO.C,Q208*%
X114675000Y-69850000D03*
X114675000Y-71750000D03*
X116550001Y-70800000D03*
%TD*%
D20*
%TO.C,C103*%
X82168200Y-83000001D03*
X81208200Y-83000001D03*
%TD*%
D21*
%TO.C,U103*%
X69200001Y-70400000D03*
X69200002Y-72700000D03*
D22*
X75500000Y-72700000D03*
D21*
X69200001Y-75000000D03*
%TD*%
D23*
%TO.C,L101*%
X99368200Y-75925000D03*
X99368200Y-77500002D03*
%TD*%
D24*
%TO.C,RV201*%
X125450000Y-85680000D03*
D25*
X122910000Y-83140000D03*
X125450000Y-80600000D03*
%TD*%
D26*
%TO.C,SW101*%
X98716700Y-92000000D03*
X98716700Y-98000000D03*
X94966700Y-92000000D03*
X94966700Y-98000000D03*
%TD*%
D21*
%TO.C,U102*%
X69300001Y-59500000D03*
X69300002Y-61800000D03*
D22*
X75600000Y-61800000D03*
D21*
X69300001Y-64100000D03*
%TD*%
D27*
%TO.C,D109*%
X69600000Y-79000000D03*
X71700000Y-79000000D03*
%TD*%
D28*
%TO.C,R203*%
X98600000Y-83950000D03*
X98600000Y-84969998D03*
%TD*%
D15*
%TO.C,R202*%
X109044580Y-61359998D03*
X109044580Y-60340000D03*
%TD*%
D12*
%TO.C,J202*%
X63412082Y-54350000D03*
D13*
X63412082Y-51810000D03*
X65952082Y-54350000D03*
X65952082Y-51810000D03*
X68492081Y-54350000D03*
X68492082Y-51810000D03*
X71032082Y-54350000D03*
X71032082Y-51810000D03*
X73572082Y-54350000D03*
X73572082Y-51810000D03*
X76112082Y-54350000D03*
X76112082Y-51810000D03*
%TD*%
D29*
%TO.C,U301*%
X61687500Y-81887500D03*
X61687500Y-82837500D03*
X61687500Y-83787500D03*
X63962500Y-83787500D03*
X63962500Y-82837500D03*
X63962500Y-81887500D03*
%TD*%
D30*
%TO.C,Q207*%
X95090418Y-62777499D03*
X96990418Y-62777499D03*
X96040418Y-60902498D03*
%TD*%
D27*
%TO.C,D106*%
X69700000Y-68050001D03*
X71800000Y-68050001D03*
%TD*%
D12*
%TO.C,J213*%
X122370000Y-69220000D03*
D13*
X124910000Y-69220000D03*
X127449999Y-69220000D03*
%TD*%
D14*
%TO.C,D215*%
X88820000Y-57062501D03*
X90395002Y-57062501D03*
%TD*%
D11*
%TO.C,C101*%
X94268200Y-84470000D03*
X94268200Y-85430000D03*
%TD*%
D15*
%TO.C,R226*%
X92107501Y-59332499D03*
X92107501Y-58312501D03*
%TD*%
D31*
%TO.C,D204*%
X108937501Y-86250000D03*
X107362499Y-86250000D03*
%TD*%
D14*
%TO.C,D213*%
X93890418Y-57090000D03*
X95465420Y-57090000D03*
%TD*%
D32*
%TO.C,C204*%
X94162500Y-71625000D03*
X95122500Y-71625000D03*
%TD*%
D12*
%TO.C,JP101*%
X51775000Y-75000000D03*
D13*
X54315000Y-75000000D03*
%TD*%
D15*
%TO.C,R103*%
X88100000Y-67534999D03*
X88100000Y-66515001D03*
%TD*%
%TO.C,R221*%
X112078750Y-70822499D03*
X112078750Y-69802501D03*
%TD*%
D33*
%TO.C,C111*%
X75150000Y-66250000D03*
X73600000Y-66250000D03*
%TD*%
D15*
%TO.C,R216*%
X102257501Y-59360000D03*
X102257501Y-58340002D03*
%TD*%
D28*
%TO.C,R101*%
X87025000Y-66540001D03*
X87025000Y-67559999D03*
%TD*%
D17*
%TO.C,R232*%
X110006667Y-90700001D03*
X111026665Y-90700001D03*
%TD*%
D33*
%TO.C,C115*%
X75000000Y-77200000D03*
X73450000Y-77200000D03*
%TD*%
D30*
%TO.C,Q203*%
X105244580Y-62777501D03*
X107144580Y-62777501D03*
X106194580Y-60902500D03*
%TD*%
D34*
%TO.C,C114*%
X69725000Y-77200000D03*
X71275000Y-77200000D03*
%TD*%
D35*
%TO.C,F101*%
X60600000Y-61015000D03*
X60600000Y-67385000D03*
%TD*%
D28*
%TO.C,R217*%
X98870000Y-62320002D03*
X98870000Y-63340000D03*
%TD*%
D12*
%TO.C,J214*%
X122370000Y-66680000D03*
D13*
X124910000Y-66680000D03*
X127449999Y-66680000D03*
%TD*%
D28*
%TO.C,R219*%
X120097499Y-70790002D03*
X120097499Y-71810000D03*
%TD*%
D11*
%TO.C,C104*%
X93118200Y-84470002D03*
X93118200Y-85430002D03*
%TD*%
D30*
%TO.C,Q210*%
X84920000Y-62737499D03*
X86820000Y-62737499D03*
X85870000Y-60862498D03*
%TD*%
D20*
%TO.C,C201*%
X102876666Y-90700001D03*
X101916666Y-90700001D03*
%TD*%
D15*
%TO.C,R207*%
X106000000Y-87259999D03*
X106000000Y-86240001D03*
%TD*%
D36*
%TO.C,D216*%
X85807501Y-58850000D03*
X83707501Y-58850000D03*
%TD*%
D15*
%TO.C,R501*%
X61400000Y-93709999D03*
X61400000Y-92690001D03*
%TD*%
D14*
%TO.C,D203*%
X109144580Y-57090000D03*
X110719582Y-57090000D03*
%TD*%
D37*
%TO.C,U201*%
X116745000Y-85575000D03*
X118015000Y-85575000D03*
X119285000Y-85575000D03*
X120555000Y-85575000D03*
X120555000Y-80625000D03*
X119285000Y-80625000D03*
X118015000Y-80625000D03*
X116745000Y-80625000D03*
%TD*%
D36*
%TO.C,D110*%
X75150000Y-79000000D03*
X73050000Y-79000000D03*
%TD*%
D38*
%TO.C,TP203*%
X112910000Y-76140000D03*
%TD*%
D28*
%TO.C,R102*%
X60400000Y-70840001D03*
X60400000Y-71859999D03*
%TD*%
D39*
%TO.C,D103*%
X61700000Y-72675002D03*
X61700000Y-71100000D03*
%TD*%
D14*
%TO.C,D217*%
X83720000Y-57050000D03*
X85295002Y-57050000D03*
%TD*%
D15*
%TO.C,R206*%
X97550000Y-83950000D03*
X97550000Y-82930002D03*
%TD*%
D36*
%TO.C,D101*%
X54100000Y-72150000D03*
X52000000Y-72150000D03*
%TD*%
D17*
%TO.C,R230*%
X103876669Y-90700002D03*
X104896667Y-90700002D03*
%TD*%
%TO.C,R105*%
X98700000Y-90700000D03*
X99719998Y-90700000D03*
%TD*%
D11*
%TO.C,C112*%
X76400001Y-65950001D03*
X76400001Y-66910001D03*
%TD*%
D14*
%TO.C,D207*%
X104044580Y-57090002D03*
X105619582Y-57090002D03*
%TD*%
D28*
%TO.C,R213*%
X91500000Y-96955004D03*
X91500000Y-97975002D03*
%TD*%
D12*
%TO.C,J207*%
X66530002Y-97725000D03*
D13*
X63990002Y-97725000D03*
X66530002Y-95185000D03*
X63990002Y-95185000D03*
X66530002Y-92645001D03*
X63990002Y-92645000D03*
%TD*%
D17*
%TO.C,R215*%
X93230002Y-88350000D03*
X94250000Y-88350000D03*
%TD*%
D19*
%TO.C,Q204*%
X106450000Y-82750000D03*
X106450000Y-84650000D03*
X108325001Y-83700000D03*
%TD*%
D15*
%TO.C,R210*%
X107332081Y-59360000D03*
X107332081Y-58340002D03*
%TD*%
D28*
%TO.C,R234*%
X83620000Y-62280000D03*
X83620000Y-63299998D03*
%TD*%
D20*
%TO.C,C202*%
X109006665Y-90700002D03*
X108046665Y-90700002D03*
%TD*%
D34*
%TO.C,C110*%
X69850000Y-66250000D03*
X71400000Y-66250000D03*
%TD*%
D12*
%TO.C,J204*%
X116752081Y-51810000D03*
D13*
X116752081Y-54350000D03*
X114212081Y-51810000D03*
X114212081Y-54350000D03*
X111672082Y-51810000D03*
X111672081Y-54350000D03*
X109132081Y-51810000D03*
X109132081Y-54350000D03*
X106592081Y-51810000D03*
X106592081Y-54350000D03*
X104052081Y-51810000D03*
X104052081Y-54350000D03*
X101512081Y-51810000D03*
X101512081Y-54350000D03*
X98972080Y-51810000D03*
X98972081Y-54350000D03*
X96432081Y-51810000D03*
X96432081Y-54350000D03*
X93892081Y-51810000D03*
X93892081Y-54350000D03*
X91352081Y-51810000D03*
X91352081Y-54350000D03*
X88812082Y-51810000D03*
X88812081Y-54350000D03*
X86272081Y-51810000D03*
X86272081Y-54350000D03*
X83732081Y-51810000D03*
X83732081Y-54350000D03*
X81192081Y-51810000D03*
X81192081Y-54350000D03*
X78652082Y-51810000D03*
X78652081Y-54350000D03*
%TD*%
D28*
%TO.C,R211*%
X103944580Y-62320002D03*
X103944580Y-63340000D03*
%TD*%
D23*
%TO.C,D208*%
X92850000Y-96400000D03*
X92850000Y-97975002D03*
%TD*%
D40*
%TO.C,D104*%
X66950001Y-66050000D03*
X66950001Y-68150000D03*
%TD*%
D15*
%TO.C,R201*%
X99750000Y-87259999D03*
X99750000Y-86240001D03*
%TD*%
D41*
%TO.C,C106*%
X97768200Y-77500003D03*
X97768200Y-75950003D03*
%TD*%
D23*
%TO.C,D211*%
X118712500Y-70237498D03*
X118712500Y-71812500D03*
%TD*%
D41*
%TO.C,C301*%
X64950000Y-86975000D03*
X64950000Y-85425000D03*
%TD*%
D11*
%TO.C,C107*%
X96468200Y-77500002D03*
X96468200Y-78460002D03*
%TD*%
D16*
%TO.C,R228*%
X104896666Y-89600000D03*
X103876668Y-89600000D03*
%TD*%
D15*
%TO.C,R233*%
X87007501Y-59319998D03*
X87007501Y-58300000D03*
%TD*%
%TO.C,R222*%
X97177919Y-59359998D03*
X97177919Y-58340000D03*
%TD*%
D20*
%TO.C,C108*%
X115696667Y-91500002D03*
X114736667Y-91500002D03*
%TD*%
D36*
%TO.C,D107*%
X75300001Y-68049999D03*
X73200001Y-68049999D03*
%TD*%
D42*
%TO.C,U101*%
X92530700Y-81500000D03*
X92530700Y-81000000D03*
X92530700Y-80500000D03*
X92530700Y-79999999D03*
X92530700Y-79500000D03*
X92530700Y-79000000D03*
X92530700Y-78500000D03*
X92530700Y-78000000D03*
X92530700Y-77500001D03*
X92530700Y-77000000D03*
X92530700Y-76500000D03*
X92530700Y-76000000D03*
D43*
X91118200Y-74587500D03*
X90618200Y-74587500D03*
X90118200Y-74587500D03*
X89618199Y-74587500D03*
X89118200Y-74587500D03*
X88618200Y-74587500D03*
X88118200Y-74587500D03*
X87618200Y-74587500D03*
X87118201Y-74587500D03*
X86618200Y-74587500D03*
X86118200Y-74587500D03*
X85618200Y-74587500D03*
D42*
X84205700Y-76000000D03*
X84205700Y-76500000D03*
X84205700Y-77000000D03*
X84205700Y-77500001D03*
X84205700Y-78000000D03*
X84205700Y-78500000D03*
X84205700Y-79000000D03*
X84205700Y-79500000D03*
X84205700Y-79999999D03*
X84205700Y-80500000D03*
X84205700Y-81000000D03*
X84205700Y-81500000D03*
D43*
X85618200Y-82912500D03*
X86118200Y-82912500D03*
X86618200Y-82912500D03*
X87118201Y-82912500D03*
X87618200Y-82912500D03*
X88118200Y-82912500D03*
X88618200Y-82912500D03*
X89118200Y-82912500D03*
X89618199Y-82912500D03*
X90118200Y-82912500D03*
X90618200Y-82912500D03*
X91118200Y-82912500D03*
%TD*%
D44*
%TO.C,F301*%
X61487499Y-86750000D03*
X63362501Y-86750000D03*
%TD*%
D32*
%TO.C,C502*%
X81870001Y-93100000D03*
X82830001Y-93100000D03*
%TD*%
D15*
%TO.C,R225*%
X88720000Y-61332499D03*
X88720000Y-60312501D03*
%TD*%
D45*
%TO.C,H101*%
X55000000Y-55000000D03*
D46*
X55000000Y-55000000D03*
%TD*%
D28*
%TO.C,R223*%
X93790418Y-62320000D03*
X93790418Y-63339998D03*
%TD*%
D15*
%TO.C,R231*%
X83620000Y-61319998D03*
X83620000Y-60300000D03*
%TD*%
D38*
%TO.C,TP201*%
X112910000Y-80140000D03*
%TD*%
D16*
%TO.C,R229*%
X111026665Y-89600000D03*
X110006667Y-89600000D03*
%TD*%
D17*
%TO.C,R302*%
X61205002Y-85125000D03*
X62225000Y-85125000D03*
%TD*%
D33*
%TO.C,C105*%
X82168200Y-84300002D03*
X80618200Y-84300002D03*
%TD*%
D12*
%TO.C,J211*%
X122370000Y-64140000D03*
D13*
X124910000Y-64140000D03*
X127449999Y-64140000D03*
%TD*%
D47*
%TO.C,U501*%
X85825000Y-98504999D03*
X85825000Y-97234999D03*
X85825000Y-95964999D03*
X85825000Y-94694999D03*
X80875000Y-94694999D03*
X80875000Y-95964999D03*
X80875000Y-97234999D03*
X80875000Y-98504999D03*
%TD*%
D15*
%TO.C,R224*%
X113128750Y-70822499D03*
X113128750Y-69802501D03*
%TD*%
D36*
%TO.C,D209*%
X101057501Y-58890002D03*
X98957501Y-58890002D03*
%TD*%
D45*
%TO.C,H103*%
X55000000Y-95000000D03*
D46*
X55000000Y-95000000D03*
%TD*%
D38*
%TO.C,TP202*%
X119950000Y-90200000D03*
%TD*%
D26*
%TO.C,SW202*%
X111033333Y-92000000D03*
X111033333Y-98000000D03*
X107283333Y-92000000D03*
X107283333Y-98000000D03*
%TD*%
%TO.C,SW201*%
X104875000Y-92000000D03*
X104875000Y-98000000D03*
X101125000Y-92000000D03*
X101125000Y-98000000D03*
%TD*%
D19*
%TO.C,Q206*%
X91802503Y-89649999D03*
X91802503Y-91549999D03*
X93677504Y-90599999D03*
%TD*%
D15*
%TO.C,R214*%
X98870000Y-61360000D03*
X98870000Y-60340002D03*
%TD*%
D10*
%TO.C,D206*%
X60500000Y-57500000D03*
X60500000Y-55400000D03*
%TD*%
D45*
%TO.C,H102*%
X125000000Y-55000000D03*
D46*
X125000000Y-55000000D03*
%TD*%
D28*
%TO.C,R227*%
X88720000Y-62292501D03*
X88720000Y-63312499D03*
%TD*%
D23*
%TO.C,D111*%
X64975000Y-60137499D03*
X64975000Y-61712501D03*
%TD*%
D11*
%TO.C,C109*%
X68500000Y-65970000D03*
X68500000Y-66930000D03*
%TD*%
D19*
%TO.C,Q202*%
X100200000Y-82750000D03*
X100200000Y-84650000D03*
X102075001Y-83700000D03*
%TD*%
D15*
%TO.C,R208*%
X103944580Y-61360000D03*
X103944580Y-60340002D03*
%TD*%
D30*
%TO.C,Q201*%
X110344580Y-62777499D03*
X112244580Y-62777499D03*
X111294580Y-60902498D03*
%TD*%
D45*
%TO.C,H104*%
X125000000Y-95000000D03*
D46*
X125000000Y-95000000D03*
%TD*%
D23*
%TO.C,D108*%
X67150001Y-58900000D03*
X67150001Y-60475002D03*
%TD*%
D18*
%TO.C,C203*%
X116750000Y-78205000D03*
X116750000Y-77245000D03*
%TD*%
D30*
%TO.C,Q205*%
X100170000Y-62777501D03*
X102070000Y-62777501D03*
X101120000Y-60902500D03*
%TD*%
D36*
%TO.C,D214*%
X90907501Y-58862501D03*
X88807501Y-58862501D03*
%TD*%
%TO.C,D205*%
X106132081Y-58890002D03*
X104032081Y-58890002D03*
%TD*%
D48*
%TO.C,U202*%
X98175000Y-70500000D03*
X98175000Y-69850000D03*
X98175000Y-69200000D03*
X98175000Y-68550000D03*
X98175000Y-67900000D03*
X98175000Y-67250000D03*
X98175000Y-66600000D03*
X98175000Y-65950000D03*
X98175000Y-65300000D03*
X98175000Y-64650000D03*
X92450000Y-64650000D03*
X92450000Y-65300000D03*
X92450000Y-65950000D03*
X92450000Y-66600000D03*
X92450000Y-67250000D03*
X92450000Y-67900000D03*
X92450000Y-68550000D03*
X92450000Y-69200000D03*
X92450000Y-69850000D03*
X92450000Y-70500000D03*
%TD*%
D11*
%TO.C,C116*%
X76300000Y-76900000D03*
X76300000Y-77860000D03*
%TD*%
D28*
%TO.C,R205*%
X109044580Y-62320000D03*
X109044580Y-63339998D03*
%TD*%
D12*
%TO.C,J205*%
X51725000Y-62920000D03*
D13*
X54265000Y-62920000D03*
X51725000Y-65460000D03*
X54265000Y-65460000D03*
X51725000Y-68000000D03*
X54265000Y-68000000D03*
%TD*%
D15*
%TO.C,R212*%
X104850000Y-82009999D03*
X104850000Y-80990001D03*
%TD*%
D32*
%TO.C,C501*%
X84020001Y-93100000D03*
X84980001Y-93100000D03*
%TD*%
D28*
%TO.C,R209*%
X104850000Y-83950000D03*
X104850000Y-84969998D03*
%TD*%
D15*
%TO.C,R220*%
X93790418Y-61359998D03*
X93790418Y-60340000D03*
%TD*%
D31*
%TO.C,D201*%
X102687501Y-86250000D03*
X101112499Y-86250000D03*
%TD*%
D36*
%TO.C,D212*%
X95977919Y-58890000D03*
X93877919Y-58890000D03*
%TD*%
D49*
%TO.C,J301*%
X56700000Y-79360000D03*
X56700000Y-85140000D03*
D50*
X58145000Y-79000000D03*
X58145000Y-79799999D03*
D51*
X58144999Y-81000000D03*
X58145000Y-82000000D03*
X58145000Y-82500000D03*
X58144999Y-83500000D03*
D50*
X58145000Y-84700001D03*
X58145000Y-85500000D03*
X58145000Y-85500000D03*
X58145000Y-84700001D03*
D51*
X58145000Y-84000000D03*
X58145000Y-83000000D03*
X58145000Y-81500000D03*
X58145000Y-80500000D03*
D50*
X58145000Y-79799999D03*
X58145000Y-79000000D03*
D52*
X57230000Y-77930000D03*
D53*
X53050000Y-77930000D03*
D52*
X57230000Y-86570000D03*
D53*
X53050000Y-86570000D03*
%TD*%
D16*
%TO.C,R106*%
X67560000Y-61800000D03*
X66540002Y-61800000D03*
%TD*%
D26*
%TO.C,SW102*%
X117191666Y-92000000D03*
X117191666Y-98000000D03*
X113441666Y-92000000D03*
X113441666Y-98000000D03*
%TD*%
D54*
%TO.C,D501*%
X71587500Y-97400000D03*
X71587500Y-95500000D03*
X69712499Y-96450000D03*
%TD*%
D17*
%TO.C,R301*%
X61200000Y-80575000D03*
X62220000Y-80575000D03*
%TD*%
D24*
%TO.C,RV202*%
X125450000Y-77680000D03*
D25*
X122910000Y-75140000D03*
X125450000Y-72600000D03*
%TD*%
D16*
%TO.C,R218*%
X92260000Y-88350000D03*
X91240002Y-88350000D03*
%TD*%
D30*
%TO.C,Q209*%
X90020000Y-62750000D03*
X91920000Y-62750000D03*
X90970000Y-60874999D03*
%TD*%
D36*
%TO.C,D202*%
X111232081Y-58890000D03*
X109132081Y-58890000D03*
%TD*%
M02*
