M48
; DRILL file {KiCad 8.0.5} date 2024-10-04T16:45:10+0800
; FORMAT={-:-/ absolute / inch / decimal}
; #@! TF.CreationDate,2024-10-04T16:45:10+08:00
; #@! TF.GenerationSoftware,Kicad,Pcbnew,8.0.5
; #@! TF.FileFunction,Plated,1,2,PTH
FMAT,2
INCH
; #@! TA.AperFunction,Plated,PTH,ViaDrill
T1C0.0118
; #@! TA.AperFunction,Plated,PTH,ViaDrill
T2C0.0157
; #@! TA.AperFunction,Plated,PTH,ViaDrill
T3C0.0197
; #@! TA.AperFunction,Plated,PTH,ComponentDrill
T4C0.0236
; #@! TA.AperFunction,Plated,PTH,ComponentDrill
T5C0.0276
; #@! TA.AperFunction,Plated,PTH,ComponentDrill
T6C0.0281
; #@! TA.AperFunction,Plated,PTH,ComponentDrill
T7C0.0394
; #@! TA.AperFunction,Plated,PTH,ComponentDrill
T8C0.1693
%
G90
G05
T1
X2.3504Y-2.1378
X2.3504Y-2.1654
X2.3819Y-2.1378
X2.3858Y-2.8642
X2.4114Y-2.1378
X2.4114Y-2.1654
X2.4291Y-2.9035
X3.1014Y-3.4596
X3.1555Y-3.453
X3.2589Y-3.5423
T2
X2.2815Y-2.5817
X2.2825Y-2.6181
X2.2825Y-2.6585
X2.2825Y-2.6949
X2.2835Y-2.7333
X2.2844Y-2.7697
X2.3199Y-2.7697
X2.3524Y-3.356
X2.3533Y-3.1417
X2.3755Y-3.2613
X2.4587Y-3.7953
X2.4852Y-3.1722
X2.498Y-3.3533
X2.5571Y-2.561
X2.5581Y-2.3189
X2.5581Y-3.4734
X2.5689Y-3.2618
X2.5925Y-2.3189
X2.6604Y-3.3435
X2.687Y-3.7982
X2.6929Y-3.0984
X2.6969Y-2.6752
X2.7402Y-3.1693
X2.7972Y-2.3228
X2.7972Y-2.3661
X2.812Y-3.7982
X2.8504Y-3.0118
X2.8504Y-3.0512
X2.8504Y-3.0866
X2.8504Y-3.1319
X2.8543Y-2.5906
X2.8543Y-2.7047
X2.8543Y-2.624
X2.8543Y-2.6575
X2.8661Y-3.7992
X2.9075Y-3.1831
X3.0039Y-3.1024
X3.0138Y-3.6654
X3.0157Y-2.6791
X3.0512Y-2.2883
X3.0512Y-2.3316
X3.0512Y-2.3749
X3.0512Y-2.5048
X3.0512Y-2.5481
X3.0512Y-2.5914
X3.0512Y-2.6347
X3.0512Y-2.678
X3.0512Y-2.7213
X3.0512Y-2.7647
X3.0512Y-2.808
X3.0512Y-2.938
X3.0512Y-2.9813
X3.0512Y-3.0246
X3.0512Y-3.0679
X3.1287Y-3.3189
X3.1516Y-3.6378
X3.1621Y-3.2677
X3.1811Y-3.4114
X3.2356Y-3.2051
X3.2469Y-2.4154
X3.25Y-3.874
X3.25Y-3.7717
X3.25Y-3.8228
X3.2618Y-3.628
X3.2815Y-3.3189
X3.2913Y-2.9134
X3.2921Y-2.8051
X3.3169Y-3.8228
X3.3169Y-3.874
X3.331Y-2.376
X3.3445Y-3.623
X3.3622Y-2.5886
X3.374Y-3.189
X3.3762Y-2.8725
X3.3799Y-3.6634
X3.3846Y-2.4705
X3.3898Y-2.9941
X3.4252Y-2.5276
X3.4255Y-2.374
X3.4429Y-3.7756
X3.4429Y-3.8228
X3.4429Y-3.7244
X3.4634Y-2.4528
X3.4675Y-2.5719
X3.48Y-3.437
X3.4862Y-3.5925
X3.5318Y-2.3765
X3.5354Y-3.7244
X3.5669Y-3.2028
X3.5808Y-3.3271
X3.5827Y-3.6496
X3.5846Y-3.0709
X3.5854Y-2.471
X3.5906Y-3.437
X3.6024Y-3.7795
X3.6083Y-3.5669
X3.626Y-3.6496
X3.6263Y-2.3745
X3.6464Y-3.2657
X3.6622Y-2.4547
X3.6634Y-3.4409
X3.6661Y-3.3976
X3.6713Y-2.8199
X3.7047Y-2.6614
X3.7102Y-2.7624
X3.7106Y-3.4429
X3.7106Y-3.5177
X3.7113Y-3.3976
X3.7126Y-2.5531
X3.7314Y-2.3776
X3.743Y-3.2817
X3.7446Y-2.7766
X3.7446Y-2.8573
X3.7461Y-2.685
X3.748Y-3.3248
X3.753Y-2.5856
X3.7851Y-2.472
X3.7992Y-2.5925
X3.8012Y-3.002
X3.811Y-2.7756
X3.811Y-2.815
X3.813Y-2.5453
X3.8259Y-2.3756
X3.8354Y-3.1004
X3.8406Y-3.5709
X3.8491Y-2.9449
X3.8504Y-2.815
X3.8661Y-2.4547
X3.878Y-3.3858
X3.8858Y-2.815
X3.9154Y-2.9395
X3.9272Y-3.4724
X3.9291Y-3.6083
X3.9314Y-2.3776
X3.9449Y-3.2953
X3.9577Y-2.5453
X3.9646Y-3.1969
X3.981Y-3.6654
X3.981Y-3.5709
X3.985Y-2.472
X4.0203Y-3.6063
X4.0259Y-2.3756
X4.0335Y-3.1988
X4.0394Y-3.248
X4.124Y-3.3858
X4.128Y-3.2677
X4.1312Y-2.3776
X4.166Y-3.5276
X4.1791Y-3.813
X4.1848Y-2.472
X4.1909Y-3.2953
X4.1969Y-3.1791
X4.2211Y-3.5709
X4.2251Y-3.6654
X4.2251Y-3.815
X4.2257Y-2.3756
X4.2644Y-3.6063
X4.2854Y-3.248
X4.332Y-2.3776
X4.3856Y-2.472
X4.4062Y-3.5276
X4.4114Y-2.8396
X4.4116Y-2.7131
X4.4265Y-2.3756
X4.4641Y-2.8253
X4.4652Y-3.5787
X4.4652Y-3.815
X4.4652Y-3.6654
X4.5153Y-2.7869
X4.5164Y-3.6654
X4.5472Y-2.4587
X4.565Y-3.0039
X4.5684Y-2.8263
X4.5689Y-3.25
X4.5689Y-3.2953
X4.6083Y-3.0039
X4.6161Y-3.248
X4.6161Y-3.2953
X4.622Y-3.4429
X4.6555Y-3.0039
X4.6683Y-2.2313
X4.7008Y-3.435
X4.7067Y-3.0827
X4.7106Y-3.0039
X4.7286Y-2.7519
X4.7461Y-3.3031
X4.7461Y-3.435
X4.7874Y-3.435
X4.8002Y-3.1122
X4.8514Y-2.8888
T3
X2.3455Y-3.0846
X2.3455Y-3.4222
X2.6378Y-2.5236
X2.6378Y-2.8622
X2.8346Y-2.9528
X3.0511Y-2.4331
X3.1452Y-2.7682
T5
X4.4453Y-2.9976
X4.4453Y-3.1551
X4.7224Y-3.5512
T6
X4.839Y-2.9583
X4.839Y-3.2732
X4.939Y-2.8583
X4.939Y-3.0583
X4.939Y-3.1732
X4.939Y-3.3732
T7
X2.0364Y-2.4772
X2.0364Y-2.5772
X2.0364Y-2.6772
X2.0384Y-2.9528
X2.1364Y-2.4772
X2.1364Y-2.5772
X2.1364Y-2.6772
X2.1384Y-2.9528
X2.4965Y-2.0398
X2.4965Y-2.1398
X2.5193Y-3.6474
X2.5193Y-3.7474
X2.5193Y-3.8474
X2.5965Y-2.0398
X2.5965Y-2.1398
X2.6193Y-3.6474
X2.6193Y-3.7474
X2.6193Y-3.8474
X2.6965Y-2.1398
X2.6965Y-2.0398
X2.7693Y-3.5486
X2.7965Y-2.0398
X2.7965Y-2.1398
X2.8693Y-3.5486
X2.8965Y-2.0398
X2.8965Y-2.1398
X2.9693Y-3.5486
X2.9965Y-2.0398
X2.9965Y-2.1398
X3.0693Y-3.5486
X3.0965Y-2.1398
X3.0965Y-2.0398
X3.1965Y-2.0398
X3.1965Y-2.1398
X3.2965Y-2.0398
X3.2965Y-2.1398
X3.3965Y-2.0398
X3.3965Y-2.1398
X3.4965Y-2.1398
X3.4965Y-2.0398
X3.5965Y-2.0398
X3.5965Y-2.1398
X3.6965Y-2.0398
X3.6965Y-2.1398
X3.7965Y-2.0398
X3.7965Y-2.1398
X3.8965Y-2.0398
X3.8965Y-2.1398
X3.9965Y-2.0398
X3.9965Y-2.1398
X4.0965Y-2.0398
X4.0965Y-2.1398
X4.1965Y-2.0398
X4.1965Y-2.1398
X4.2965Y-2.0398
X4.2965Y-2.1398
X4.3965Y-2.1398
X4.3965Y-2.0398
X4.4965Y-2.0398
X4.4965Y-2.1398
X4.5965Y-2.0398
X4.5965Y-2.1398
X4.8177Y-2.5252
X4.8177Y-2.6252
X4.8177Y-2.7252
X4.9177Y-2.5252
X4.9177Y-2.6252
X4.9177Y-2.7252
X5.0177Y-2.5252
X5.0177Y-2.6252
X5.0177Y-2.7252
T8
X2.1654Y-2.1654
X2.1654Y-3.7402
X4.9213Y-2.1654
X4.9213Y-3.7402
T4
G00X2.1004Y-3.0681
M15
G01X2.0768Y-3.0681
M16
G05
G00X2.1004Y-3.4083
M15
G01X2.0768Y-3.4083
M16
G05
G00X2.2748Y-3.0681
M15
G01X2.2315Y-3.0681
M16
G05
G00X2.2748Y-3.4083
M15
G01X2.2315Y-3.4083
M16
G05
M30
