%TF.GenerationSoftware,KiCad,Pcbnew,8.0.5*%
%TF.CreationDate,2024-10-04T16:45:10+08:00*%
%TF.ProjectId,Chao Recruit,4368616f-2052-4656-9372-7569742e6b69,rev?*%
%TF.SameCoordinates,Original*%
%TF.FileFunction,Legend,Bot*%
%TF.FilePolarity,Positive*%
%FSLAX46Y46*%
G04 Gerber Fmt 4.6, Leading zero omitted, Abs format (unit mm)*
G04 Created by KiCad (PCBNEW 8.0.5) date 2024-10-04 16:45:10*
%MOMM*%
%LPD*%
G01*
G04 APERTURE LIST*
G04 Aperture macros list*
%AMRoundRect*
0 Rectangle with rounded corners*
0 $1 Rounding radius*
0 $2 $3 $4 $5 $6 $7 $8 $9 X,Y pos of 4 corners*
0 Add a 4 corners polygon primitive as box body*
4,1,4,$2,$3,$4,$5,$6,$7,$8,$9,$2,$3,0*
0 Add four circle primitives for the rounded corners*
1,1,$1+$1,$2,$3*
1,1,$1+$1,$4,$5*
1,1,$1+$1,$6,$7*
1,1,$1+$1,$8,$9*
0 Add four rect primitives between the rounded corners*
20,1,$1+$1,$2,$3,$4,$5,0*
20,1,$1+$1,$4,$5,$6,$7,0*
20,1,$1+$1,$6,$7,$8,$9,0*
20,1,$1+$1,$8,$9,$2,$3,0*%
G04 Aperture macros list end*
%ADD10C,0.200000*%
%ADD11C,0.350000*%
%ADD12R,1.700000X1.700000*%
%ADD13O,1.700000X1.700000*%
%ADD14RoundRect,0.102000X0.611000X-0.611000X0.611000X0.611000X-0.611000X0.611000X-0.611000X-0.611000X0*%
%ADD15C,1.426000*%
%ADD16C,1.500000*%
%ADD17C,4.700000*%
%ADD18C,7.500000*%
%ADD19C,0.650000*%
%ADD20O,2.100000X1.000000*%
%ADD21O,1.600000X1.000000*%
G04 APERTURE END LIST*
D10*
X112296993Y-87630457D02*
X112354136Y-87687600D01*
X112354136Y-87687600D02*
X112525564Y-87744742D01*
X112525564Y-87744742D02*
X112639850Y-87744742D01*
X112639850Y-87744742D02*
X112811279Y-87687600D01*
X112811279Y-87687600D02*
X112925564Y-87573314D01*
X112925564Y-87573314D02*
X112982707Y-87459028D01*
X112982707Y-87459028D02*
X113039850Y-87230457D01*
X113039850Y-87230457D02*
X113039850Y-87059028D01*
X113039850Y-87059028D02*
X112982707Y-86830457D01*
X112982707Y-86830457D02*
X112925564Y-86716171D01*
X112925564Y-86716171D02*
X112811279Y-86601885D01*
X112811279Y-86601885D02*
X112639850Y-86544742D01*
X112639850Y-86544742D02*
X112525564Y-86544742D01*
X112525564Y-86544742D02*
X112354136Y-86601885D01*
X112354136Y-86601885D02*
X112296993Y-86659028D01*
X111782707Y-87744742D02*
X111782707Y-86544742D01*
X111268422Y-87744742D02*
X111268422Y-87116171D01*
X111268422Y-87116171D02*
X111325564Y-87001885D01*
X111325564Y-87001885D02*
X111439850Y-86944742D01*
X111439850Y-86944742D02*
X111611279Y-86944742D01*
X111611279Y-86944742D02*
X111725564Y-87001885D01*
X111725564Y-87001885D02*
X111782707Y-87059028D01*
X110182708Y-87744742D02*
X110182708Y-87116171D01*
X110182708Y-87116171D02*
X110239850Y-87001885D01*
X110239850Y-87001885D02*
X110354136Y-86944742D01*
X110354136Y-86944742D02*
X110582708Y-86944742D01*
X110582708Y-86944742D02*
X110696993Y-87001885D01*
X110182708Y-87687600D02*
X110296993Y-87744742D01*
X110296993Y-87744742D02*
X110582708Y-87744742D01*
X110582708Y-87744742D02*
X110696993Y-87687600D01*
X110696993Y-87687600D02*
X110754136Y-87573314D01*
X110754136Y-87573314D02*
X110754136Y-87459028D01*
X110754136Y-87459028D02*
X110696993Y-87344742D01*
X110696993Y-87344742D02*
X110582708Y-87287600D01*
X110582708Y-87287600D02*
X110296993Y-87287600D01*
X110296993Y-87287600D02*
X110182708Y-87230457D01*
X109439851Y-87744742D02*
X109554136Y-87687600D01*
X109554136Y-87687600D02*
X109611279Y-87630457D01*
X109611279Y-87630457D02*
X109668422Y-87516171D01*
X109668422Y-87516171D02*
X109668422Y-87173314D01*
X109668422Y-87173314D02*
X109611279Y-87059028D01*
X109611279Y-87059028D02*
X109554136Y-87001885D01*
X109554136Y-87001885D02*
X109439851Y-86944742D01*
X109439851Y-86944742D02*
X109268422Y-86944742D01*
X109268422Y-86944742D02*
X109154136Y-87001885D01*
X109154136Y-87001885D02*
X109096994Y-87059028D01*
X109096994Y-87059028D02*
X109039851Y-87173314D01*
X109039851Y-87173314D02*
X109039851Y-87516171D01*
X109039851Y-87516171D02*
X109096994Y-87630457D01*
X109096994Y-87630457D02*
X109154136Y-87687600D01*
X109154136Y-87687600D02*
X109268422Y-87744742D01*
X109268422Y-87744742D02*
X109439851Y-87744742D01*
X106925565Y-87744742D02*
X107325565Y-87173314D01*
X107611279Y-87744742D02*
X107611279Y-86544742D01*
X107611279Y-86544742D02*
X107154136Y-86544742D01*
X107154136Y-86544742D02*
X107039851Y-86601885D01*
X107039851Y-86601885D02*
X106982708Y-86659028D01*
X106982708Y-86659028D02*
X106925565Y-86773314D01*
X106925565Y-86773314D02*
X106925565Y-86944742D01*
X106925565Y-86944742D02*
X106982708Y-87059028D01*
X106982708Y-87059028D02*
X107039851Y-87116171D01*
X107039851Y-87116171D02*
X107154136Y-87173314D01*
X107154136Y-87173314D02*
X107611279Y-87173314D01*
X105954136Y-87687600D02*
X106068422Y-87744742D01*
X106068422Y-87744742D02*
X106296994Y-87744742D01*
X106296994Y-87744742D02*
X106411279Y-87687600D01*
X106411279Y-87687600D02*
X106468422Y-87573314D01*
X106468422Y-87573314D02*
X106468422Y-87116171D01*
X106468422Y-87116171D02*
X106411279Y-87001885D01*
X106411279Y-87001885D02*
X106296994Y-86944742D01*
X106296994Y-86944742D02*
X106068422Y-86944742D01*
X106068422Y-86944742D02*
X105954136Y-87001885D01*
X105954136Y-87001885D02*
X105896994Y-87116171D01*
X105896994Y-87116171D02*
X105896994Y-87230457D01*
X105896994Y-87230457D02*
X106468422Y-87344742D01*
X104868423Y-87687600D02*
X104982708Y-87744742D01*
X104982708Y-87744742D02*
X105211280Y-87744742D01*
X105211280Y-87744742D02*
X105325565Y-87687600D01*
X105325565Y-87687600D02*
X105382708Y-87630457D01*
X105382708Y-87630457D02*
X105439851Y-87516171D01*
X105439851Y-87516171D02*
X105439851Y-87173314D01*
X105439851Y-87173314D02*
X105382708Y-87059028D01*
X105382708Y-87059028D02*
X105325565Y-87001885D01*
X105325565Y-87001885D02*
X105211280Y-86944742D01*
X105211280Y-86944742D02*
X104982708Y-86944742D01*
X104982708Y-86944742D02*
X104868423Y-87001885D01*
X104354137Y-87744742D02*
X104354137Y-86944742D01*
X104354137Y-87173314D02*
X104296994Y-87059028D01*
X104296994Y-87059028D02*
X104239852Y-87001885D01*
X104239852Y-87001885D02*
X104125566Y-86944742D01*
X104125566Y-86944742D02*
X104011280Y-86944742D01*
X103096995Y-86944742D02*
X103096995Y-87744742D01*
X103611280Y-86944742D02*
X103611280Y-87573314D01*
X103611280Y-87573314D02*
X103554137Y-87687600D01*
X103554137Y-87687600D02*
X103439852Y-87744742D01*
X103439852Y-87744742D02*
X103268423Y-87744742D01*
X103268423Y-87744742D02*
X103154137Y-87687600D01*
X103154137Y-87687600D02*
X103096995Y-87630457D01*
X102525566Y-87744742D02*
X102525566Y-86944742D01*
X102525566Y-86544742D02*
X102582709Y-86601885D01*
X102582709Y-86601885D02*
X102525566Y-86659028D01*
X102525566Y-86659028D02*
X102468423Y-86601885D01*
X102468423Y-86601885D02*
X102525566Y-86544742D01*
X102525566Y-86544742D02*
X102525566Y-86659028D01*
X102125566Y-86944742D02*
X101668423Y-86944742D01*
X101954137Y-86544742D02*
X101954137Y-87573314D01*
X101954137Y-87573314D02*
X101896994Y-87687600D01*
X101896994Y-87687600D02*
X101782709Y-87744742D01*
X101782709Y-87744742D02*
X101668423Y-87744742D01*
X100468423Y-86944742D02*
X100182709Y-87744742D01*
X100182709Y-87744742D02*
X99896994Y-86944742D01*
X98811280Y-87744742D02*
X99496994Y-87744742D01*
X99154137Y-87744742D02*
X99154137Y-86544742D01*
X99154137Y-86544742D02*
X99268423Y-86716171D01*
X99268423Y-86716171D02*
X99382708Y-86830457D01*
X99382708Y-86830457D02*
X99496994Y-86887600D01*
D11*
G36*
X110875596Y-84212766D02*
G01*
X110930673Y-84267843D01*
X110994736Y-84395968D01*
X110994736Y-84884772D01*
X110930672Y-85012899D01*
X110875597Y-85067975D01*
X110747472Y-85132038D01*
X110544382Y-85132038D01*
X110416256Y-85067975D01*
X110361180Y-85012899D01*
X110297117Y-84884773D01*
X110297117Y-84395968D01*
X110361179Y-84267843D01*
X110416256Y-84212766D01*
X110544382Y-84148704D01*
X110747472Y-84148704D01*
X110875596Y-84212766D01*
G37*
G36*
X115186006Y-85704260D02*
G01*
X100391561Y-85704260D01*
X100391561Y-83306855D01*
X100613783Y-83306855D01*
X100627034Y-83373838D01*
X100643174Y-83404111D01*
X101245125Y-84307038D01*
X100643174Y-85209965D01*
X100627034Y-85240238D01*
X100613783Y-85307221D01*
X100627174Y-85374176D01*
X100665169Y-85430911D01*
X100721983Y-85468787D01*
X100788966Y-85482038D01*
X100855921Y-85468647D01*
X100912656Y-85430652D01*
X100934392Y-85404111D01*
X101455449Y-84622524D01*
X101976507Y-85404111D01*
X101998244Y-85430652D01*
X102054978Y-85468647D01*
X102121933Y-85482038D01*
X102188916Y-85468787D01*
X102245730Y-85430911D01*
X102283725Y-85374177D01*
X102297116Y-85307222D01*
X102283865Y-85240238D01*
X102267725Y-85209966D01*
X101665773Y-84307038D01*
X102267725Y-83404110D01*
X102283865Y-83373838D01*
X102297080Y-83307038D01*
X102709021Y-83307038D01*
X102709021Y-84735609D01*
X102710723Y-84752890D01*
X102710396Y-84757497D01*
X102711774Y-84763557D01*
X102712384Y-84769750D01*
X102714153Y-84774020D01*
X102718002Y-84790949D01*
X102813240Y-85076663D01*
X102827227Y-85107989D01*
X102831347Y-85112739D01*
X102833753Y-85118547D01*
X102855516Y-85145066D01*
X103045992Y-85335543D01*
X103072511Y-85357306D01*
X103078319Y-85359711D01*
X103083071Y-85363833D01*
X103114396Y-85377820D01*
X103400110Y-85473058D01*
X103417040Y-85476906D01*
X103421309Y-85478675D01*
X103427501Y-85479284D01*
X103433563Y-85480663D01*
X103438168Y-85480335D01*
X103455450Y-85482038D01*
X103645926Y-85482038D01*
X103680067Y-85478675D01*
X103743151Y-85452545D01*
X103791433Y-85404263D01*
X103817563Y-85341179D01*
X103817563Y-85272897D01*
X103791433Y-85209813D01*
X103743151Y-85161531D01*
X103717005Y-85150701D01*
X104140955Y-85150701D01*
X104167085Y-85213785D01*
X104188849Y-85240304D01*
X104284087Y-85335543D01*
X104310606Y-85357307D01*
X104316416Y-85359713D01*
X104321166Y-85363833D01*
X104352491Y-85377820D01*
X104638205Y-85473058D01*
X104655135Y-85476906D01*
X104659404Y-85478675D01*
X104665596Y-85479284D01*
X104671658Y-85480663D01*
X104676263Y-85480335D01*
X104693545Y-85482038D01*
X104884021Y-85482038D01*
X104901296Y-85480336D01*
X104905908Y-85480664D01*
X104911976Y-85479284D01*
X104918162Y-85478675D01*
X104922428Y-85476907D01*
X104939361Y-85473058D01*
X105225076Y-85377820D01*
X105256401Y-85363833D01*
X105261150Y-85359713D01*
X105266961Y-85357307D01*
X105293480Y-85335543D01*
X105483956Y-85145067D01*
X105494971Y-85131643D01*
X105498460Y-85128618D01*
X105501772Y-85123356D01*
X105505719Y-85118547D01*
X105507487Y-85114278D01*
X105516737Y-85099585D01*
X105611975Y-84909109D01*
X105612930Y-84906610D01*
X105613682Y-84905597D01*
X105618804Y-84891260D01*
X105624235Y-84877068D01*
X105624324Y-84875811D01*
X105625225Y-84873291D01*
X105720463Y-84492339D01*
X105721338Y-84486417D01*
X105722325Y-84484036D01*
X105723590Y-84471185D01*
X105725481Y-84458402D01*
X105725101Y-84455850D01*
X105725688Y-84449895D01*
X105725688Y-84164180D01*
X105725101Y-84158224D01*
X105725481Y-84155673D01*
X105723590Y-84142889D01*
X105722325Y-84130039D01*
X105721338Y-84127657D01*
X105720463Y-84121736D01*
X105674920Y-83939563D01*
X107474290Y-83939563D01*
X107474290Y-84007845D01*
X107500420Y-84070929D01*
X107548702Y-84119211D01*
X107611786Y-84145341D01*
X107645927Y-84148704D01*
X107947117Y-84148704D01*
X107947117Y-84980011D01*
X107896441Y-85081362D01*
X107795091Y-85132038D01*
X107645927Y-85132038D01*
X107611786Y-85135401D01*
X107548702Y-85161531D01*
X107500420Y-85209813D01*
X107474290Y-85272897D01*
X107474290Y-85341179D01*
X107500420Y-85404263D01*
X107548702Y-85452545D01*
X107611786Y-85478675D01*
X107645927Y-85482038D01*
X107836403Y-85482038D01*
X107870544Y-85478675D01*
X107876353Y-85476268D01*
X107882625Y-85475823D01*
X107914665Y-85463563D01*
X108105142Y-85368325D01*
X108110851Y-85364730D01*
X108113544Y-85363833D01*
X108116898Y-85360923D01*
X108134174Y-85350048D01*
X108148549Y-85333472D01*
X108165128Y-85319095D01*
X108176000Y-85301822D01*
X108178913Y-85298465D01*
X108179811Y-85295768D01*
X108183404Y-85290062D01*
X108278642Y-85099585D01*
X108290902Y-85067544D01*
X108291347Y-85061273D01*
X108293754Y-85055464D01*
X108297117Y-85021323D01*
X108297117Y-84148704D01*
X108407831Y-84148704D01*
X108441972Y-84145341D01*
X108505056Y-84119211D01*
X108553338Y-84070929D01*
X108579468Y-84007845D01*
X108579468Y-83939563D01*
X108617147Y-83939563D01*
X108617147Y-84007845D01*
X108643277Y-84070929D01*
X108691559Y-84119211D01*
X108754643Y-84145341D01*
X108788784Y-84148704D01*
X109089974Y-84148704D01*
X109089974Y-84980011D01*
X109039298Y-85081362D01*
X108937948Y-85132038D01*
X108788784Y-85132038D01*
X108754643Y-85135401D01*
X108691559Y-85161531D01*
X108643277Y-85209813D01*
X108617147Y-85272897D01*
X108617147Y-85341179D01*
X108643277Y-85404263D01*
X108691559Y-85452545D01*
X108754643Y-85478675D01*
X108788784Y-85482038D01*
X108979260Y-85482038D01*
X109013401Y-85478675D01*
X109019210Y-85476268D01*
X109025482Y-85475823D01*
X109057522Y-85463563D01*
X109247999Y-85368325D01*
X109253708Y-85364730D01*
X109256401Y-85363833D01*
X109259755Y-85360923D01*
X109277031Y-85350048D01*
X109291406Y-85333472D01*
X109307985Y-85319095D01*
X109318857Y-85301822D01*
X109321770Y-85298465D01*
X109322668Y-85295768D01*
X109326261Y-85290062D01*
X109421499Y-85099585D01*
X109433759Y-85067544D01*
X109434204Y-85061273D01*
X109436611Y-85055464D01*
X109439974Y-85021323D01*
X109439974Y-84354657D01*
X109947117Y-84354657D01*
X109947117Y-84926085D01*
X109950480Y-84960226D01*
X109952886Y-84966035D01*
X109953332Y-84972307D01*
X109965592Y-85004347D01*
X110060830Y-85194824D01*
X110070077Y-85209513D01*
X110071847Y-85213785D01*
X110075796Y-85218597D01*
X110079107Y-85223856D01*
X110082594Y-85226881D01*
X110093611Y-85240304D01*
X110188849Y-85335543D01*
X110202272Y-85346559D01*
X110205298Y-85350048D01*
X110210557Y-85353358D01*
X110215368Y-85357307D01*
X110219639Y-85359076D01*
X110234331Y-85368325D01*
X110424807Y-85463563D01*
X110456848Y-85475823D01*
X110463118Y-85476268D01*
X110468928Y-85478675D01*
X110503069Y-85482038D01*
X110788784Y-85482038D01*
X110822925Y-85478675D01*
X110828734Y-85476268D01*
X110835006Y-85475823D01*
X110867046Y-85463563D01*
X111057523Y-85368325D01*
X111072215Y-85359075D01*
X111076485Y-85357307D01*
X111081295Y-85353359D01*
X111086555Y-85350048D01*
X111089580Y-85346559D01*
X111103004Y-85335543D01*
X111198243Y-85240304D01*
X111209258Y-85226880D01*
X111212746Y-85223856D01*
X111216057Y-85218595D01*
X111220006Y-85213784D01*
X111221774Y-85209513D01*
X111231023Y-85194823D01*
X111326261Y-85004347D01*
X111338521Y-84972306D01*
X111338966Y-84966035D01*
X111341373Y-84960226D01*
X111344736Y-84926085D01*
X111344736Y-84354657D01*
X111341373Y-84320516D01*
X111338966Y-84314706D01*
X111338521Y-84308436D01*
X111326261Y-84276395D01*
X111231023Y-84085918D01*
X111221772Y-84071222D01*
X111220005Y-84066956D01*
X111216061Y-84062151D01*
X111212747Y-84056885D01*
X111209255Y-84053856D01*
X111203673Y-84047054D01*
X111758015Y-84047054D01*
X111762856Y-84115164D01*
X111793393Y-84176237D01*
X111844976Y-84220975D01*
X111909753Y-84242568D01*
X111977863Y-84237727D01*
X112009903Y-84225467D01*
X112163430Y-84148704D01*
X112461758Y-84148704D01*
X112589882Y-84212766D01*
X112644959Y-84267843D01*
X112709022Y-84395968D01*
X112709022Y-84884772D01*
X112644958Y-85012899D01*
X112589883Y-85067975D01*
X112461758Y-85132038D01*
X112163430Y-85132038D01*
X112009903Y-85055275D01*
X111977863Y-85043015D01*
X111909753Y-85038174D01*
X111844976Y-85059767D01*
X111793393Y-85104505D01*
X111762856Y-85165578D01*
X111758015Y-85233688D01*
X111779608Y-85298465D01*
X111824346Y-85350048D01*
X111853379Y-85368325D01*
X112043855Y-85463563D01*
X112075896Y-85475823D01*
X112082166Y-85476268D01*
X112087976Y-85478675D01*
X112122117Y-85482038D01*
X112503070Y-85482038D01*
X112537211Y-85478675D01*
X112543020Y-85476268D01*
X112549292Y-85475823D01*
X112581332Y-85463563D01*
X112771809Y-85368325D01*
X112786501Y-85359075D01*
X112790771Y-85357307D01*
X112795581Y-85353359D01*
X112800841Y-85350048D01*
X112803866Y-85346559D01*
X112817290Y-85335543D01*
X112912529Y-85240304D01*
X112923544Y-85226880D01*
X112927032Y-85223856D01*
X112930343Y-85218595D01*
X112934292Y-85213784D01*
X112936060Y-85209513D01*
X112945309Y-85194823D01*
X113040547Y-85004347D01*
X113052807Y-84972306D01*
X113053252Y-84966035D01*
X113055659Y-84960226D01*
X113059022Y-84926085D01*
X113059022Y-84735609D01*
X113470927Y-84735609D01*
X113470927Y-84926085D01*
X113474290Y-84960226D01*
X113476696Y-84966035D01*
X113477142Y-84972307D01*
X113489402Y-85004347D01*
X113584640Y-85194824D01*
X113593887Y-85209513D01*
X113595657Y-85213785D01*
X113599606Y-85218597D01*
X113602917Y-85223856D01*
X113606404Y-85226881D01*
X113617421Y-85240304D01*
X113712659Y-85335543D01*
X113726082Y-85346559D01*
X113729108Y-85350048D01*
X113734367Y-85353358D01*
X113739178Y-85357307D01*
X113743449Y-85359076D01*
X113758141Y-85368325D01*
X113948617Y-85463563D01*
X113980658Y-85475823D01*
X113986928Y-85476268D01*
X113992738Y-85478675D01*
X114026879Y-85482038D01*
X114503070Y-85482038D01*
X114520351Y-85480335D01*
X114524957Y-85480663D01*
X114531018Y-85479284D01*
X114537211Y-85478675D01*
X114541479Y-85476906D01*
X114558410Y-85473058D01*
X114844124Y-85377820D01*
X114875449Y-85363833D01*
X114927033Y-85319095D01*
X114957569Y-85258022D01*
X114962409Y-85189913D01*
X114940817Y-85125135D01*
X114896079Y-85073551D01*
X114835006Y-85043015D01*
X114766897Y-85038175D01*
X114733444Y-85045780D01*
X114474670Y-85132038D01*
X114068192Y-85132038D01*
X113940066Y-85067975D01*
X113884990Y-85012899D01*
X113820927Y-84884773D01*
X113820927Y-84776921D01*
X113884989Y-84648797D01*
X113940066Y-84593719D01*
X114087960Y-84519772D01*
X114450275Y-84429194D01*
X114452795Y-84428293D01*
X114454054Y-84428204D01*
X114468257Y-84422768D01*
X114482581Y-84417651D01*
X114483595Y-84416899D01*
X114486095Y-84415943D01*
X114676571Y-84320704D01*
X114691264Y-84311454D01*
X114695532Y-84309687D01*
X114700338Y-84305742D01*
X114705604Y-84302428D01*
X114708631Y-84298937D01*
X114722052Y-84287924D01*
X114817290Y-84192686D01*
X114828305Y-84179262D01*
X114831794Y-84176237D01*
X114835106Y-84170975D01*
X114839053Y-84166166D01*
X114840821Y-84161897D01*
X114850071Y-84147204D01*
X114945309Y-83956728D01*
X114957569Y-83924687D01*
X114958014Y-83918416D01*
X114960421Y-83912607D01*
X114963784Y-83878466D01*
X114963784Y-83687990D01*
X114960421Y-83653849D01*
X114958014Y-83648039D01*
X114957569Y-83641769D01*
X114945309Y-83609728D01*
X114850071Y-83419252D01*
X114840821Y-83404558D01*
X114839053Y-83400290D01*
X114835106Y-83395480D01*
X114831794Y-83390219D01*
X114828305Y-83387193D01*
X114817290Y-83373770D01*
X114722052Y-83278532D01*
X114708628Y-83267516D01*
X114705603Y-83264028D01*
X114700340Y-83260715D01*
X114695532Y-83256769D01*
X114691264Y-83255001D01*
X114676571Y-83245751D01*
X114486094Y-83150513D01*
X114454054Y-83138253D01*
X114447782Y-83137807D01*
X114441973Y-83135401D01*
X114407832Y-83132038D01*
X113931641Y-83132038D01*
X113914359Y-83133740D01*
X113909754Y-83133413D01*
X113903692Y-83134791D01*
X113897500Y-83135401D01*
X113893231Y-83137169D01*
X113876301Y-83141018D01*
X113590587Y-83236256D01*
X113559262Y-83250243D01*
X113507678Y-83294981D01*
X113477142Y-83356054D01*
X113472302Y-83424163D01*
X113493894Y-83488941D01*
X113538632Y-83540525D01*
X113599705Y-83571061D01*
X113667814Y-83575901D01*
X113701267Y-83568296D01*
X113960041Y-83482038D01*
X114366520Y-83482038D01*
X114494644Y-83546100D01*
X114549721Y-83601177D01*
X114613784Y-83729302D01*
X114613784Y-83837153D01*
X114549721Y-83965278D01*
X114494642Y-84020357D01*
X114346753Y-84094302D01*
X113984435Y-84184882D01*
X113981914Y-84185782D01*
X113980658Y-84185872D01*
X113966465Y-84191302D01*
X113952129Y-84196425D01*
X113951115Y-84197176D01*
X113948617Y-84198132D01*
X113758141Y-84293370D01*
X113743447Y-84302619D01*
X113739179Y-84304388D01*
X113734369Y-84308334D01*
X113729108Y-84311647D01*
X113726082Y-84315135D01*
X113712659Y-84326151D01*
X113617421Y-84421389D01*
X113606405Y-84434812D01*
X113602917Y-84437838D01*
X113599604Y-84443100D01*
X113595658Y-84447909D01*
X113593890Y-84452176D01*
X113584640Y-84466870D01*
X113489402Y-84657347D01*
X113477142Y-84689387D01*
X113476696Y-84695658D01*
X113474290Y-84701468D01*
X113470927Y-84735609D01*
X113059022Y-84735609D01*
X113059022Y-84354657D01*
X113055659Y-84320516D01*
X113053252Y-84314706D01*
X113052807Y-84308436D01*
X113040547Y-84276395D01*
X112945309Y-84085918D01*
X112936058Y-84071222D01*
X112934291Y-84066956D01*
X112930347Y-84062151D01*
X112927033Y-84056885D01*
X112923541Y-84053856D01*
X112912528Y-84040436D01*
X112817290Y-83945198D01*
X112803866Y-83934182D01*
X112800841Y-83930694D01*
X112795578Y-83927381D01*
X112790770Y-83923435D01*
X112786502Y-83921667D01*
X112771809Y-83912417D01*
X112581332Y-83817179D01*
X112549292Y-83804919D01*
X112543020Y-83804473D01*
X112537211Y-83802067D01*
X112503070Y-83798704D01*
X112122117Y-83798704D01*
X112087976Y-83802067D01*
X112082166Y-83804473D01*
X112075896Y-83804919D01*
X112043855Y-83817179D01*
X111853379Y-83912417D01*
X111824346Y-83930694D01*
X111779608Y-83982277D01*
X111758015Y-84047054D01*
X111203673Y-84047054D01*
X111198242Y-84040436D01*
X111103004Y-83945198D01*
X111089580Y-83934182D01*
X111086555Y-83930694D01*
X111081292Y-83927381D01*
X111076484Y-83923435D01*
X111072216Y-83921667D01*
X111057523Y-83912417D01*
X110867046Y-83817179D01*
X110835006Y-83804919D01*
X110828734Y-83804473D01*
X110822925Y-83802067D01*
X110788784Y-83798704D01*
X110503069Y-83798704D01*
X110468928Y-83802067D01*
X110463118Y-83804473D01*
X110456848Y-83804919D01*
X110424807Y-83817179D01*
X110234331Y-83912417D01*
X110219637Y-83921666D01*
X110215369Y-83923435D01*
X110210559Y-83927381D01*
X110205298Y-83930694D01*
X110202272Y-83934182D01*
X110188849Y-83945198D01*
X110093611Y-84040436D01*
X110082595Y-84053859D01*
X110079107Y-84056885D01*
X110075794Y-84062146D01*
X110071848Y-84066956D01*
X110070079Y-84071224D01*
X110060830Y-84085918D01*
X109965592Y-84276395D01*
X109953332Y-84308436D01*
X109952886Y-84314706D01*
X109950480Y-84320516D01*
X109947117Y-84354657D01*
X109439974Y-84354657D01*
X109439974Y-84148704D01*
X109550688Y-84148704D01*
X109584829Y-84145341D01*
X109647913Y-84119211D01*
X109696195Y-84070929D01*
X109722325Y-84007845D01*
X109722325Y-83939563D01*
X109696195Y-83876479D01*
X109647913Y-83828197D01*
X109584829Y-83802067D01*
X109550688Y-83798704D01*
X109439974Y-83798704D01*
X109439974Y-83307038D01*
X109436611Y-83272897D01*
X109410481Y-83209813D01*
X109362199Y-83161531D01*
X109299115Y-83135401D01*
X109230833Y-83135401D01*
X109167749Y-83161531D01*
X109119467Y-83209813D01*
X109093337Y-83272897D01*
X109089974Y-83307038D01*
X109089974Y-83798704D01*
X108788784Y-83798704D01*
X108754643Y-83802067D01*
X108691559Y-83828197D01*
X108643277Y-83876479D01*
X108617147Y-83939563D01*
X108579468Y-83939563D01*
X108553338Y-83876479D01*
X108505056Y-83828197D01*
X108441972Y-83802067D01*
X108407831Y-83798704D01*
X108297117Y-83798704D01*
X108297117Y-83307038D01*
X108293754Y-83272897D01*
X108267624Y-83209813D01*
X108219342Y-83161531D01*
X108156258Y-83135401D01*
X108087976Y-83135401D01*
X108024892Y-83161531D01*
X107976610Y-83209813D01*
X107950480Y-83272897D01*
X107947117Y-83307038D01*
X107947117Y-83798704D01*
X107645927Y-83798704D01*
X107611786Y-83802067D01*
X107548702Y-83828197D01*
X107500420Y-83876479D01*
X107474290Y-83939563D01*
X105674920Y-83939563D01*
X105625225Y-83740784D01*
X105624324Y-83738263D01*
X105624235Y-83737007D01*
X105618804Y-83722814D01*
X105613682Y-83708478D01*
X105612930Y-83707464D01*
X105611975Y-83704966D01*
X105516737Y-83514490D01*
X105507487Y-83499796D01*
X105505719Y-83495528D01*
X105501772Y-83490718D01*
X105498460Y-83485457D01*
X105494971Y-83482431D01*
X105483956Y-83469008D01*
X105293480Y-83278532D01*
X105266960Y-83256769D01*
X105261151Y-83254363D01*
X105256401Y-83250243D01*
X105225076Y-83236256D01*
X104939361Y-83141018D01*
X104922428Y-83137168D01*
X104918162Y-83135401D01*
X104911976Y-83134791D01*
X104905908Y-83133412D01*
X104901296Y-83133739D01*
X104884021Y-83132038D01*
X104693545Y-83132038D01*
X104676263Y-83133740D01*
X104671658Y-83133413D01*
X104665596Y-83134791D01*
X104659404Y-83135401D01*
X104655135Y-83137169D01*
X104638205Y-83141018D01*
X104352491Y-83236256D01*
X104321166Y-83250243D01*
X104316415Y-83254362D01*
X104310607Y-83256769D01*
X104284087Y-83278532D01*
X104188849Y-83373770D01*
X104167086Y-83400290D01*
X104140956Y-83463373D01*
X104140956Y-83531655D01*
X104167086Y-83594738D01*
X104215369Y-83643021D01*
X104278452Y-83669151D01*
X104346734Y-83669151D01*
X104409817Y-83643021D01*
X104436337Y-83621258D01*
X104502363Y-83555232D01*
X104721945Y-83482038D01*
X104855621Y-83482038D01*
X105075204Y-83555232D01*
X105216387Y-83696415D01*
X105290334Y-83844309D01*
X105375688Y-84185723D01*
X105375688Y-84428351D01*
X105290334Y-84769765D01*
X105216386Y-84917661D01*
X105075205Y-85058843D01*
X104855621Y-85132038D01*
X104721945Y-85132038D01*
X104502363Y-85058844D01*
X104436337Y-84992818D01*
X104409818Y-84971054D01*
X104346734Y-84944924D01*
X104278453Y-84944923D01*
X104215369Y-84971053D01*
X104167086Y-85019336D01*
X104140956Y-85082420D01*
X104140955Y-85150701D01*
X103717005Y-85150701D01*
X103680067Y-85135401D01*
X103645926Y-85132038D01*
X103483850Y-85132038D01*
X103264268Y-85058844D01*
X103132215Y-84926791D01*
X103059021Y-84707211D01*
X103059021Y-83307038D01*
X103055658Y-83272897D01*
X103029528Y-83209813D01*
X102981246Y-83161531D01*
X102918162Y-83135401D01*
X102849880Y-83135401D01*
X102786796Y-83161531D01*
X102738514Y-83209813D01*
X102712384Y-83272897D01*
X102709021Y-83307038D01*
X102297080Y-83307038D01*
X102297116Y-83306854D01*
X102283725Y-83239899D01*
X102245730Y-83183165D01*
X102188916Y-83145289D01*
X102121933Y-83132038D01*
X102054978Y-83145429D01*
X101998244Y-83183424D01*
X101976507Y-83209965D01*
X101455449Y-83991551D01*
X100934392Y-83209965D01*
X100912656Y-83183424D01*
X100855921Y-83145429D01*
X100788966Y-83132038D01*
X100721983Y-83145289D01*
X100665169Y-83183165D01*
X100627174Y-83239900D01*
X100613783Y-83306855D01*
X100391561Y-83306855D01*
X100391561Y-82909816D01*
X115186006Y-82909816D01*
X115186006Y-85704260D01*
G37*
%LPC*%
D12*
%TO.C,J101*%
X77960002Y-90135000D03*
D13*
X75420002Y-90135000D03*
X72880003Y-90135000D03*
X70340002Y-90135000D03*
%TD*%
D14*
%TO.C,RV201*%
X125450000Y-85680000D03*
D15*
X122910000Y-83140000D03*
X125450000Y-80600000D03*
%TD*%
D12*
%TO.C,J202*%
X63412082Y-54350000D03*
D13*
X63412082Y-51810000D03*
X65952082Y-54350000D03*
X65952082Y-51810000D03*
X68492081Y-54350000D03*
X68492082Y-51810000D03*
X71032082Y-54350000D03*
X71032082Y-51810000D03*
X73572082Y-54350000D03*
X73572082Y-51810000D03*
X76112082Y-54350000D03*
X76112082Y-51810000D03*
%TD*%
D12*
%TO.C,J213*%
X122370000Y-69220000D03*
D13*
X124910000Y-69220000D03*
X127449999Y-69220000D03*
%TD*%
D12*
%TO.C,JP101*%
X51775000Y-75000000D03*
D13*
X54315000Y-75000000D03*
%TD*%
D12*
%TO.C,J214*%
X122370000Y-66680000D03*
D13*
X124910000Y-66680000D03*
X127449999Y-66680000D03*
%TD*%
D16*
%TO.C,TP203*%
X112910000Y-76140000D03*
%TD*%
D12*
%TO.C,J207*%
X66530002Y-97725000D03*
D13*
X63990002Y-97725000D03*
X66530002Y-95185000D03*
X63990002Y-95185000D03*
X66530002Y-92645001D03*
X63990002Y-92645000D03*
%TD*%
D12*
%TO.C,J204*%
X116752081Y-51810000D03*
D13*
X116752081Y-54350000D03*
X114212081Y-51810000D03*
X114212081Y-54350000D03*
X111672082Y-51810000D03*
X111672081Y-54350000D03*
X109132081Y-51810000D03*
X109132081Y-54350000D03*
X106592081Y-51810000D03*
X106592081Y-54350000D03*
X104052081Y-51810000D03*
X104052081Y-54350000D03*
X101512081Y-51810000D03*
X101512081Y-54350000D03*
X98972080Y-51810000D03*
X98972081Y-54350000D03*
X96432081Y-51810000D03*
X96432081Y-54350000D03*
X93892081Y-51810000D03*
X93892081Y-54350000D03*
X91352081Y-51810000D03*
X91352081Y-54350000D03*
X88812082Y-51810000D03*
X88812081Y-54350000D03*
X86272081Y-51810000D03*
X86272081Y-54350000D03*
X83732081Y-51810000D03*
X83732081Y-54350000D03*
X81192081Y-51810000D03*
X81192081Y-54350000D03*
X78652082Y-51810000D03*
X78652081Y-54350000D03*
%TD*%
D17*
%TO.C,H101*%
X55000000Y-55000000D03*
D18*
X55000000Y-55000000D03*
%TD*%
D16*
%TO.C,TP201*%
X112910000Y-80140000D03*
%TD*%
D12*
%TO.C,J211*%
X122370000Y-64140000D03*
D13*
X124910000Y-64140000D03*
X127449999Y-64140000D03*
%TD*%
D17*
%TO.C,H103*%
X55000000Y-95000000D03*
D18*
X55000000Y-95000000D03*
%TD*%
D16*
%TO.C,TP202*%
X119950000Y-90200000D03*
%TD*%
D17*
%TO.C,H102*%
X125000000Y-55000000D03*
D18*
X125000000Y-55000000D03*
%TD*%
D17*
%TO.C,H104*%
X125000000Y-95000000D03*
D18*
X125000000Y-95000000D03*
%TD*%
D12*
%TO.C,J205*%
X51725000Y-62920000D03*
D13*
X54265000Y-62920000D03*
X51725000Y-65460000D03*
X54265000Y-65460000D03*
X51725000Y-68000000D03*
X54265000Y-68000000D03*
%TD*%
D19*
%TO.C,J301*%
X56700000Y-79360000D03*
X56700000Y-85140000D03*
D20*
X57230000Y-77930000D03*
D21*
X53050000Y-77930000D03*
D20*
X57230000Y-86570000D03*
D21*
X53050000Y-86570000D03*
%TD*%
D14*
%TO.C,RV202*%
X125450000Y-77680000D03*
D15*
X122910000Y-75140000D03*
X125450000Y-72600000D03*
%TD*%
%LPD*%
M02*
